<?xml version="1.0" standalone="no"?>
<!DOCTYPE svg PUBLIC "-//W3C//DTD SVG 1.1//EN" "http://www.w3.org/Graphics/SVG/1.1/DTD/svg11.dtd" >
<svg xmlns="http://www.w3.org/2000/svg">
<metadata>Generated by IcoMoon</metadata>
<defs>
<font id="mt-icons" horiz-adv-x="1024">
<font-face units-per-em="1024" ascent="960" descent="-64" />
<missing-glyph horiz-adv-x="1024" />
<glyph unicode="&#x20;" horiz-adv-x="512" d="" />
<glyph unicode="&#xe600;" glyph-name="adobe-reader" d="M472.178 641.422v0c5.689 0 5.689 0 0 0 5.689 22.756 11.378 34.133 11.378 51.2v11.378c5.689 28.444 5.689 51.2 0 56.889 0 0 0 0 0 5.689l-5.689 5.689c0 0 0-5.689-5.689-5.689-11.378-34.133-11.378-73.956 0-125.156v0zM301.511 248.889c-11.378-5.689-22.756-11.378-28.444-17.067-39.822-34.133-68.267-73.953-73.956-91.022v0 0 0c34.133 5.689 68.267 39.822 102.4 108.089 5.689 0 5.689 0 0 0 5.689 0 0 0 0 0zM824.889 334.222c-5.689 5.689-28.444 22.756-108.089 22.756-5.689 0-5.689 0-11.378 0v0c0 0 0 0 0-5.689 39.822-17.067 79.644-28.444 108.089-28.444 5.689 0 5.689 0 11.378 0v0h5.689c0 0 0 0 0 5.689v0c0 0-5.689 0-5.689 5.689zM910.222 960h-796.444c-62.578 0-113.778-51.2-113.778-113.778v-796.444c0-62.578 51.2-113.778 113.778-113.778h796.444c62.578 0 113.778 51.2 113.778 113.778v796.444c0 62.578-51.2 113.778-113.778 113.778zM847.644 288.711c-11.38-5.689-28.444-11.378-51.2-11.378-45.511 0-113.778 11.378-170.667 39.822-96.711-11.378-170.667-22.753-227.556-45.509-5.689 0-5.689 0-11.378-5.689-68.267-119.469-125.156-176.358-170.667-176.358-11.378 0-17.067 0-22.756 5.691l-28.444 17.064v5.689c-5.689 11.38-5.689 17.067-5.689 28.444 5.689 28.444 39.822 79.644 108.089 119.469 11.378 5.689 28.444 17.064 51.2 28.444 17.067 28.444 34.133 62.578 56.889 102.398 28.444 56.889 45.511 113.778 62.578 164.978v0c-22.756 68.267-34.133 108.089-11.378 187.733 5.689 22.756 22.756 45.511 45.511 45.511h11.378c11.378 0 22.756-5.689 34.133-11.378 39.824-39.822 22.756-130.844 0-204.8 0-5.689 0-5.689 0-5.689 22.756-62.578 56.889-113.778 91.022-147.911 17.067-11.378 28.444-22.756 51.2-34.133 28.444 0 51.2 5.689 73.956 5.689 68.267 0 113.778-11.378 130.842-39.822 5.691-11.38 5.691-22.756 5.691-34.133-5.689-5.689-11.378-22.756-22.756-34.133zM477.867 510.578c-11.378-39.822-34.133-85.333-56.889-136.533-11.378-22.753-22.756-39.822-34.133-62.578h11.378c73.956 28.444 142.222 45.511 187.733 51.2-11.38 5.689-17.067 11.378-22.756 17.067-28.444 34.133-62.578 79.644-85.333 130.844z" />
<glyph unicode="&#xe601;" glyph-name="align-center" d="M244.288 841.203h562.196c31.415 0 56.889 25.472 56.889 56.889 0 31.415-25.472 56.889-56.889 56.889h-562.196c-31.417 0-56.889-25.472-56.889-56.889 0-31.415 25.472-56.889 56.889-56.889zM123.817 546.719h789.752c31.415 0 56.889 25.472 56.889 56.889s-25.472 56.889-56.889 56.889h-789.752c-31.415 0-56.889-25.472-56.889-56.889s25.474-56.889 56.889-56.889zM271.059 366.013c-31.417 0-56.889-25.472-56.889-56.889 0-31.415 25.472-56.889 56.889-56.889h495.268c31.415 0 56.889 25.472 56.889 56.889s-25.472 56.889-56.889 56.889h-495.268zM967.111 54.797h-910.222c-31.415 0-56.889-25.472-56.889-56.889 0-31.415 25.472-56.889 56.889-56.889h910.222c31.415 0 56.889 25.472 56.889 56.889s-25.474 56.889-56.889 56.889z" />
<glyph unicode="&#xe602;" glyph-name="align-left" d="M59.142 845.096h446.099c31.728 0 57.452 25.724 57.452 57.452s-25.724 57.452-57.452 57.452h-446.099c-31.728 0-57.452-25.724-57.452-57.452s25.724-57.452 57.452-57.452zM59.142 547.696h797.571c31.726 0 57.452 25.724 57.452 57.452s-25.724 57.452-57.452 57.452h-797.571c-31.728 0-57.452-25.724-57.452-57.452s25.724-57.452 57.452-57.452zM59.142 250.297h689.428c31.726 0 57.452 25.724 57.452 57.452 0 31.726-25.724 57.452-57.452 57.452h-689.428c-31.728 0-57.452-25.724-57.452-57.452s25.724-57.452 57.452-57.452zM964.858 50.904h-905.716c-31.728 0-57.452-25.724-57.452-57.452s25.724-57.452 57.452-57.452h905.718c31.726 0 57.452 25.724 57.452 57.452-0.002 31.726-25.726 57.452-57.454 57.452z" />
<glyph unicode="&#xe603;" glyph-name="align-right" d="M964.854 960h-446.097c-31.741 0-57.452-25.724-57.452-57.452s25.713-57.452 57.452-57.452h446.097c31.743 0 57.457 25.724 57.457 57.452s-25.711 57.452-57.457 57.452zM964.854 662.601h-797.569c-31.741 0-57.452-25.724-57.452-57.452s25.711-57.452 57.452-57.452h797.569c31.743 0 57.457 25.724 57.457 57.452s-25.711 57.452-57.457 57.452zM964.854 365.201h-689.424c-31.741 0-57.452-25.724-57.452-57.452 0-31.726 25.711-57.452 57.452-57.452h689.424c31.743 0 57.457 25.724 57.457 57.452s-25.711 57.452-57.457 57.452zM964.854 50.904h-905.714c-31.741 0-57.452-25.724-57.452-57.452 0-31.726 25.711-57.452 57.452-57.452h905.714c31.743 0 57.457 25.724 57.457 57.452s-25.711 57.452-57.457 57.452z" />
<glyph unicode="&#xe604;" glyph-name="amazon" d="M5.694 198.646c-3.847 2.962-5.694 5.694-5.694 8.271 0 1.654 0.577 3.155 1.847 4.424 2.116 2.501 4.655 3.809 7.579 3.809 2.539 0 5.348-0.885 8.271-2.616 71.057-40.28 149.308-71.788 235.023-94.525 85.638-22.775 174.392-34.124 266.070-34.124 58.323 0 117.685 5.194 178.316 15.581 60.554 10.349 121.070 26.315 181.394 47.859 4.193 1.654 8.502 3.193 12.734 4.424 4.193 1.347 8.772 2.962 13.427 5.040 4.193 1.77 8.502 2.193 12.734 1.347 4.193-0.846 7.233-2.693 8.964-5.694 1.154-2.154 1.962-4.501 2.424-7.002 0-5.040-2.424-9.079-7.579-12.042-6.886-4.963-14.004-9.618-21.352-13.58-7.502-4.078-14.581-8.156-21.352-12.426-54.707-29.469-114.761-51.552-180.355-66.171-65.556-14.658-129.111-21.929-190.781-21.929-97.641 0-189.088 15.889-273.995 47.551-85.022 31.624-160.812 75.597-227.675 131.804zM600.927 671.232c0 12.465-0.115 25.276-0.616 38.549-0.462 13.234-4.424 25.045-12.003 35.279-6.886 9.849-15.773 16.928-26.853 21.198-11.080 4.232-22.006 6.425-33.124 6.425h-8.233c-19.043-1.693-36.394-7.617-51.937-17.62-15.504-10.118-25.507-25.199-30.2-45.281-0.808-4.309-2.655-8.233-5.617-11.888-2.924-3.655-6.771-6.271-11.772-8.041l-104.374 13.234c-4.193 0.846-8.194 2.77-12.157 5.655-3.963 2.924-5.078 7.771-3.501 14.465 5.963 27.661 16.312 51.013 31.047 69.826 14.812 18.89 32.316 34.317 52.591 46.243 20.313 11.965 42.319 20.736 66.133 26.43 23.814 5.655 47.82 9.31 71.865 11.003h22.16c26.584 0 55.053-3.693 85.484-11.003 30.354-7.31 56.707-20.428 79.059-39.28 13.080-11.234 22.891-23.583 29.546-36.74 6.54-13.196 10.964-27.046 13.542-41.472 2.539-14.427 3.809-29.623 3.809-45.512v-209.901c0-24.429 4.232-43.204 12.619-56.476 8.387-13.311 17.851-25.891 28.084-37.818 3.27-4.155 4.924-8.541 4.924-13.196 0-4.578-2.116-8.541-6.194-11.772-10.503-9.272-24.045-20.082-40.703-32.432s-30.546-23.16-41.626-32.432c-7.694-4.809-17.043-5.232-28.123-1.193-17.505 14.081-29.623 25.084-36.51 32.778l-26.122 30.277c-17.505-16.581-34.394-29.816-50.975-39.741-16.581-9.81-33.586-17.235-51.090-22.121-23.237-4.809-49.205-7.271-77.713-7.271-45.127 0-82.945 12.734-113.491 38.087-30.47 25.391-45.704 63.44-45.704 114.184 0 41.896 10.464 76.905 31.47 104.989 21.006 28.007 48.974 49.051 84.214 63.209 18.082 7.694 37.318 13.58 57.861 17.62 20.505 4.078 42.011 7.425 64.132 10.003 14.696 1.654 28.7 2.962 42.126 3.847 13.388 0.846 26.122 2.154 37.895 3.847v14.042h0.077zM600.927 574.36c-13.888 0-27.892-0.423-41.665-1.231-13.734-0.885-26.815-2.616-39.164-5.194-22.506-6.809-41.742-17.505-57.977-32.047-16.081-14.542-24.16-35.933-24.16-64.248 0-22.583 5.925-40.818 17.851-54.514s28.238-20.544 49.013-20.544c3.347 0 6.425 0.308 8.848 0.923 2.578 0.654 4.694 1 6.425 1 26.815 5.925 46.897 21.121 60.516 45.55 12.272 18.428 18.774 36.163 19.351 53.283 0.692 17.081 0.923 35.702 0.923 55.822v21.198h0.038zM951.981 62.302c-4.424-4.193-8.502-5.501-12.157-3.809-3.501 1.693-4.54 5.078-2.77 10.118l12.119 29.162c4.655 11.888 8.848 23.622 12.926 35.24s6.771 22.16 7.925 31.739c1.27 9.502 0.231 16.35-3.155 20.582-5.155 6.771-16.581 10.541-34.317 11.426-3.386 0-7.002 0-10.849 0-14.465 0-28.892-0.616-43.281-1.924-7.694-1.654-15.042-2.501-22.275-2.501-7.117 0-13.734-0.885-19.736-2.578-5.001 0-8.041 1.539-8.848 4.463-0.808 2.962 1.193 6.194 6.309 9.579 13.196 8.464 28.007 15.389 44.55 20.929 14.812 3.309 29.739 5.617 44.55 6.925 9.31 0.808 17.928 1.308 26.122 1.308 5.809 0 11.772-0.231 17.62-0.654 14.119-0.885 25.661-2.347 34.778-4.424 9.079-2.193 15.158-4.501 18.428-7.002 0.808-1.693 1.731-3.924 2.655-6.656s1.423-6.232 1.423-10.426v-5.155c0-8.387-1.731-18.774-5.117-31.047-3.27-12.196-7.694-24.583-13.080-37.048-5.348-12.542-12.696-24.891-21.775-37.164-9.31-12.234-19.928-22.66-32.047-31.085z" />
<glyph unicode="&#xe605;" glyph-name="android" d="M138.965 626.1h-2.624c-33.626 0-61.043-27.504-61.043-61.043v-265.773c0-33.67 27.417-61.087 61.043-61.087h2.667c33.626 0 61.043 27.504 61.043 61.087v265.773c-0.044 33.539-27.504 61.043-61.087 61.043zM229.261 196.701c0-30.871 25.231-56.014 56.102-56.014h59.95v-143.556c0-33.714 27.504-61.13 61.043-61.13h2.624c33.67 0 61.13 27.461 61.13 61.13v143.556h83.781v-143.556c0-33.714 27.592-61.13 61.13-61.13h2.58c33.67 0 61.087 27.461 61.087 61.13v143.556h59.994c30.828 0 56.058 25.143 56.058 56.014v419.648h-565.478v-419.648zM652.845 870.841l47.619 73.505c3.061 4.635 1.705 10.975-2.973 13.993-4.635 3.061-10.975 1.793-13.993-2.973l-49.368-76.041c-37.037 15.173-78.403 23.7-122.086 23.7-43.727 0-85.005-8.527-122.13-23.7l-49.28 76.041c-3.017 4.766-9.401 6.034-14.080 2.973-4.679-3.017-6.034-9.358-2.973-13.993l47.662-73.505c-85.924-42.109-143.862-121.474-143.862-212.513 0-5.597 0.35-11.107 0.831-16.573h567.708c0.481 5.466 0.787 10.975 0.787 16.573 0 91.040-57.982 170.404-143.862 212.513zM380.425 739.222c-15.086 0-27.329 12.156-27.329 27.286s12.244 27.242 27.329 27.242c15.173 0 27.329-12.112 27.329-27.242s-12.244-27.286-27.329-27.286zM643.618 739.222c-15.086 0-27.329 12.156-27.329 27.286s12.244 27.242 27.329 27.242c15.13 0 27.286-12.112 27.286-27.242s-12.156-27.286-27.286-27.286zM887.659 626.1h-2.536c-33.626 0-61.13-27.504-61.13-61.043v-265.773c0-33.67 27.548-61.087 61.13-61.087h2.58c33.67 0 61.043 27.504 61.043 61.087v265.773c0 33.539-27.461 61.043-61.087 61.043z" />
<glyph unicode="&#xe606;" glyph-name="apple" d="M791.496 415.908c-1.292 129.682 105.76 191.876 110.542 194.966-60.15 88.020-153.85 100.078-187.24 101.472-79.742 8.074-155.596-46.948-196.066-46.948-40.368 0-102.818 45.754-168.952 44.552-86.916-1.292-167.058-50.538-211.812-128.38-90.304-156.7-23.126-388.84 64.89-515.926 43.008-62.208 94.292-132.076 161.626-129.58 64.842 2.588 89.362 41.958 167.756 41.958 78.392 0 100.43-41.958 169.048-40.67 69.776 1.296 113.982 63.398 156.694 125.796 49.388 72.168 69.724 142.038 70.924 145.624-1.55 0.708-136.062 52.238-137.41 207.136zM662.56 796.478c35.738 43.358 59.86 103.512 53.28 163.522-51.478-2.096-113.876-34.29-150.81-77.55-33.14-38.376-62.15-99.626-54.376-158.436 57.468-4.484 116.13 29.204 151.906 72.464z" />
<glyph unicode="&#xe607;" glyph-name="arrow-down" d="M511.999 156.146c-18.352 0-36.702 7.007-50.694 20.992l-440.297 440.301c-28.009 28.009-28.009 73.42 0 101.417 27.997 27.997 73.399 27.997 101.41 0l389.58-389.603 389.583 389.589c28.009 27.997 73.406 27.997 101.401 0 28.022-27.997 28.022-73.408 0-101.417l-440.29-440.301c-13.999-13.987-32.349-20.979-50.694-20.979z" />
<glyph unicode="&#xe608;" glyph-name="arrow-down2" d="M850.394 322.007c-18.592 18.596-48.745 18.596-67.337 0l-223.444-223.444v813.823c0 26.294-21.323 47.613-47.613 47.613-26.298 0-47.613-21.319-47.613-47.613v-813.823l-223.444 223.436c-18.6 18.592-48.745 18.592-67.337 0-18.6-18.596-18.6-48.741 0-67.337l304.726-304.718c9.29-9.294 21.483-13.945 33.668-13.945s24.367 4.651 33.668 13.945l304.726 304.726c18.596 18.596 18.596 48.741 0 67.337z" />
<glyph unicode="&#xe609;" glyph-name="arrow-left" d="M220.146 448.008c0 18.345 7.005 36.695 20.983 50.687l440.308 440.297c28.009 28.009 73.42 28.009 101.417 0 27.997-27.997 27.997-73.399 0-101.41l-389.603-389.574 389.576-389.589c27.997-27.997 27.997-73.406 0-101.401-27.997-28.022-73.395-28.022-101.404 0l-440.31 440.29c-13.976 13.999-20.967 32.349-20.967 50.701z" />
<glyph unicode="&#xe60a;" glyph-name="arrow-left2" d="M979.671 492.329h-828.336l197.653 197.666c17.316 17.305 17.316 45.378 0 62.681-17.316 17.316-45.388 17.316-62.678 0l-273.323-273.328c-17.316-17.305-17.316-45.381 0-62.681l273.323-273.341c8.655-8.66 19.999-12.984 31.339-12.984s22.684 4.324 31.339 12.984c17.316 17.305 17.316 45.378 0 62.678l-197.653 197.676h828.336c24.478 0 44.329 19.847 44.329 44.326s-19.847 44.323-44.329 44.323z" />
<glyph unicode="&#xe60b;" glyph-name="arrow-right" d="M1010.055 481.668l-304.726 304.726c-18.592 18.592-48.745 18.592-67.337 0-18.596-18.596-18.596-48.741 0-67.337l223.444-223.444h-813.823c-26.294 0-47.613-21.319-47.613-47.613 0-26.29 21.319-47.613 47.613-47.613h813.823l-223.436-223.444c-18.596-18.596-18.596-48.741 0-67.337 9.294-9.29 21.483-13.945 33.668-13.945s24.37 4.655 33.668 13.945l304.718 304.726c18.596 18.596 18.596 48.741 0 67.337z" />
<glyph unicode="&#xe60c;" glyph-name="arrow-right2" d="M782.857 397.307l-440.304-440.29c-28.009-28.022-73.42-28.022-101.415 0-27.997 27.997-27.997 73.406 0 101.401l389.601 389.589-389.589 389.576c-27.997 28.009-27.997 73.413 0 101.41 27.997 28.009 73.406 28.009 101.415 0l440.304-440.297c13.999-14.005 20.99-32.342 20.99-50.687 0-18.354-7.005-36.704-21.001-50.703z" />
<glyph unicode="&#xe60d;" glyph-name="arrow-up" d="M562.694 718.856l440.291-440.311c28.022-28.009 28.022-73.406 0-101.401-27.997-27.997-73.406-27.997-101.401 0l-389.583 389.595-389.581-389.595c-28.011-27.997-73.415-27.997-101.411 0-28.009 27.997-28.009 73.406 0 101.415l440.298 440.311c14.005 13.992 32.342 20.983 50.694 20.983 18.345 0 36.695-7.005 50.694-20.997z" />
<glyph unicode="&#xe60e;" glyph-name="arrow-up2" d="M850.394 641.337l-304.726 304.718c-18.592 18.592-48.745 18.592-67.337 0l-304.726-304.726c-18.6-18.596-18.6-48.741 0-67.337 9.29-9.294 21.483-13.945 33.668-13.945s24.367 4.651 33.668 13.945l223.444 223.444v-813.823c0-26.294 21.319-47.613 47.613-47.613 26.286 0 47.613 21.319 47.613 47.613v813.827l223.444-223.436c18.6-18.592 48.745-18.592 67.337 0 18.596 18.592 18.596 48.737 0 67.333z" />
<glyph unicode="&#xe60f;" glyph-name="at" d="M943.508 960h-863.020c-44.379 0-80.488-36.109-80.488-80.488v-863.025c0-44.383 36.109-80.488 80.488-80.488h863.020c44.379 0 80.488 36.104 80.488 80.488v863.025c0 44.379-36.109 80.488-80.488 80.488zM955.006 16.488c0-6.232-5.266-11.498-11.498-11.498h-863.020c-6.232 0-11.498 5.266-11.498 11.498v863.025c0 6.232 5.266 11.498 11.498 11.498h863.020c6.232 0 11.498-5.266 11.498-11.498v-863.025zM511.998 751.556c-167.382 0-303.553-136.176-303.553-303.553 0-167.382 136.171-303.553 303.553-303.553 49.093 0 97.868 12 141.060 34.702 16.861 8.863 23.346 29.721 14.483 46.582-8.863 16.87-29.725 23.346-46.582 14.483-33.805-17.767-70.461-26.777-108.957-26.777-129.341 0-234.564 105.227-234.564 234.564s105.223 234.564 234.564 234.564 234.564-105.227 234.564-234.564c0-36.707-18.761-66.175-50.178-78.823-22.247-8.955-46.407-7.681-66.722 2.502 7.69 14.989 13.26 31.524 16.18 49.199 1.739 10.528 2.438 21.060 2.18 31.468l0.064 126.379c0.009 19.055-15.426 34.504-34.476 34.513-0.005 0-0.009 0-0.018 0-19.041 0-34.485-15.431-34.495-34.476v-0.823c-14.925 9.318-31.537 15.684-49.281 18.613-7.202 1.191-14.543 1.794-21.814 1.794-71.225 0-132.004-55.035-144.519-130.859-13.867-84.020 38.183-162.829 116.031-175.684 7.198-1.187 14.534-1.789 21.801-1.789 30.732 0 59.51 10.261 83.316 28.005 40.244-26.092 91.218-31.468 137.519-12.837 57.615 23.194 93.407 77.917 93.407 142.822-0.009 167.373-136.18 303.549-303.562 303.549zM490.749 359.871c-40.317 6.655-66.874 49.893-59.197 96.378 6.881 41.683 39.747 73.11 76.454 73.11 3.518 0 7.074-0.29 10.574-0.869 18.88-3.114 35.451-14.41 46.66-31.809 8.716-13.527 13.389-29.44 13.793-46.076v-3.399c-0.055-4.99-0.423-10.026-1.256-15.081-6.881-41.683-39.752-73.115-76.459-73.115-3.523-0.009-7.078 0.285-10.569 0.86z" />
<glyph unicode="&#xe610;" glyph-name="at-sign" d="M679.657 703.714h78.521l-53.834-303.944c-5.994-35.137-6.186-60.587-0.571-76.295 5.615-15.661 18.148-23.528 37.577-23.528s38.5 4.478 57.197 13.456c18.693 8.978 35.495 22.792 50.467 41.489s27.105 42.221 36.466 70.632c9.335 28.407 14.027 62.055 14.027 100.96 0 56.082-9.383 103.944-28.054 143.56-18.693 39.616-44.307 72.362-76.814 98.142-32.532 25.828-70.867 44.686-114.987 56.653s-91.577 17.983-142.449 17.983c-58.313 0-112.522-10.472-162.61-31.417-50.088-20.971-93.637-49.757-130.67-86.362-37.011-36.653-65.988-80.203-86.907-130.696-20.945-50.445-31.395-105.199-31.395-164.291 0-58.334 8.765-110.649 26.325-157.021 17.582-46.394 43.192-85.796 76.84-118.35 33.643-32.506 75.324-57.555 125.033-75.11s106.741-26.347 171.070-26.347c21.655 0 46.32 2.605 73.995 7.819 27.675 5.258 52.719 13.104 75.158 23.576l34.758-107.691c-30.659-14.951-61.863-25.401-93.637-31.369-31.796-5.994-68.241-9.004-109.346-9.004-72.527 0-139.652 10.499-201.328 31.395-61.697 20.971-115.127 51.983-160.362 93.093-45.257 41.132-80.582 92.169-106.031 153.109-25.397 60.913-38.095 131.402-38.095 211.395 0 81.505 14.572 155.169 43.763 220.97 29.143 65.749 68.406 121.857 117.758 168.251 49.356 46.346 106.549 82.028 171.592 107.12 65.039 25.022 133.824 37.555 206.351 37.555 68.785 0 132.735-9.928 191.801-29.714 59.045-19.834 110.27-48.215 153.632-85.252 43.362-37.011 77.406-82.263 102.097-135.74 24.665-53.429 37.011-114.203 37.011-182.23 0-47.862-8.386-92.692-25.236-134.604-16.824-41.89-39.995-78.142-69.517-108.801-29.57-30.637-63.95-54.923-103.186-72.884-39.237-17.935-81.318-26.917-126.17-26.917-18.719 0-36.061 2.039-52.175 6.16-16.066 4.121-29.522 11.043-40.352 20.757-10.851 9.736-18.884 22.439-24.121 38.148-5.236 15.687-6.752 35.116-4.478 58.313h-4.478c-11.23-15.709-23.363-31.038-36.44-45.967-13.104-14.977-27.484-28.242-43.192-39.829-15.687-11.609-32.911-20.757-51.582-27.484-18.719-6.704-39.263-10.093-61.697-10.093-17.935 0-35.137 3.934-51.582 11.753-16.467 7.867-30.685 18.906-42.626 33.099-11.988 14.193-21.515 31.395-28.599 51.604-7.131 20.187-10.664 42.626-10.664 67.291 0 46.346 7.462 91.411 22.413 135.148 14.951 43.763 35.351 82.433 61.131 116.076s55.703 60.726 89.73 81.318c34.027 20.544 70.109 30.825 108.209 30.825 26.159 0 48.241-3.908 66.176-11.753 17.961-7.867 34.379-18.148 49.356-30.873l34.732 35.917zM608.981 567.973c-9.714 8.246-19.808 14.593-30.258 19.072-10.472 4.5-23.55 6.73-39.263 6.73-22.413 0-43.17-6.351-62.22-19.072-19.072-12.698-35.543-29.121-49.356-49.33-13.862-20.187-24.5-42.839-31.988-67.835-7.462-25.092-11.23-49.57-11.23-73.477 0-24.687 5.049-44.9 15.164-60.608 10.093-15.661 27.462-23.528 52.127-23.528 10.472 0 21.703 3.176 33.643 9.501 11.988 6.373 23.55 14.785 34.806 25.257 11.209 10.451 22.034 22.439 32.506 35.874 10.472 13.483 19.808 27.675 28.054 42.626l28.015 154.79z" />
<glyph unicode="&#xe611;" glyph-name="audio" d="M719.236 720.427h-405.865c-33.134 0-60.087-26.957-60.087-60.087v-345.706c0-33.131 26.954-60.087 60.087-60.087h141.075v-38.918h-34.274c-11.061 0-20.029-8.965-20.029-20.029s8.968-20.029 20.029-20.029h192.264c11.061 0 20.029 8.965 20.029 20.029s-8.968 20.029-20.029 20.029h-34.274v38.918h141.075c33.134 0 60.087 26.957 60.087 60.087v345.706c0 33.134-26.954 60.087-60.087 60.087zM538.103 215.628h-43.599v38.918h43.599v-38.918zM739.266 314.634c0-11.045-8.986-20.029-20.029-20.029h-405.865c-11.043 0-20.029 8.984-20.029 20.029v345.706c0 11.045 8.986 20.029 20.029 20.029h405.868c11.043 0 20.029-8.984 20.029-20.029v-345.706zM982.606 713.34h-118.981c-22.825 0-41.394-18.568-41.394-41.394v-324.259c0-22.825 18.568-41.394 41.394-41.394h44.801v-96.006h-50.61c-8.113 0-14.688-6.578-14.688-14.688s6.575-14.688 14.688-14.688h130.595c8.113 0 14.688 6.578 14.688 14.688s-6.575 14.688-14.688 14.688h-50.61v96.006h44.801c22.825 0 41.394 18.568 41.394 41.394v324.259c0.003 22.825-18.566 41.394-41.391 41.394zM994.624 347.687c0-6.626-5.389-12.017-12.017-12.017h-118.981c-6.626 0-12.017 5.392-12.017 12.017v324.259c0 6.626 5.392 12.017 12.017 12.017h118.981c6.628 0 12.017-5.392 12.017-12.017v-324.259zM923.117 536.648c25.392 0 46.051 20.657 46.051 46.051 0 25.392-20.659 46.048-46.051 46.048s-46.048-20.657-46.048-46.048c0-25.394 20.657-46.051 46.048-46.051zM923.117 599.371c9.195 0 16.675-7.48 16.675-16.672 0-9.195-7.48-16.675-16.675-16.675-9.192 0-16.672 7.48-16.672 16.675s7.48 16.672 16.672 16.672zM923.117 505.084c-33.601 0-60.934-27.336-60.934-60.937s27.336-60.934 60.934-60.934c33.598 0 60.934 27.333 60.934 60.934s-27.333 60.937-60.934 60.937zM923.117 412.587c-17.401 0-31.558 14.157-31.558 31.558s14.157 31.561 31.558 31.561c17.401 0 31.558-14.159 31.558-31.561s-14.157-31.558-31.558-31.558zM160.375 713.34h-118.981c-22.825 0-41.394-18.568-41.394-41.394v-324.259c0-22.825 18.568-41.394 41.394-41.394h44.801v-96.006h-50.61c-8.113 0-14.688-6.578-14.688-14.688s6.575-14.688 14.688-14.688h130.595c8.113 0 14.688 6.578 14.688 14.688s-6.575 14.688-14.688 14.688h-50.61v96.006h44.801c22.825 0 41.394 18.568 41.394 41.394v324.259c0.003 22.825-18.566 41.394-41.391 41.394zM172.392 347.687c0-6.626-5.392-12.017-12.017-12.017h-118.981c-6.626 0-12.017 5.392-12.017 12.017v324.259c0 6.626 5.392 12.017 12.017 12.017h118.981c6.626 0 12.017-5.392 12.017-12.017v-324.259zM100.883 536.648c25.392 0 46.051 20.657 46.051 46.051 0 25.392-20.659 46.048-46.051 46.048s-46.048-20.657-46.048-46.048c0-25.394 20.659-46.051 46.048-46.051zM100.883 599.371c9.195 0 16.675-7.48 16.675-16.672 0-9.195-7.48-16.675-16.675-16.675-9.192 0-16.672 7.48-16.672 16.675s7.48 16.672 16.672 16.672zM100.883 505.084c-33.598 0-60.934-27.336-60.934-60.937s27.336-60.934 60.934-60.934c33.601 0 60.934 27.333 60.934 60.934s-27.333 60.937-60.934 60.937zM100.883 412.587c-17.401 0-31.558 14.157-31.558 31.558s14.157 31.561 31.558 31.561c17.401 0 31.558-14.159 31.558-31.561s-14.157-31.558-31.558-31.558z" />
<glyph unicode="&#xe612;" glyph-name="badoo" d="M904.088 478.426c-29.647 101.316-102.46 187.459-193.477 239.664-103.976 59.823-234.472 65.905-346.172 24.54-56.507-22.611-107.557-57.948-149.495-101.994-0.721 90.625-0.064 181.282-0.392 271.949 0.127 17.621-10.68 35.167-27.252 41.747-19.157 7.724-41.546 7.555-60.544-0.572-16.010-6.919-25.97-23.957-26.267-41.122-0.858-92.098 1.282-184.206 0.721-276.315-0.562-99.737 1.282-199.422 0.816-299.18 2.299-56.263 14.961-112.336 38.431-163.598 41.546-88.697 115.61-161.796 205.016-201.827 75.272-32.052 159.984-45.032 240.724-28.598 98.847 17.292 189.536 73.301 250.514 152.779 57.566 73.841 85.995 167.804 87.012 260.845-1.303 41.143-7.703 82.233-19.634 121.681zM806.46 307.792c-9.367-65.715-41.493-127.89-89.608-173.632-42.118-42.234-97.957-70.186-156.869-79.351-67.94-11.253-139.831 2.426-198.828 38.028-31.13 19.104-58.509 44.046-81.661 72.252-81.65 100.553-86.546 255.897-10.839 361.059 24.391 32.317 53.053 62.048 87.796 83.325 36.714 23.109 78.853 37.043 121.893 42.044 71.807 8.381 147.164-9.536 205.874-52.279 43.94-32.963 80.464-76.819 102.068-127.54 21.032-51.484 29.414-108.818 20.174-163.905zM345.271 442.241c-28.333-0.604-58.446-13.351-73.068-38.727-9.6-17.059-15.449-37.201-12.227-56.835 3.878-21.594 13.117-43.358 30.929-57.026 24.095-18.479 58.276-24.328 86.228-11.178 28.132 11.009 45.032 39.564 49.047 68.533 3.083 21.636-3.454 44.184-15.819 61.964-14.442 21.064-40.147 32.116-65.089 33.27z" />
<glyph unicode="&#xe613;" glyph-name="bag1" d="M918.241 586.591l-3.003 8.020-73.183 117.28c-4.501 13.035-13.526 19.547-26.561 19.547h-98.738v19.546c0 60.651-19.045 110.277-57.647 149.872-38.592 39.596-87.214 59.143-146.356 59.143-59.645 0-108.64-19.665-147.359-59.143-38.474-39.221-58.148-89.222-58.148-149.872v-19.546h-98.739c-11.025 0-19.045-5.004-23.557-14.532l-1.999-2.010-74.689-120.285c-2.502-5.518-4.011-9.528-4.011-12.030-3.004-7.025-4.512-14.542-4.512-22.563v-563.87c0-17.046 5.892-31.203 17.547-42.612 11.911-11.654 26.561-17.536 43.103-17.536h703.223c34.079 0 60.651 26.059 60.651 60.148v563.869c-0.001 9.528-2.011 18.553-6.021 26.572zM716.755 675.802h82.196l34.090-55.133h-116.285v55.133zM362.881 750.985c0 45.616 13.912 82.335 41.606 110.78 27.941 28.689 64.158 43.103 108.266 43.103 43.605 0 79.694-14.532 107.261-43.103 27.566-28.573 41.606-65.163 41.606-110.78v-19.546h-298.739v19.546zM362.881 675.802h298.74v-55.133h-298.74v55.133zM224.044 675.802h83.201v-55.133h-116.778l33.576 55.133zM868.626-3.852c0-3.518-1.508-5.016-5.016-5.016h-703.221c-3.507 0-5.015 1.497-5.015 5.016v563.87c0 3.508 1.508 5.016 5.015 5.016h703.223c3.508 0 5.016-1.508 5.016-5.016v-563.87z" />
<glyph unicode="&#xe614;" glyph-name="bag2" d="M926.744-27.597l-50.79 774.455c-1.117 17.036-15.261 30.283-32.333 30.283h-141.77v20.844c0 89.334-72.681 162.015-162.015 162.015h-55.72c-89.334 0-162.015-72.681-162.015-162.015v-20.844h-141.77c-17.072 0-31.216-13.246-32.333-30.283l-50.919-776.34c-0.588-8.941 2.556-17.726 8.684-24.266 6.128-6.545 14.688-10.252 23.652-10.252h765.123c0.018 0 0.034 0 0.052 0 17.894 0 32.403 14.506 32.403 32.403-0.005 1.351-0.086 2.688-0.249 4zM386.905 797.985c0 53.602 43.607 97.209 97.209 97.209h55.72c53.602 0 97.209-43.607 97.209-97.209v-20.844h-250.138v20.844zM164.011 0.806l46.666 711.526h111.422v-28.914c-23.058-11.821-38.884-35.82-38.884-63.463 0-39.309 31.978-71.287 71.287-71.287s71.287 31.978 71.287 71.287c0 27.644-15.826 51.643-38.884 63.463v28.914h250.138v-28.914c-23.061-11.821-38.884-35.82-38.884-63.463 0-39.309 31.978-71.287 71.287-71.287s71.287 31.978 71.287 71.287c0 27.644-15.826 51.643-38.884 63.463v28.914h111.422l46.666-711.526h-695.926z" />
<glyph unicode="&#xe615;" glyph-name="batterystatus1" d="M621.926 449.919c-14.628 0-26.481-11.856-26.481-26.481v-139.268c0-14.624 11.853-26.481 26.481-26.481s26.481 11.856 26.481 26.481v139.268c0 14.624-11.853 26.481-26.481 26.481zM621.926 245.116c-14.628 0-26.481-11.856-26.481-26.481v-9.537c0-14.624 11.853-26.481 26.481-26.481s26.481 11.856 26.481 26.481v9.537c0 14.628-11.853 26.481-26.481 26.481zM889.82 170.966l-227.668 413.617c-4.23 7.687-9.6 13.855-15.726 18.314v175.847c0 43.552-35.431 78.987-78.984 78.987h-35.965v54.603c0 26.283-21.382 47.666-47.666 47.666h-194.182c-26.283 0-47.666-21.382-47.666-47.666v-54.603h-35.957c-43.556 0-78.991-35.431-78.991-78.987v-763.764c0-43.549 35.435-78.98 78.991-78.98h361.432c43.552 0 78.984 35.431 78.984 78.98v85.805h201.918c18.858 0 34.432 8.054 42.733 22.092 8.297 14.042 7.842 31.569-1.253 48.089zM294.926 907.038h183.59v-49.307h-183.59v49.307zM593.464 14.98c0-14.346-11.676-26.018-26.022-26.018h-361.435c-14.353 0-26.029 11.673-26.029 26.018v763.764c0 14.349 11.676 26.025 26.029 26.025h361.435c14.346 0 26.022-11.676 26.022-26.025v-179.071c-4.484-4.053-8.467-9.106-11.761-15.083l-227.672-413.624c-9.095-16.521-9.551-34.047-1.25-48.089s23.875-22.092 42.733-22.092h197.95v-85.805zM405.009 153.747l213.174 387.284c0.586-0.039 1.169-0.088 1.762-0.088 1.871 0 3.7 0.201 5.462 0.568l213.439-387.764h-433.837z" />
<glyph unicode="&#xe616;" glyph-name="batterystatus2" d="M692.718 857.731h-35.965v54.603c0 26.283-21.382 47.666-47.666 47.666h-194.179c-26.283 0-47.666-21.382-47.666-47.666v-54.603h-35.957c-43.556 0-78.991-35.435-78.991-78.987v-763.764c0-43.549 35.435-78.98 78.991-78.98h361.432c43.556 0 78.987 35.431 78.987 78.98v763.764c0 43.556-35.431 78.987-78.987 78.987zM420.209 907.038h183.586v-49.307h-183.586v49.307zM331.286 804.769h361.435c14.349 0 26.025-11.676 26.025-26.025v-106.446h-413.49v106.446c0 14.353 11.676 26.025 26.029 26.025zM692.718-11.038h-361.432c-14.353 0-26.029 11.673-26.029 26.018v604.356h413.486v-604.356c0-14.349-11.673-26.018-26.025-26.018zM572.583 356.879h-35.287v35.283c0 14.624-11.853 26.481-26.481 26.481s-26.481-11.856-26.481-26.481v-35.283h-35.28c-14.628 0-26.481-11.856-26.481-26.481s11.853-26.481 26.481-26.481h35.28v-35.287c0-14.624 11.853-26.481 26.481-26.481s26.481 11.856 26.481 26.481v35.287h35.287c14.628 0 26.481 11.856 26.481 26.481s-11.856 26.481-26.481 26.481zM512.002 499.869c-93.446 0-169.47-76.025-169.47-169.47s76.025-169.47 169.47-169.47 169.47 76.025 169.47 169.47-76.025 169.47-169.47 169.47zM512.002 213.89c-64.243 0-116.509 52.266-116.509 116.509s52.266 116.509 116.509 116.509 116.509-52.266 116.509-116.509-52.266-116.509-116.509-116.509z" />
<glyph unicode="&#xe617;" glyph-name="batterystatus3" d="M449.053 436.447h123.531c14.624 0 26.481 11.856 26.481 26.481s-11.856 26.481-26.481 26.481h-123.531c-14.624 0-26.481-11.856-26.481-26.481s11.856-26.481 26.481-26.481zM692.722 857.731h-35.964v54.603c0 26.283-21.382 47.665-47.665 47.665h-194.182c-26.283 0-47.665-21.382-47.665-47.665v-54.603h-35.957c-43.559 0-78.994-35.435-78.994-78.987v-763.758c0-43.552 35.435-78.987 78.994-78.987h361.43c43.552 0 78.983 35.435 78.983 78.987v763.758c0.004 43.556-35.428 78.987-78.98 78.987zM420.207 907.039h183.589v-49.307h-183.589v49.307zM331.288 804.77h361.434c14.349 0 26.022-11.676 26.022-26.025v-586.4h-413.485v586.4c0 14.353 11.676 26.025 26.029 26.025zM692.722-11.039h-361.434c-14.353 0-26.032 11.676-26.032 26.025v124.396h413.485v-124.396c0.004-14.353-11.669-26.025-26.018-26.025zM512.004 293.458c93.445 0 169.47 76.024 169.47 169.47s-76.024 169.47-169.47 169.47-169.47-76.024-169.47-169.47 76.021-169.47 169.47-169.47zM512.004 579.436c64.242 0 116.508-52.266 116.508-116.508s-52.266-116.508-116.508-116.508-116.508 52.266-116.508 116.508 52.262 116.508 116.508 116.508z" />
<glyph unicode="&#xe618;" glyph-name="behance" d="M413.268 482.332c0 0 96.893 7.194 96.893 120.847 0 113.642-79.278 169.085-179.709 169.085h-330.452v-635.059h330.452c0 0 201.728-6.381 201.728 187.437 0.011 0 8.807 157.691-118.912 157.691zM145.602 659.38h184.861c0 0 44.925 0 44.925-66.067s-26.433-75.644-56.383-75.644h-173.403v141.711zM321.933 250.056h-176.332v169.726h184.851c0 0 66.954 0.855 66.954-87.22 0-73.442-48.965-81.769-75.473-82.506zM664.624 734.853h262.023v-78.209h-262.023v78.209zM801.237 610.672c-244.216 0-244.002-243.981-244.002-243.981s-16.739-242.773 244.013-242.773c0 0 217.312-12.42 217.312 168.892h-111.761c0 0 3.73-68.312-101.821-68.312 0 0-111.75-7.471-111.75 110.521h329.052c0 0 36 275.651-221.043 275.651zM900.577 419.782h-208.612c0 0 13.649 97.887 111.75 97.887 98.112 0.011 96.861-97.887 96.861-97.887z" />
<glyph unicode="&#xe619;" glyph-name="bell" d="M450.831-36.073c17.318-17.318 37.435-25.692 60.89-25.692 24.027 0 43.846 8.65 60.341 25.692 16.471 17.033 25.135 36.876 25.135 60.331h-171.5c0-23.455 8.378-43.562 25.135-60.331zM1018.41 103.036c-40.008 58.98-70.077 122.264-90.492 188.828-20.368 66.396-38.509 162.572-54.752 288.258-9.45 73.189-39.412 134.935-72.627 174.86-16.506 19.856-35.325 37.816-56.981 53.631-42.581 31.105-77.096 45.812-117.32 57.54-5.577 26.256-19.091 47.91-40.771 65.359-21.345 17.185-45.812 26.256-73.748 26.256-27.375 0-51.95-8.938-73.176-26.256-21.238-17.316-34.645-39.103-40.224-65.359-40.224-11.727-74.928-26.172-117.88-57.54-21.285-15.552-40.234-33.501-56.979-53.631-32.975-39.652-62.605-101.672-72.067-174.86-16.233-125.686-34.885-221.696-55.299-288.258-20.368-66.396-50.174-129.68-89.945-188.828-3.802-5.664-6.149-11.167-6.149-17.318 0-5.030 1.061-9.536 3.909-14.53 6.090-10.653 15.089-16.197 27.375-16.197h961.991c12.288 0 21.226 5.588 27.374 16.197 2.229 5.030 3.35 10.059 3.35 15.089 0.002 6.151-2.013 11.492-5.588 16.759zM87.155 117.004c33.513 57.54 58.945 120.728 76.537 188.269 17.614 67.658 33.608 157.042 49.15 267.031 13.514 95.593 56.921 155.66 111.169 191.617 38.495 25.505 71.436 38.853 110.062 47.48 13.896 3.11 22.906 15.636 22.906 29.604v1.119c0 29.652 25.135 53.631 54.739 53.631 30.725 0 54.751-24.027 54.751-53.631v-1.119c0-13.968 9.929-26.161 24.026-29.604 38.437-9.403 71.913-21.44 109.491-47.48 18.844-13.063 35.539-27.554 49.723-44.131 28.829-33.705 52.999-85.487 61.45-147.484 15.004-110.062 31.284-198.875 49.16-266.473 17.878-67.597 43.572-130.729 77.098-188.828h-850.261z" />
<glyph unicode="&#xe61a;" glyph-name="blogger" d="M1017.5 321.070c-0.331 76.145-0.566 131.167-38.019 179.572-42.427 54.798-107.867 64.084-160.915 65.664 8.934 38.286 11.517 80.735 7.386 126.62-1.131 152.813-114.837 262.655-272.645 267.010l-2.273 0.064-243.966-0.181c-93.874 0-168.077-28.029-220.558-83.296-32.48-34.187-75.622-93.906-80.19-190.47l-0.192-389.371c-0.47-7.354 0.267-14.783 0.171-22.414 0-110.781 17.729-190.523 73.093-249.452 55.321-58.929 137.123-88.804 243.101-88.804 2.295 0 4.611 0.011 6.927 0.043h369.615c94.546 0.79 174.438 31.999 231.040 90.245 56.495 58.139 86.915 140.976 87.95 239.525-0.011 0-0.459 39.674-0.523 55.246zM329.237 752.325l206.235 0.245c48.607-0.768 87.395-44.306 86.605-92.913-0.768-48.127-40.015-83.243-87.971-83.243-0.47 0-207.654-0.085-207.654-0.085-48.607 0.779-87.374 40.805-86.595 89.391 0.768 48.607 40.709 87.075 89.38 86.605zM716.879 173.017h-412.458c-48.597 0-88.014 39.396-88.014 88.014 0 48.607 39.417 88.014 88.014 88.014h412.469c48.618 0 88.014-39.407 88.014-88.014 0-48.618-39.407-88.014-88.025-88.014z" />
<glyph unicode="&#xe61b;" glyph-name="blueetooth" d="M837.12 668.16l-291.84 291.84h-51.2v-389.12l-235.52 235.52-71.68-71.68 286.72-286.72-286.72-286.72 71.68-71.68 235.52 235.52v-389.12h51.2l291.84 291.84-220.16 220.16 220.16 220.16zM596.48 765.44l97.28-97.28-97.28-97.28v194.56zM693.76 227.84l-97.28-97.278v194.558l97.28-97.28z" />
<glyph unicode="&#xe61c;" glyph-name="box" d="M970.573 868.286h-917.146c-29.459 0-53.427-23.968-53.427-53.427v-148.442c0-29.459 23.968-53.427 53.427-53.427h66.294v-531.853c0-29.459 23.968-53.427 53.427-53.427h677.712c29.459 0 53.427 23.968 53.427 53.427v531.853h66.286c29.459 0 53.427 23.968 53.427 53.427v148.442c0 29.462-23.968 53.427-53.427 53.427zM849.017 82.983h-674.027v530.007h674.027v-530.007zM968.731 668.259h-913.461v144.758h913.461v-144.758zM379.726 197.715h264.552c23.364 0 42.373 19.009 42.373 42.373v89.474c0 23.364-19.009 42.373-42.373 42.373h-264.552c-23.364 0-42.373-19.009-42.373-42.373v-89.474c0-23.364 19.009-42.373 42.373-42.373zM385.253 324.035h253.498v-78.42h-253.498v78.42z" />
<glyph unicode="&#xe61d;" glyph-name="boxes" d="M934.967 947.84h-845.934c-49.091 0-89.033-39.938-89.033-89.033v-821.619c0-49.095 39.942-89.033 89.033-89.033h845.934c49.091 0 89.033 39.938 89.033 89.033v821.619c0 49.095-39.938 89.033-89.033 89.033zM964.645 37.193c0-16.362-13.311-29.678-29.678-29.678h-845.934c-16.366 0-29.678 13.315-29.678 29.678v821.615c0 16.362 13.311 29.678 29.678 29.678h845.934c16.366 0 29.678-13.315 29.678-29.678v-821.615zM511.998 756.645c-169.095 0-306.669-137.57-306.669-306.669s137.574-306.669 306.669-306.669 306.669 137.57 306.669 306.669-137.574 306.669-306.669 306.669zM511.998 202.663c-136.371 0-247.313 110.947-247.313 247.313s110.943 247.313 247.313 247.313 247.313-110.947 247.313-247.313-110.947-247.313-247.313-247.313zM511.998 602.322c-84.003 0-152.345-68.342-152.345-152.345s68.342-152.345 152.345-152.345 152.345 68.342 152.345 152.345-68.346 152.345-152.345 152.345zM511.998 356.987c-51.275 0-92.99 41.715-92.99 92.99s41.715 92.99 92.99 92.99 92.99-41.715 92.99-92.99-41.715-92.99-92.99-92.99zM151.265 777.748h40.872c16.394 0 29.678 13.288 29.678 29.678s-13.284 29.678-29.678 29.678h-40.872c-16.394 0-29.678-13.288-29.678-29.678s13.284-29.678 29.678-29.678zM192.137 118.248h-40.872c-16.394 0-29.678-13.288-29.678-29.678s13.288-29.678 29.678-29.678h40.872c16.394 0 29.678 13.288 29.678 29.678s-13.288 29.678-29.678 29.678zM872.735 837.103h-40.872c-16.394 0-29.678-13.288-29.678-29.678s13.284-29.678 29.678-29.678h40.872c16.394 0 29.678 13.288 29.678 29.678s-13.288 29.678-29.678 29.678zM872.735 118.248h-40.872c-16.394 0-29.678-13.288-29.678-29.678s13.284-29.678 29.678-29.678h40.872c16.394 0 29.678 13.288 29.678 29.678s-13.288 29.678-29.678 29.678z" />
<glyph unicode="&#xe61e;" glyph-name="briefcase1" d="M1004.571 772.399c-12.895 13.19-28.856 19.986-47.728 19.986h-253.637v83.807c0 17.204-13.32 31.081-30.524 31.081h-321.364c-17.204 0-31.081-13.878-31.081-31.081v-83.806h-253.077c-18.874 0-34.834-6.797-47.741-19.986-12.621-12.895-19.418-28.856-19.418-47.173v-669.343c0-18.318 6.512-34.55 19.418-47.73 12.634-12.905 28.866-19.429 47.741-19.429h889.682c18.872 0 35.105 6.524 47.728 19.429 12.907 13.192 19.431 29.412 19.431 47.73v669.343c0 18.317-6.797 34.277-19.429 47.171zM381.843 845.668h260.3v-53.281h-260.3v53.281zM218.114 50.332h-150.955c-2.783 0-6.109 3.326-6.109 5.553v669.343c0 3.884 2.214 5.553 6.109 5.553h150.955v-680.45zM744.267 50.332h-463.435v680.448h463.435v-680.448zM962.394 55.885c0-3.884-1.67-5.553-5.552-5.553h-150.968v680.448h150.968c3.882 0 5.552-1.67 5.552-5.553v-669.341z" />
<glyph unicode="&#xe61f;" glyph-name="briefcase2" d="M944.071 748.382h-215.871v38.627c0 45.552-37.055 82.613-82.61 82.613h-267.18c-45.549 0-82.61-37.058-82.61-82.613v-38.627h-215.868c-44.075 0-79.932-35.855-79.932-79.927v-562.148c0-44.072 35.857-79.929 79.932-79.929h864.135c44.075 0 79.932 35.857 79.932 79.929v562.148c0.003 44.069-35.852 79.927-79.929 79.927zM365.608 787.009c0 7.061 5.746 12.808 12.805 12.808h267.18c7.059 0 12.805-5.746 12.805-12.808v-38.627h-292.79v38.627zM79.935 678.577h864.135c5.584 0 10.127-4.54 10.127-10.122v-183.163c-108.164-40.124-271.315-63.824-442.491-63.824-170.799 0-333.726 23.619-441.902 63.609v183.378c0.003 5.582 4.546 10.122 10.13 10.122zM944.071 96.183h-864.135c-5.584 0-10.127 4.54-10.127 10.125v304.816c99.006-32.66 229.175-53.074 371.033-58.189-0.008-0.405-0.059-0.796-0.059-1.206v-15.393c0-28.857 23.477-52.334 52.337-52.334h37.77c28.86 0 52.337 23.477 52.337 52.334v15.393c0 0.41-0.056 0.813-0.059 1.223 141.947 5.16 272.097 25.632 371.036 58.357v-305.003c-0.006-5.582-4.548-10.122-10.133-10.122z" />
<glyph unicode="&#xe620;" glyph-name="building" d="M1009.665 534.785l-468.626 366.601c-8.009 6.268-18.32 9.718-29.043 9.718-10.719 0-21.031-3.453-29.036-9.715l-468.626-366.604c-18.371-14.369-14.467-30.962-12.829-35.705 1.632-4.742 8.782-20.22 32.106-20.22h93.281v-451.564c0-23.381 19.019-42.4 42.4-42.4h219.464c23.378 0 42.4 19.019 42.4 42.4v202.090h161.685v-202.090c0-23.381 19.019-42.4 42.4-42.4h219.464c23.381 0 42.4 19.019 42.4 42.4v451.564h93.281c23.324 0 30.471 15.478 32.106 20.22s5.543 21.336-12.829 35.705zM888.627 529.741c-23.381 0-42.4-19.019-42.4-42.4v-451.564h-202.504v202.090c0 23.381-19.019 42.4-42.4 42.4h-178.645c-23.381 0-42.4-19.019-42.4-42.4v-202.090h-202.504v451.564c0 23.381-19.023 42.4-42.4 42.4h-44.91l421.535 329.763 421.535-329.763h-44.904z" />
<glyph unicode="&#xe621;" glyph-name="button" d="M511.998 960c-282.316 0-511.998-229.682-511.998-511.998s229.682-511.998 511.998-511.998 512.002 229.682 512.002 511.998-229.686 511.998-512.002 511.998zM511.998-6.122c-250.405 0-454.124 203.716-454.124 454.124s203.72 454.124 454.124 454.124 454.128-203.72 454.128-454.124-203.72-454.124-454.128-454.124zM357.842 695.328c-15.981 0-28.937-12.956-28.937-28.937v-436.781c0-15.981 12.956-28.937 28.937-28.937s28.937 12.956 28.937 28.937v436.781c0 15.981-12.956 28.937-28.937 28.937zM785.726 482.792l-301.256 197.242c-7.412 4.85-15.556 7.416-23.559 7.416-21.305 0-37.371-17.347-37.371-40.35v-398.199c0-23.003 16.066-40.35 37.371-40.35 8.006 0 16.155 2.566 23.559 7.419l301.26 197.269c12.543 8.214 19.739 20.892 19.739 34.774 0 13.886-7.196 26.56-19.743 34.778zM481.414 283.146v329.715l251.774-164.848-251.774-164.867z" />
<glyph unicode="&#xe622;" glyph-name="calculating" d="M949.229 946.084h-874.457c-41.227 0-74.771-33.545-74.771-74.771v-846.625c0-41.227 33.545-74.771 74.771-74.771h874.457c41.227 0 74.771 33.545 74.771 74.771v846.625c0 41.231-33.54 74.771-74.771 74.771zM959.91 24.687c0-5.789-4.888-10.682-10.682-10.682h-874.457c-5.789 0-10.682 4.892-10.682 10.682v846.625c0 5.789 4.892 10.682 10.682 10.682h874.457c5.794 0 10.682-4.892 10.682-10.682v-846.625zM816.473 793.474h-608.946c-34.16 0-61.953-27.794-61.953-61.953v-197.871c0-34.16 27.794-61.953 61.953-61.953h608.942c34.16 0 61.953 27.794 61.953 61.953v197.871c0.004 34.16-27.789 61.953-61.949 61.953zM814.337 535.786h-604.674v193.598h604.669v-193.598zM439.365 375.621h-231.838c-30.626 0-55.544-24.918-55.544-55.544v-163.689c0-30.626 24.918-55.544 55.544-55.544h231.838c30.626 0 55.544 24.918 55.544 55.544v163.689c0 30.626-24.918 55.544-55.544 55.544zM443.638 156.392c0-2.273-2-4.273-4.273-4.273h-231.838c-2.273 0-4.273 2-4.273 4.273v163.689c0 2.273 2 4.273 4.273 4.273h231.838c2.273 0 4.273-2 4.273-4.273v-163.689zM820.746 375.621h-231.838c-30.626 0-55.544-24.918-55.544-55.544v-163.689c0-30.626 24.918-55.544 55.544-55.544h231.838c30.626 0 55.544 24.918 55.544 55.544v163.689c0 30.626-24.918 55.544-55.544 55.544zM825.018 156.392c0-2.273-2-4.273-4.273-4.273h-231.838c-2.273 0-4.273 2-4.273 4.273v163.689c0 2.273 2 4.273 4.273 4.273h231.838c2.273 0 4.273-2 4.273-4.273v-163.689zM364.038 260.115h-14.954v14.954c0 14.16-11.481 25.636-25.636 25.636s-25.636-11.476-25.636-25.636v-14.954h-14.954c-14.16 0-25.636-11.476-25.636-25.636 0-14.155 11.476-25.636 25.636-25.636h14.954v-14.954c0-14.155 11.481-25.636 25.636-25.636s25.636 11.481 25.636 25.636v14.954h14.954c14.155 0 25.636 11.481 25.636 25.636 0 14.16-11.476 25.636-25.636 25.636zM745.415 260.115h-81.18c-14.16 0-25.636-11.476-25.636-25.636 0-14.155 11.476-25.636 25.636-25.636h81.18c14.155 0 25.636 11.481 25.636 25.636 0 14.16-11.481 25.636-25.636 25.636z" />
<glyph unicode="&#xe623;" glyph-name="calculator" d="M825.009 960h-626.017c-54.531 0-98.891-44.36-98.891-98.891v-826.217c0-54.531 44.36-98.891 98.891-98.891h626.017c54.531 0 98.891 44.36 98.891 98.891v826.217c0 54.531-44.36 98.891-98.891 98.891zM198.991 894.072h626.017c18.178 0 32.964-14.79 32.964-32.964v-138.373h-691.945v138.373c0 18.174 14.785 32.964 32.964 32.964zM825.009 1.928h-626.017c-18.178 0-32.964 14.79-32.964 32.964v621.917h691.945v-621.917c0-18.178-14.785-32.964-32.964-32.964zM350.436 588.683h-95.27c-24.235 0-43.952-19.717-43.952-43.952v-66.336c0-24.235 19.717-43.952 43.952-43.952h95.27c24.235 0 43.952 19.717 43.952 43.952v66.336c0 24.235-19.717 43.952-43.952 43.952zM350.37 478.39h-95.204v66.341h95.27l-0.066-66.341zM350.436 456.415v21.976c0 0 0 0 0 0v-21.976zM557.883 588.683h-95.257c-24.235 0-43.952-19.717-43.952-43.952v-66.336c0-24.235 19.717-43.952 43.952-43.952h95.257c24.235 0 43.952 19.717 43.952 43.952v66.336c0 24.235-19.717 43.952-43.952 43.952zM557.817 478.39h-95.191v66.341h95.257l-0.066-66.341zM557.883 456.415v21.976c0 0 0 0 0.004 0l-0.004-21.976zM764.012 588.683h-95.248c-24.235 0-43.952-19.717-43.952-43.952v-66.336c0-24.235 19.717-43.952 43.952-43.952h95.248c24.235 0 43.952 19.717 43.952 43.952v66.336c0 24.235-19.717 43.952-43.952 43.952zM763.947 478.39h-95.186v66.341h95.248l-0.062-66.341zM764.012 456.415v21.976c0 0 0.004 0 0.004 0l-0.004-21.976zM350.436 404.218h-95.27c-24.235 0-43.952-19.717-43.952-43.952v-66.341c0-24.235 19.717-43.952 43.952-43.952h95.27c24.235 0 43.952 19.717 43.952 43.952v66.341c0 24.239-19.717 43.952-43.952 43.952zM350.37 293.929h-95.204v66.341h95.27l-0.066-66.341zM350.436 271.954v21.976c0 0 0 0 0 0v-21.976zM557.883 404.218h-95.257c-24.235 0-43.952-19.717-43.952-43.952v-66.341c0-24.235 19.717-43.952 43.952-43.952h95.257c24.235 0 43.952 19.717 43.952 43.952v66.341c0 24.239-19.717 43.952-43.952 43.952zM557.817 293.929h-95.191v66.341h95.257l-0.066-66.341zM557.883 271.954v21.976c0 0 0 0 0.004 0l-0.004-21.976zM350.436 219.752h-95.27c-24.235 0-43.952-19.717-43.952-43.952v-66.336c0-24.235 19.717-43.952 43.952-43.952h95.27c24.235 0 43.952 19.717 43.952 43.952v66.336c0 24.235-19.717 43.952-43.952 43.952zM350.37 109.464h-95.204v66.336h95.27l-0.066-66.336zM350.436 87.488v21.976c0 0 0 0 0 0v-21.976zM557.883 219.752h-95.257c-24.235 0-43.952-19.717-43.952-43.952v-66.336c0-24.235 19.717-43.952 43.952-43.952h95.257c24.235 0 43.952 19.717 43.952 43.952v66.336c0 24.235-19.717 43.952-43.952 43.952zM557.817 109.464h-95.191v66.336h95.257l-0.066-66.336zM557.883 87.488v21.976c0 0 0 0 0.004 0l-0.004-21.976zM755.833 404.218h-78.889c-24.235 0-43.952-19.717-43.952-43.952v-250.802c0-24.235 19.717-43.952 43.952-43.952h78.889c24.235 0 43.952 19.717 43.952 43.952v250.802c0 24.239-19.717 43.952-43.952 43.952zM755.767 109.464h-78.823v250.802h78.889l-0.066-250.802zM755.833 87.488v21.976c0 0 0.004 0 0.004 0l-0.004-21.976z" />
<glyph unicode="&#xe624;" glyph-name="cam" d="M512 358.424c109.788 0 199.106 89.318 199.106 199.106 0 109.784-89.318 199.102-199.106 199.102s-199.106-89.318-199.106-199.102c0-109.788 89.318-199.106 199.106-199.106zM512 698.873c77.94 0 141.347-63.407 141.347-141.343 0-77.94-63.407-141.347-141.347-141.347s-141.347 63.407-141.347 141.347c0 77.936 63.407 141.343 141.347 141.343zM512 476.926c44.443 0 80.604 36.157 80.604 80.604 0 44.443-36.157 80.6-80.604 80.6-44.443 0-80.6-36.157-80.6-80.6 0-44.447 36.157-80.604 80.6-80.604zM971.532 25.707l-76.992 188.378c-14.193 34.725-52.395 62.503-90.208 67.108 68.232 72.144 110.138 169.433 110.138 276.333 0 221.924-180.55 402.474-402.47 402.474s-402.474-180.55-402.474-402.47c0-106.9 41.906-204.189 110.138-276.333-37.809-4.605-76.010-32.387-90.204-67.108l-76.992-188.378c-9.049-22.137-7.52-44.832 4.189-62.268s32.141-27.435 56.057-27.435h798.576c23.912 0 44.347 10 56.057 27.435 11.706 17.432 13.234 40.131 4.186 62.264zM512 902.241c190.076 0 344.712-154.639 344.712-344.712s-154.639-344.712-344.712-344.712-344.715 154.639-344.715 344.712 154.639 344.712 344.715 344.712zM919.391-4.358c-0.208-0.308-2.453-1.879-8.105-1.879h-798.576c-5.653 0-7.898 1.571-8.105 1.879-0.208 0.312-0.816 2.984 1.325 8.217l76.992 188.378c6.835 16.719 29.507 31.948 47.57 31.948h56.207c64.328-43.619 141.89-69.126 225.297-69.126s160.966 25.506 225.297 69.126h56.211c18.063 0 40.739-15.229 47.574-31.948l76.992-188.378c2.133-5.237 1.529-7.909 1.321-8.217z" />
<glyph unicode="&#xe625;" glyph-name="camera" d="M970.039 679.892v102.761c0 24.878-20.237 45.115-45.115 45.115h-157.544c-24.878 0-45.115-20.237-45.115-45.115v-98.047h-18.378c-54.553 37.741-120.677 59.887-191.886 59.887s-137.333-22.146-191.886-59.887h-238.91c-44.775 0-81.207-36.427-81.207-81.207v-394.068c0-44.779 36.431-81.207 81.207-81.207h238.892c54.556-37.745 120.684-59.894 191.9-59.894 71.213 0 137.344 22.15 191.9 59.894h238.892c44.775 0 81.207 36.427 81.207 81.207v394.072c0.004 35.222-22.543 65.265-53.957 76.489zM776.399 773.629h139.498v-89.024h-139.498v89.024zM54.138 209.334v394.068c0 14.928 12.141 27.069 27.069 27.069h177.835c-52.957-59.707-85.169-138.21-85.169-224.108 0-85.891 32.212-164.391 85.162-224.098h-177.828c-14.928 0-27.069 12.141-27.069 27.069zM228.014 406.363c0 156.595 127.397 283.996 283.988 283.996s283.988-127.4 283.988-283.996c0-156.591-127.397-283.992-283.988-283.992s-283.988 127.4-283.988 283.992zM969.862 209.334c0-14.928-12.141-27.069-27.069-27.069h-177.828c52.95 59.707 85.162 138.203 85.162 224.098 0 85.898-32.212 164.398-85.169 224.108h177.835c14.928 0 27.069-12.141 27.069-27.069v-394.068zM511.998 589.128c-100.779 0-182.769-81.986-182.769-182.765s81.99-182.769 182.769-182.769c100.779 0 182.769 81.99 182.769 182.769s-81.99 182.765-182.769 182.765zM511.998 277.735c-70.924 0-128.631 57.704-128.631 128.631 0 70.924 57.704 128.628 128.631 128.628 70.924 0 128.631-57.7 128.631-128.628s-57.704-128.631-128.631-128.631zM139.78 584.468h-32.154c-14.949 0-27.069-12.12-27.069-27.069s12.12-27.069 27.069-27.069h32.154c14.953 0 27.069 12.12 27.069 27.069s-12.12 27.069-27.069 27.069z" />
<glyph unicode="&#xe626;" glyph-name="cameras" d="M930.443 763.575h-42.284v52.579c0 28.662-23.314 51.976-51.976 51.976h-158.736c-28.662 0-51.976-23.314-51.976-51.976v-52.579h-531.913c-51.59 0-93.557-41.968-93.557-93.557v-548.591c0-51.59 41.968-93.557 93.557-93.557h836.885c51.585 0 93.557 41.968 93.557 93.557v548.591c0 51.59-41.972 93.557-93.557 93.557zM687.842 805.759h137.945v-37.893h-137.945v37.893zM961.628 121.431c0-17.194-13.988-31.186-31.186-31.186h-836.885c-17.194 0-31.186 13.992-31.186 31.186v548.587c0 17.194 13.992 31.186 31.186 31.186h836.885c17.198 0 31.186-13.992 31.186-31.186v-548.587zM634.111 524.384c-70.941 0-128.656-57.715-128.656-128.656s57.715-128.656 128.656-128.656 128.656 57.715 128.656 128.656c0 70.937-57.715 128.656-128.656 128.656zM634.111 316.966c-43.427 0-78.759 35.331-78.759 78.759s35.331 78.759 78.759 78.759 78.759-35.331 78.759-78.759c0-43.427-35.331-78.759-78.759-78.759zM634.111 619.892c-123.608 0-224.163-100.56-224.163-224.163s100.56-224.163 224.163-224.163 224.163 100.56 224.163 224.163c0 123.6-100.555 224.163-224.163 224.163zM634.111 221.458c-96.090 0-174.266 78.177-174.266 174.266s78.177 174.266 174.266 174.266 174.266-78.177 174.266-174.266c0-96.090-78.177-174.266-174.266-174.266zM280.394 622.661h-125.438c-22.928 0-41.581-18.653-41.581-41.581v-58.688c0-22.928 18.653-41.581 41.581-41.581h125.438c22.928 0 41.581 18.653 41.581 41.581v58.688c0 22.928-18.653 41.581-41.581 41.581zM280.331 522.389h-125.375v58.692h125.438l-0.062-58.692zM280.394 501.598v20.791c0 0 0 0 0.004 0l-0.004-20.791z" />
<glyph unicode="&#xe627;" glyph-name="car" d="M1018.153 586.101c-5.008 6.109-12.481 9.675-20.321 9.675h-99.663c-24.594 64.869-56.635 128.426-93.055 152.417-125.988 82.882-460.163 82.882-586.15 0-36.446-24.018-68.356-87.654-93.081-152.417h-99.663c-7.918 0-15.365-3.566-20.321-9.675-4.982-6.083-6.975-14.133-5.349-21.868l14.762-71.528c2.517-12.192 13.267-20.897 25.669-20.897h29.524c-28.501-32.88-42.319-74.282-42.503-115.709-0.184-51.182 19.246-97.434 54.774-130.157 0.393-0.341 0.787-0.577 1.154-0.918v-100.082c0-21.684 17.62-39.33 39.33-39.33h91.928c21.71 0 39.33 17.646 39.33 39.33v40.222h514.989v-40.222c0-21.684 17.62-39.33 39.33-39.33h91.928c21.658 0 39.33 17.646 39.33 39.33v98.116c37.705 34.532 55.718 82.043 55.954 129.475 0.157 42.844-14.29 85.766-44.469 119.328h31.49c12.455 0 23.205 8.705 25.669 20.924l14.788 71.502c1.521 7.682-0.393 15.68-5.375 21.815zM262.149 682.513c100.423 66.101 399.306 66.101 499.677 0 19.508-12.795 44.6-64.528 67.595-127.875h-634.815c22.943 63.322 48.035 115.028 67.543 127.875zM144.525 346.24c0 42.739 34.663 77.349 77.376 77.349 42.765 0 77.376-34.611 77.376-77.349s-34.611-77.376-77.376-77.376c-42.713 0-77.376 34.637-77.376 77.376zM803.148 268.864c-42.713 0-77.376 34.637-77.376 77.376s34.663 77.349 77.376 77.349c42.765 0 77.376-34.611 77.376-77.349s-34.663-77.376-77.376-77.376z" />
<glyph unicode="&#xe628;" glyph-name="cassette" d="M958.708 830.696h-67.64c-0.028 0-0.061 0-0.093 0h-757.909c-0.053 0-0.105 0-0.158 0h-67.616c-36.002 0-65.292-29.289-65.292-65.288v-634.816c0-36.002 29.289-65.288 65.288-65.288h893.42c36.002 0 65.288 29.285 65.288 65.288v634.816c0.004 35.998-29.285 65.288-65.288 65.288zM838.652 769.963l-65.632-116.716c-0.891-0.964-3.081-2.247-4.361-2.547h-513.318c-1.279 0.3-3.47 1.583-4.361 2.547l-65.632 116.716h653.303zM963.267 130.592c0-2.425-2.13-4.555-4.555-4.555h-893.424c-2.429 0-4.555 2.13-4.555 4.555v634.816c0 2.429 2.13 4.555 4.555 4.555h50.38l82.589-146.864c10.794-19.2 34.614-33.132 56.639-33.132h514.205c22.026 0 45.845 13.932 56.635 33.128l82.589 146.868h50.38c2.429 0 4.555-2.13 4.555-4.555v-634.816zM738.791 505.067c-70.248 0-127.393-57.15-127.393-127.393s57.15-127.393 127.393-127.393c70.248 0 127.393 57.15 127.393 127.393 0 70.248-57.15 127.393-127.393 127.393zM738.791 311.017c-36.76 0-66.66 29.905-66.66 66.66s29.905 66.66 66.66 66.66c36.76 0 66.66-29.905 66.66-66.66 0-36.76-29.905-66.66-66.66-66.66zM299.502 505.067c-70.248 0-127.393-57.15-127.393-127.393s57.15-127.393 127.393-127.393 127.393 57.15 127.393 127.393c0.004 70.248-57.146 127.393-127.393 127.393zM299.502 311.017c-36.76 0-66.66 29.905-66.66 66.66s29.905 66.66 66.66 66.66 66.66-29.905 66.66-66.66c0.004-36.76-29.901-66.66-66.66-66.66z" />
<glyph unicode="&#xe629;" glyph-name="cd1" d="M426.547 666.72c-78.481 0-142.33-63.852-142.33-142.333s63.849-142.333 142.33-142.333c78.484 0 142.336 63.852 142.336 142.333 0 78.484-63.852 142.333-142.336 142.333zM426.547 431.545c-51.193 0-92.842 41.649-92.842 92.845s41.649 92.845 92.842 92.845c51.197 0 92.849-41.649 92.849-92.845s-41.652-92.845-92.849-92.845zM842.107 428.009c7.265 31.444 10.993 63.832 10.993 96.379 0 235.195-191.352 426.547-426.553 426.547-235.198 0-426.547-191.352-426.547-426.547 0-235.198 191.349-426.543 426.547-426.543 40.283 0 79.942 5.648 118.229 16.681 32.164-98.259 124.662-169.455 233.529-169.455 135.474 0 245.696 110.219 245.696 245.699 0 113.409-77.257 209.068-181.893 237.24zM426.547 147.332c-207.91 0-377.059 169.145-377.059 377.056 0 207.914 169.148 377.059 377.059 377.059 207.914 0 377.066-169.145 377.066-377.059 0-29.897-3.527-59.629-10.445-88.414-4.919 0.29-9.868 0.488-14.863 0.488-135.477 0-245.699-110.219-245.699-245.699 0-9.409 0.584-18.687 1.62-27.825-34.8-10.349-70.942-15.605-107.678-15.605zM778.304-5.446c-108.19 0-196.212 88.022-196.212 196.212s88.022 196.212 196.212 196.212c108.19 0 196.208-88.022 196.208-196.212s-88.019-196.212-196.208-196.212zM641.392 264.911c-9.112 0-16.496-7.384-16.496-16.496 0-0.026 0.007-0.053 0.007-0.076s-0.007-0.049-0.007-0.073v-114.894c0-9.112 7.384-16.496 16.496-16.496 46.716 0 80.625 31.131 80.625 74.024 0 42.883-33.909 74.010-80.625 74.010zM657.888 152.050v77.686c17.162-4.705 31.138-17.189 31.138-38.838 0-21.656-13.975-34.143-31.138-38.848zM861.902 264.911c-9.112 0-16.496-7.384-16.496-16.496 0-0.026 0.007-0.053 0.007-0.076s-0.007-0.049-0.007-0.073v-114.894c0-9.112 7.384-16.496 16.496-16.496 46.713 0 80.619 31.131 80.619 74.024 0 42.883-33.906 74.010-80.619 74.010zM878.398 152.053v77.682c17.159-4.705 31.131-17.192 31.131-38.838 0-21.656-13.972-34.143-31.131-38.844zM823.401 262.097c-8.69 2.695-17.941-2.187-20.626-10.897l-23.589-76.422-23.926 74.419c-2.788 8.674-12.072 13.447-20.752 10.653-8.674-2.788-13.444-12.078-10.653-20.752l33.889-105.415c5.562-17.281 16.941-19.195 21.692-19.195 0.033 0 0.066 0 0.102 0 4.688 0.026 16.169 1.976 21.567 19.449l33.193 107.533c2.686 8.707-2.191 17.941-10.897 20.626z" />
<glyph unicode="&#xe62a;" glyph-name="cd2" d="M426.547 666.72c-78.481 0-142.333-63.852-142.333-142.333s63.852-142.333 142.333-142.333c78.484 0 142.336 63.852 142.336 142.333 0 78.484-63.852 142.333-142.336 142.333zM426.547 431.545c-51.197 0-92.845 41.649-92.845 92.845s41.649 92.845 92.845 92.845c51.197 0 92.849-41.649 92.849-92.845s-41.652-92.845-92.849-92.845zM842.107 428.009c7.261 31.438 10.99 63.826 10.99 96.379 0 235.195-191.349 426.547-426.55 426.547-235.198 0-426.547-191.352-426.547-426.547 0-235.198 191.349-426.543 426.547-426.543 40.283 0 79.936 5.648 118.226 16.677 32.164-98.256 124.662-169.452 233.529-169.452 135.477 0 245.699 110.219 245.699 245.699 0 113.406-77.257 209.068-181.893 237.24zM426.547 147.332c-207.91 0-377.059 169.145-377.059 377.056 0 207.914 169.148 377.059 377.059 377.059 207.914 0 377.062-169.145 377.062-377.059 0-29.904-3.524-59.636-10.439-88.414-4.922 0.29-9.871 0.488-14.869 0.488-135.477 0-245.699-110.219-245.699-245.699 0-9.409 0.584-18.687 1.62-27.825-34.8-10.349-70.942-15.605-107.675-15.605zM778.301-5.446c-108.19 0-196.212 88.022-196.212 196.212s88.022 196.212 196.212 196.212 196.212-88.022 196.212-196.212c0-108.19-88.022-196.212-196.212-196.212zM757.998 111.249c-3.002-0.34-6.051-0.508-9.066-0.508-44.126 0-80.025 35.898-80.025 80.021 0 44.126 35.898 80.025 80.025 80.025 2.385 0 4.764-0.102 7.080-0.307 9.063-0.749 17.077 5.922 17.872 14.998 0.792 9.076-5.922 17.080-14.998 17.872-3.266 0.284-6.615 0.429-9.954 0.429-62.318 0-113.016-50.698-113.016-113.016s50.698-113.013 113.016-113.013c4.243 0 8.535 0.241 12.751 0.716 9.053 1.019 15.569 9.182 14.549 18.235-1.016 9.056-9.221 15.605-18.235 14.549zM807.663 303.778c-9.112 0-16.496-7.384-16.496-16.496 0-0.040 0.013-0.076 0.013-0.112s-0.013-0.076-0.013-0.115v-192.807c0-9.112 7.384-16.496 16.496-16.496 62.318 0 113.013 50.698 113.013 113.020 0 62.311-50.698 113.007-113.013 113.007zM824.159 112.459v156.608c36.235-7.624 63.526-39.831 63.526-78.299 0-38.472-27.291-70.685-63.526-78.309z" />
<glyph unicode="&#xe62b;" glyph-name="cd3" d="M341.16 654.448c-52.822 0-95.8-42.975-95.8-95.8s42.978-95.8 95.8-95.8 95.8 42.975 95.8 95.8c0 52.825-42.978 95.8-95.8 95.8zM341.16 500.839c-31.878 0-57.81 25.932-57.81 57.81s25.932 57.81 57.81 57.81c31.878 0 57.81-25.932 57.81-57.81s-25.936-57.81-57.81-57.81zM957.517 366.9h-364.11c41.569 54.714 64.648 121.964 64.648 191.748 0 174.736-142.159 316.895-316.895 316.895s-316.892-142.159-316.892-316.895c0-69.784 23.075-137.035 64.648-191.748h-22.433c-36.657 0-66.483-29.826-66.483-66.483v-213.478c0-36.657 29.826-66.483 66.483-66.483h891.034c36.657 0 66.483 29.826 66.483 66.483v213.478c0 36.661-29.826 66.483-66.483 66.483zM81.253 558.648c0 143.314 116.592 259.91 259.906 259.91 143.318 0 259.91-116.596 259.91-259.91 0-72.975-30.802-142.539-84.574-191.748h-350.669c-53.771 49.209-84.574 118.776-84.574 191.748zM967.015 86.939c0-5.148-4.35-9.498-9.498-9.498h-891.034c-5.148 0-9.498 4.35-9.498 9.498v213.478c0 5.148 4.35 9.498 9.498 9.498h891.034c5.148 0 9.498-4.35 9.498-9.498v-213.478zM570.921 264.243h-414.086c-20.948 0-37.99-17.042-37.99-37.99v-65.146c0-20.948 17.042-37.99 37.99-37.99h414.086c20.948 0 37.99 17.042 37.99 37.99v65.146c0 20.948-17.042 37.99-37.99 37.99zM570.868 161.103h-414.033v65.146h414.086l-0.053-65.146zM570.921 142.108v18.995h0.004l-0.004-18.995zM736.813 222.173h-47.488c-15.739 0-28.493-12.757-28.493-28.493s12.753-28.493 28.493-28.493h47.488c15.739 0 28.493 12.757 28.493 28.493s-12.753 28.493-28.493 28.493zM877.377 222.173h-47.488c-15.739 0-28.493-12.757-28.493-28.493s12.753-28.493 28.493-28.493h47.488c15.739 0 28.493 12.757 28.493 28.493s-12.753 28.493-28.493 28.493z" />
<glyph unicode="&#xe62c;" glyph-name="cellphone1" d="M376.002 379.502h271.999c23.008 0 41.723 18.718 41.723 41.723v231.865c0 23.004-18.715 41.723-41.723 41.723h-271.999c-23.004 0-41.723-18.718-41.723-41.723v-231.865c0-23.004 18.718-41.723 41.723-41.723zM372.21 653.091c0 2.056 1.737 3.793 3.793 3.793h271.999c2.056 0 3.793-1.737 3.793-3.793v-231.865c0-2.056-1.737-3.793-3.793-3.793h-271.999c-2.056 0-3.793 1.737-3.793 3.793v231.865zM367.32 291.573c-15.711 0-28.447-12.737-28.447-28.447 0-15.714 12.737-28.447 28.447-28.447h27.977c15.711 0 28.447 12.733 28.447 28.447 0 15.711-12.737 28.447-28.447 28.447h-27.977zM663.139 291.573h-25.743c-15.711 0-28.447-12.737-28.447-28.447 0-15.714 12.737-28.447 28.447-28.447h25.743c15.711 0 28.447 12.733 28.447 28.447 0 15.711-12.737 28.447-28.447 28.447zM411.433 192.637h-44.112c-15.711 0-28.447-12.737-28.447-28.447 0-15.714 12.737-28.447 28.447-28.447h44.116c15.711 0 28.447 12.733 28.447 28.447-0.004 15.711-12.737 28.447-28.451 28.447zM537.284 192.637h-44.112c-15.711 0-28.447-12.737-28.447-28.447 0-15.714 12.737-28.447 28.447-28.447h44.112c15.711 0 28.447 12.733 28.447 28.447 0 15.711-12.737 28.447-28.447 28.447zM663.139 192.637h-44.116c-15.711 0-28.447-12.737-28.447-28.447 0-15.714 12.737-28.447 28.447-28.447h44.116c15.711 0 28.447 12.733 28.447 28.447 0 15.711-12.737 28.447-28.447 28.447zM411.433 87.113h-44.112c-15.711 0-28.447-12.733-28.447-28.447s12.737-28.447 28.447-28.447h44.116c15.711 0 28.447 12.733 28.447 28.447-0.004 15.714-12.737 28.447-28.451 28.447zM537.284 87.113h-44.112c-15.711 0-28.447-12.733-28.447-28.447s12.737-28.447 28.447-28.447h44.112c15.711 0 28.447 12.733 28.447 28.447s-12.737 28.447-28.447 28.447zM663.139 87.113h-44.116c-15.711 0-28.447-12.733-28.447-28.447s12.737-28.447 28.447-28.447h44.116c15.711 0 28.447 12.733 28.447 28.447s-12.737 28.447-28.447 28.447zM515.228 344.25c-34.782 0-63.081-28.299-63.081-63.081s28.296-63.081 63.081-63.081c34.782 0 63.077 28.299 63.077 63.081s-28.296 63.081-63.077 63.081zM515.228 256.018c-13.867 0-25.151 11.284-25.151 25.151s11.284 25.151 25.151 25.151c13.867 0 25.147-11.284 25.147-25.151s-11.28-25.151-25.147-25.151zM512.004 869.363c-88.892 0-161.403-28.868-207.935-78.31v140.5c0 15.714-12.737 28.447-28.447 28.447s-28.447-12.733-28.447-28.447v-929.172c0-36.599 29.779-66.377 66.377-66.377h396.902c36.599 0 66.377 29.779 66.377 66.377v638.902c-0.004 136.422-106.427 228.080-264.826 228.080zM719.931 2.377c0-5.139-4.343-9.482-9.482-9.482h-396.902c-5.139 0-9.482 4.343-9.482 9.482v638.906c0 126.352 112.014 171.189 207.935 171.189 95.917 0 207.931-44.833 207.931-171.189v-638.906z" />
<glyph unicode="&#xe62d;" glyph-name="cellphones2" d="M819.945 960h-615.889c-38.423 0-69.687-31.264-69.687-69.687v-884.626c0-38.423 31.264-69.687 69.687-69.687h615.889c38.423 0 69.687 31.264 69.687 69.687v884.626c0 38.423-31.26 69.687-69.687 69.687zM204.055 900.268h615.889c5.396 0 9.955-4.56 9.955-9.955v-445.312h-635.8v445.312c0 5.396 4.56 9.955 9.955 9.955zM819.945-4.268h-615.889c-5.396 0-9.955 4.56-9.955 9.955v379.583h635.8v-379.583c0-5.4-4.556-9.955-9.955-9.955zM612.126 248.958c0 55.208-44.914 100.122-100.122 100.122s-100.126-44.914-100.126-100.122c0-55.208 44.914-100.13 100.126-100.13 55.204 0.004 100.122 44.922 100.122 100.13zM512 188.653c-33.255 0-60.305 27.054-60.305 60.309s27.050 60.301 60.305 60.301c33.251 0 60.301-27.050 60.301-60.301s-27.047-60.309-60.301-60.309zM741.943 318.669h-43.779c-16.498 0-29.866-13.368-29.866-29.866s13.368-29.866 29.866-29.866h43.779c16.498 0 29.866 13.368 29.866 29.866s-13.368 29.866-29.866 29.866zM325.836 318.669h-43.779c-16.498 0-29.866-13.368-29.866-29.866s13.368-29.866 29.866-29.866h43.779c16.498 0 29.866 13.368 29.866 29.866s-13.368 29.866-29.866 29.866zM741.943 219.526h-43.779c-16.498 0-29.866-13.368-29.866-29.866s13.368-29.866 29.866-29.866h43.779c16.498 0 29.866 13.368 29.866 29.866 0 16.494-13.368 29.866-29.866 29.866zM325.836 219.526h-43.779c-16.498 0-29.866-13.368-29.866-29.866s13.368-29.866 29.866-29.866h43.779c16.498 0 29.866 13.368 29.866 29.866 0 16.494-13.368 29.866-29.866 29.866zM741.943 120.384h-43.779c-16.498 0-29.866-13.368-29.866-29.866s13.368-29.866 29.866-29.866h43.779c16.498 0 29.866 13.368 29.866 29.866s-13.368 29.866-29.866 29.866zM603.242 120.384h-43.775c-16.498 0-29.866-13.368-29.866-29.866s13.368-29.866 29.866-29.866h43.775c16.498 0 29.866 13.368 29.866 29.866s-13.368 29.866-29.866 29.866zM464.537 120.384h-43.779c-16.498 0-29.866-13.368-29.866-29.866s13.368-29.866 29.866-29.866h43.779c16.498 0 29.866 13.368 29.866 29.866s-13.368 29.866-29.866 29.866zM325.836 120.384h-43.779c-16.498 0-29.866-13.368-29.866-29.866s13.368-29.866 29.866-29.866h43.779c16.498 0 29.866 13.368 29.866 29.866s-13.368 29.866-29.866 29.866z" />
<glyph unicode="&#xe62e;" glyph-name="certificate" d="M953.070 890.768h-882.14c-39.109 0-70.93-31.821-70.93-70.93v-598.48c0-39.109 31.821-70.93 70.93-70.93h514.389l-15.532-94.722c-2.922-17.83 2.975-33.982 15.779-43.198 12.8-9.217 29.977-9.711 45.967-1.285l110.979 58.414c3.097 1.589 11.628 1.589 14.725 0l110.979-58.414c7.592-3.996 15.455-5.987 22.989-5.987 8.333 0 16.261 2.436 22.981 7.275 12.8 9.217 18.697 25.373 15.779 43.203l-15.528 94.718h38.635c39.109 0 70.93 31.821 70.93 70.93v598.476c-0.004 39.113-31.825 70.93-70.934 70.93zM749.877 272.006c-68.162 0-123.621 55.459-123.621 123.621s55.459 123.621 123.621 123.621 123.621-55.459 123.621-123.621c0-68.162-55.459-123.621-123.621-123.621zM785.557 123.434c-20.675 10.887-50.689 10.887-71.36 0l-78.461-41.298 24.943 152.151c26.455-14.685 56.862-23.075 89.202-23.075s62.743 8.394 89.202 23.075l9.719-59.318c0.024-0.097 0.032-0.203 0.053-0.3l15.171-92.537-78.469 41.302zM963.203 221.358c0-5.492-4.641-10.133-10.133-10.133h-48.601l-11.102 67.724c-0.045 0.268-0.118 0.523-0.17 0.79 25.677 31.688 41.103 72.016 41.103 115.888 0 101.689-82.729 184.418-184.418 184.418s-184.418-82.729-184.418-184.418c0-43.871 15.426-84.192 41.103-115.888-0.053-0.263-0.126-0.523-0.17-0.786l-11.11-67.781c-0.34 0.012-0.669 0.053-1.009 0.053h-523.347c-5.492 0-10.133 4.641-10.133 10.133v598.48c0 5.492 4.641 10.133 10.133 10.133h882.14c5.492 0 10.133-4.641 10.133-10.133v-598.48zM845.564 715.826h-689.036c-16.792 0-30.399-13.606-30.399-30.399s13.606-30.399 30.399-30.399h689.036c16.792 0 30.399 13.606 30.399 30.399s-13.606 30.399-30.399 30.399zM448.355 550.993h-291.827c-16.792 0-30.399-13.606-30.399-30.399s13.606-30.399 30.399-30.399h291.827c16.792 0 30.399 13.606 30.399 30.399s-13.606 30.399-30.399 30.399z" />
<glyph unicode="&#xe62f;" glyph-name="charge" d="M840.666 806.177h-8.040v86.373c0 14.279-11.573 25.856-25.856 25.856s-25.856-11.577-25.856-25.856v-86.373h-35.619v86.373c0 14.279-11.573 25.856-25.856 25.856s-25.856-11.577-25.856-25.856v-86.373h-8.040c-25.663 0-46.541-20.878-46.541-46.541v-122.789c0-25.663 20.878-46.541 46.541-46.541h51.705v-628.449c0-14.279 11.573-25.856 25.856-25.856s25.856 11.577 25.856 25.856v628.449h51.705c25.663 0 46.541 20.878 46.541 46.541v122.789c0 25.663-20.875 46.541-46.541 46.541zM835.495 642.018h-144.781v112.447h144.781v-112.447zM518.564 835.99h-28.221v77.468c0 25.663-20.878 46.541-46.541 46.541h-155.13c-25.663 0-46.541-20.878-46.541-46.541v-77.468h-28.214c-42.528 0-77.127-34.599-77.127-77.124v-745.743c0-42.525 34.599-77.124 77.127-77.124h304.644c42.521 0 77.12 34.599 77.12 77.124v745.743c0.003 42.528-34.596 77.124-77.117 77.124zM293.843 908.288h144.784v-72.297h-144.784v72.297zM213.92 784.278h304.644c14.007 0 25.408-11.401 25.408-25.411v-320.375h-355.467v320.375c0 14.014 11.401 25.411 25.415 25.411zM518.564-12.288h-304.644c-14.011 0-25.415 11.401-25.415 25.411v373.659h355.463v-373.659c0-14.014-11.397-25.411-25.405-25.411z" />
<glyph unicode="&#xe630;" glyph-name="chart" d="M989.867 62.883h-878.988l142.983 286.562 148.297-96.453c9.424-6.13 21.266-7.228 31.657-2.925 10.393 4.293 18.001 13.435 20.338 24.431l57.939 272.179 162.917-83.318c13.773-7.048 30.559-3.946 40.908 7.556l135.619 150.675 4.265-45.632c1.649-17.692 16.529-30.963 33.948-30.963 1.062 0 2.135 0.049 3.214 0.15 18.771 1.753 32.563 18.388 30.813 37.159l-12.111 129.698c-1.759 18.771-18.375 32.571-37.159 30.813l-129.696-12.105c-18.768-1.753-32.566-18.388-30.816-37.156 1.761-18.771 18.347-32.569 37.162-30.813l49.755 4.645-118.175-131.299-179.211 91.652c-9.454 4.839-20.625 4.994-30.209 0.431-9.59-4.563-16.507-13.328-18.719-23.716l-56.863-267.144-138.718 90.221c-8.157 5.306-18.192 6.881-27.574 4.323-9.388-2.553-17.239-8.989-21.578-17.692l-141.599-283.787v736.873c0 18.853-15.284 34.133-34.133 34.133s-34.133-15.281-34.133-34.133v-838.5c0-18.85 15.284-34.133 34.133-34.133h955.733c18.847 0 34.133 15.284 34.133 34.133s-15.286 34.133-34.133 34.133z" />
<glyph unicode="&#xe631;" glyph-name="check" d="M1009.41 750.058l-47.417 47.417c-19.536 19.533-51.424 19.533-71.128 0l-497.21-497.38-260.461 260.461c-19.533 19.536-51.424 19.536-71.126 0l-47.419-47.417c-19.533-19.536-19.533-51.424 0-71.126l343.276-343.274c9.852-9.852 22.539-14.861 35.396-14.861s25.712 5.009 35.398 14.861l580.189 580.191c20.035 19.867 20.035 51.59 0.502 71.128z" />
<glyph unicode="&#xe632;" glyph-name="chrome" d="M258.278 513.42l-146.532 253.802c93.818 117.464 238.234 192.74 400.254 192.74 187.434 0 351.308-100.736 440.532-251h-417.77c-7.504 0.65-15.092 1-22.762 1-121.874 0-224.578-83.644-253.722-196.542zM695.304 634.962h293.46c22.742-57.93 35.234-121.004 35.234-187 0-280.826-226.102-508.804-506.188-511.926l209.394 362.678c29.484 42.378 46.796 93.828 46.796 149.248 0 73.17-30.164 139.42-78.696 187zM326 447.962c0 102.56 83.44 186 186 186 102.558 0 186-83.44 186-186 0-102.558-83.442-186-186-186-102.56 0-186 83.442-186 186zM582.182 195.522l-146.578-253.878c-246.532 36.884-435.604 249.514-435.604 506.318 0 91.218 23.884 176.846 65.696 251.024l209.030-362.054c41.868-89.11 132.476-150.968 237.274-150.968 24.3-0.002 47.836 3.338 70.182 9.558z" />
<glyph unicode="&#xe633;" glyph-name="clip" d="M713.776 663.767c-17.694 0-31.965-13.699-31.965-31.405v-464.047c0-47.381-17.121-86.189-50.232-119.3s-72.491-50.232-120.431-50.232c-46.809 0-86.762 16.549-119.871 49.659-33.109 33.108-49.659 73.062-49.659 119.871v612.463c0 31.392 11.556 58.645 33.682 81.051 22.406 22.686 49.646 34.815 82.195 34.815 32.538 0 59.79-12.129 82.182-34.815 22.126-22.406 33.683-49.659 33.683-81.051v-521.146c0-32.525-25.11-57.647-57.647-57.647-31.394 0-57.087 26.254-57.087 57.647v271.138c0 17.694-13.7 31.392-31.392 31.392s-31.392-13.699-31.392-31.392v-271.138c0-33.669 11.422-62.212 34.815-85.618 23.405-23.405 51.376-34.815 85.058-34.815 33.669 0 61.931 11.702 85.616 34.815 23.125 22.564 34.816 50.803 34.816 85.618v521.146c0 49.086-17.84 91.183-52.508 126.143-34.962 35.253-77.059 53.080-126.145 53.080-49.098 0-91.194-17.827-126.155-53.080-34.667-34.961-52.507-77.057-52.507-126.143v-612.461c0-64.503 22.832-119.3 67.924-164.391s99.888-67.925 164.391-67.925 120.431 21.686 166.096 67.353c45.664 45.664 67.924 101.593 67.924 164.964v464.045c0 17.707-13.7 31.405-31.392 31.405z" />
<glyph unicode="&#xe634;" glyph-name="clock" d="M929.282 754.205h-113.182v35.471c0 51.396-42.493 93.211-94.718 93.211h-418.764c-52.225 0-94.718-41.815-94.718-93.211v-35.471h-113.182c-52.225 0-94.718-42.493-94.718-94.718v-551.651c0-52.23 42.493-94.718 94.718-94.718h834.564c52.225 0 94.718 42.488 94.718 94.718v551.651c0 52.225-42.493 94.718-94.718 94.718zM271.045 789.672c0 16.578 14.161 30.066 31.573 30.066h418.768c17.411 0 31.573-13.488 31.573-30.066v-35.471h-481.913v35.471zM960.855 107.836c0-17.411-14.161-31.573-31.573-31.573h-834.564c-17.411 0-31.573 14.161-31.573 31.573v551.651c0 17.411 14.161 31.573 31.573 31.573h834.564c17.411 0 31.573-14.161 31.573-31.573v-551.651zM209.34 515.856h-25.010c-34.818 0-63.145-28.327-63.145-63.145v-146.013c0-34.818 28.323-63.145 63.145-63.145h25.010c34.818 0 63.145 28.327 63.145 63.145v146.013c0 34.818-28.327 63.145-63.145 63.145zM230.388 306.697c0-11.606-9.442-21.048-21.048-21.048h-25.010c-11.606 0-21.048 9.442-21.048 21.048v146.013c0 11.606 9.442 21.048 21.048 21.048h25.010c11.606 0 21.048-9.442 21.048-21.048v-146.013zM657.647 515.856h-25.010c-34.818 0-63.145-28.327-63.145-63.145v-146.013c0-34.818 28.327-63.145 63.145-63.145h25.010c34.818 0 63.145 28.327 63.145 63.145v146.013c0 34.818-28.327 63.145-63.145 63.145zM678.696 306.697c0-11.606-9.442-21.048-21.048-21.048h-25.010c-11.606 0-21.048 9.442-21.048 21.048v146.013c0 11.606 9.442 21.048 21.048 21.048h25.010c11.606 0 21.048-9.442 21.048-21.048v-146.013zM839.674 515.856h-25.010c-34.818 0-63.145-28.327-63.145-63.145v-146.013c0-34.818 28.327-63.145 63.145-63.145h25.010c34.818 0 63.145 28.327 63.145 63.145v146.013c0 34.818-28.327 63.145-63.145 63.145zM860.723 306.697c0-11.606-9.442-21.048-21.048-21.048h-25.010c-11.606 0-21.048 9.442-21.048 21.048v146.013c0 11.606 9.442 21.048 21.048 21.048h25.010c11.606 0 21.048-9.442 21.048-21.048v-146.013zM348.028 515.856h-55.795c-11.627 0-21.048-9.426-21.048-21.048s9.421-21.048 21.048-21.048h55.795c11.606 0 21.048-9.442 21.048-21.048v-188.11c0-11.623 9.421-21.048 21.048-21.048s21.048 9.426 21.048 21.048v188.11c0 34.818-28.327 63.145-63.145 63.145zM490.589 466.308c-15.062 0-27.317-12.254-27.317-27.317s12.254-27.317 27.317-27.317 27.317 12.254 27.317 27.317c0 15.062-12.254 27.317-27.317 27.317zM490.589 424.211c-8.15 0-14.78 6.63-14.78 14.78s6.63 14.78 14.78 14.78c8.15 0 14.78-6.63 14.78-14.78s-6.63-14.78-14.78-14.78zM490.589 333.353c-15.062 0-27.317-12.254-27.317-27.317s12.254-27.317 27.317-27.317 27.317 12.254 27.317 27.317c0 15.062-12.254 27.317-27.317 27.317zM490.589 291.256c-8.15 0-14.78 6.63-14.78 14.78s6.63 14.78 14.78 14.78c8.15 0 14.78-6.63 14.78-14.78s-6.63-14.78-14.78-14.78z" />
<glyph unicode="&#xe635;" glyph-name="clocks" d="M653.1 546.022c-12.379 10.008-30.53 8.086-40.534-4.304l-118.043-146.079c-3.728-4.608-11.529-5.684-16.36-2.248l-80.126 56.956c-12.975 9.227-30.972 6.18-40.192-6.795-9.224-12.975-6.18-30.972 6.795-40.192l80.13-56.956c11.922-8.474 25.968-12.559 39.977-12.559 20.596 0 41.103 8.835 54.619 25.561l118.043 146.083c10 12.379 8.071 30.526-4.308 40.534zM825.904 515.042h-22.744v137.728c0 37.083-30.173 67.255-67.255 67.255h-4.735l-33.497 197.043c-4.089 24.074-26.426 42.932-50.849 42.932h-277.334c-24.419 0-46.756-18.858-50.853-42.936l-33.497-197.039h-4.731c-37.083 0-67.255-30.173-67.255-67.255v-57.863h-15.058c-21.191 0-38.432-17.24-38.432-38.432v-65.207c0-21.191 17.24-38.432 38.432-38.432h15.058v-34.439h-15.058c-21.191 0-38.432-17.24-38.432-38.432v-65.207c0-21.191 17.24-38.432 38.432-38.432h15.058v-75.395c0-37.083 30.173-67.255 67.255-67.255h6.164l31.629-155.76c4.854-23.897 26.902-41.917 51.287-41.917h277.334c24.385 0 46.433 18.021 51.287 41.917l31.629 155.76h6.164c37.083 0 67.255 30.173 67.255 67.255v155.256h22.744c21.191 0 38.432 17.24 38.432 38.432v81.986c0 21.195-17.237 38.436-38.432 38.436zM374.613 902.353h267.092l30.995-182.327h-329.083l30.995 182.327zM198.096 491.268v65.207h15.058v-65.207h-15.058zM198.096 314.759v65.207h15.058v-65.207h-15.058zM642.481-6.353h-268.649l-28.436 140.030h325.52l-28.436-140.030zM745.513 200.932c0-5.207-4.4-9.608-9.608-9.608h-29.746c-0.035 0-0.069 0-0.104 0h-395.769c-0.058 0-0.111 0-0.169 0h-29.708c-5.207 0-9.608 4.4-9.608 9.608v451.837c0 5.207 4.4 9.608 9.608 9.608h455.496c5.207 0 9.608-4.4 9.608-9.608v-451.837zM825.85 394.624h-22.686v81.986h22.744l-0.058-81.986zM825.904 375.408v19.216c0 0 0.004 0 0.004 0l-0.004-19.216z" />
<glyph unicode="&#xe636;" glyph-name="cloudstorage" d="M938.467 79.611h-40.518v94.070c0 26.113-21.245 47.358-47.358 47.358h-311.823v95.355h18.165c1.985 0 61.73-0.119 121.719-0.247 60.532-0.119 121.307-0.247 123.341-0.247 107.005 0 194.066 87.061 194.066 194.066s-87.061 194.066-194.066 194.066c-9.492 0-18.906-0.684-28.201-2.047-10.085 143.969-130.433 258.016-276.918 258.016-135.292 0-250.109-98.464-273.269-229.008-108.928-6.136-195.664-96.697-195.664-207.132 0-114.397 93.069-207.466 207.466-207.466h249.825v-95.355h-311.823c-26.113 0-47.358-21.245-47.358-47.358v-94.070h-40.518c-26.113 0-47.358-21.245-47.358-47.358v-48.894c0-26.113 21.245-47.358 47.358-47.358h134.576c26.113 0 47.358 21.245 47.358 47.358v48.894c0 26.113-21.245 47.358-47.358 47.358h-40.522v87.893h305.646v-87.893h-40.518c-26.113 0-47.358-21.245-47.358-47.358v-48.894c0-26.113 21.245-47.358 47.358-47.358h134.571c26.113 0 47.358 21.245 47.358 47.358v48.894c0 26.113-21.245 47.358-47.358 47.358h-40.518v87.893h305.646v-87.893h-40.518c-26.113 0-47.358-21.245-47.358-47.358v-48.894c0-26.113 21.245-47.358 47.358-47.358h134.571c26.113 0 47.358 21.245 47.358 47.358v48.894c0 26.113-21.249 47.358-47.358 47.358zM89.713 523.86c0 80.336 65.358 145.694 145.694 145.694 3.937 0 8.113-0.198 12.754-0.601l31.31-2.722 2.178 31.351c7.808 112.515 102.347 200.646 215.225 200.646 119.009 0 215.83-96.821 215.83-215.83 0-5.456-0.259-11.308-0.803-17.873l-4.065-49.294 46.082 17.984c15.373 6 31.553 9.043 48.079 9.043 72.948 0 132.294-59.346 132.294-132.294s-59.346-132.294-132.294-132.294c-2.034 0-62.743 0.124-123.214 0.247-60.050 0.124-119.857 0.247-121.847 0.247h-321.529c-80.336 0-145.694 65.358-145.694 145.694zM213.931-10.465h-122.221v36.54h122.221v-36.54zM573.109-10.465h-122.217v36.54h122.217v-36.54zM932.29-10.465h-122.217v36.54h122.217v-36.54z" />
<glyph unicode="&#xe637;" glyph-name="cloud" d="M822.554 670.828c-12.204 0-24.284-1.093-36.165-3.257-7.086 154.151-134.718 277.374-290.589 277.374-143.51 0-265.034-105.718-287.208-245.014-115.67-3.815-208.593-99.098-208.593-215.675 0-118.99 96.806-215.793 215.796-215.793h344.322c2.128 0 66.112-0.132 130.358-0.263 64.82-0.132 129.899-0.263 132.081-0.263 111.075 0 201.446 90.371 201.446 201.449-0.004 111.075-90.371 201.442-201.449 201.442zM822.554 321.324c-2.178 0-67.204 0.132-131.971 0.263-64.3 0.132-128.337 0.263-130.465 0.263h-344.322c-89.552 0-162.409 72.856-162.409 162.405s72.856 162.405 162.409 162.405c4.406 0 9.055-0.221 14.215-0.666l27.057-2.345 1.879 27.089c8.599 123.82 112.637 220.815 236.853 220.815 130.967 0 237.515-106.551 237.515-237.518 0-6.011-0.288-12.446-0.879-19.672l-3.492-42.589 39.806 15.539c17.209 6.72 35.314 10.126 53.808 10.126 81.64 0 148.058-66.418 148.058-148.058-0.004-81.64-66.421-148.058-148.062-148.058zM685.59 67.654c-42.6-38.396-110.452-63.211-172.862-63.211-62.987 0-131.362 25.274-174.19 64.389-10.884 9.937-27.769 9.176-37.713-1.708-9.944-10.888-9.176-27.772 1.708-37.713 52.121-47.597 134.626-78.355 210.194-78.355 74.871 0 156.757 30.2 208.607 76.946 10.952 9.866 11.827 26.751 1.954 37.699-9.87 10.948-26.747 11.827-37.699 1.954zM652.778 121.234c10.955 9.866 11.834 26.751 1.965 37.702-9.87 10.955-26.747 11.827-37.699 1.965-23.27-20.964-67.258-36.179-104.601-36.179-37.66 0-81.964 15.5-105.345 36.859-10.884 9.948-27.769 9.183-37.713-1.705s-9.179-27.769 1.705-37.717c33.282-30.406 90.086-50.829 141.353-50.829 42.283 0 102.074 15.429 140.335 49.903z" />
<glyph unicode="&#xe638;" glyph-name="clouds" d="M801.193 704.738c-11.088 0-22.066-0.963-32.873-2.879-7.112 143.547-126.128 258.141-271.402 258.141-133.823 0-247.18-98.403-268.184-228.182-107.836-3.931-194.363-92.885-194.363-201.663 0-111.27 90.527-201.797 201.8-201.797h320.638c1.981 0 61.575-0.12 121.402-0.243 60.355-0.12 120.953-0.243 122.985-0.243 103.904 0 188.44 84.532 188.44 188.436-0.007 103.897-84.539 188.43-188.443 188.43zM801.193 379.281c-2.029 0-62.576 0.123-122.879 0.243-59.882 0.123-119.527 0.243-121.508 0.243h-320.638c-82.925 0-150.388 67.46-150.388 150.385 0 82.921 67.463 150.385 150.388 150.385 4.044 0 8.356-0.202 13.189-0.617l26.032-2.231 1.81 26.063c7.976 114.862 104.487 204.837 219.719 204.837 121.491 0 220.329-98.838 220.329-220.329 0-5.556-0.267-11.527-0.816-18.258l-3.356-41.003 38.323 14.961c15.924 6.214 32.678 9.367 49.795 9.367 75.556 0 137.028-61.469 137.028-137.021s-61.472-137.024-137.028-137.024zM629.373 109.284h-27.156v113.33c0 21.734-17.682 39.416-39.416 39.416h-101.608c-21.734 0-39.416-17.682-39.416-39.416v-113.33h-27.156c-13.72 0-24.609-6.457-29.12-17.275-4.514-10.817-1.45-23.098 8.209-32.859l110.399-111.52c7.424-7.499 17.329-11.629 27.889-11.629s20.466 4.13 27.889 11.629l110.403 111.524c9.652 9.758 12.719 22.039 8.209 32.856-4.517 10.817-15.403 17.275-29.127 17.275zM511.998-17.208l-81.29 82.116c19.965 1.913 35.629 18.779 35.629 39.234v113.33h91.325v-113.33c0-20.459 15.66-37.325 35.629-39.234l-81.293-82.116z" />
<glyph unicode="&#xe639;" glyph-name="cocktail" d="M849.912 960c-82.681 0-151.581-59.918-165.692-138.605h-648.732c-11.704 0-22.319-6.856-27.14-17.518-4.816-10.665-2.942-23.161 4.786-31.947l372.573-423.19c5.653-6.427 13.798-10.105 22.354-10.105h4.926c0.277-113.264 0.277-228.38 0.006-343.074h-116.12c-16.449 0-29.782-13.336-29.782-29.782 0-16.449 13.333-29.782 29.782-29.782h145.747c0.030 0 0.057 0 0.083 0h145.827c16.446 0 29.782 13.333 29.782 29.782 0 16.446-13.336 29.782-29.782 29.782h-115.971c0.271 114.702 0.271 229.81-0.006 343.074h4.786c8.556 0 16.699 3.675 22.354 10.099l263.064 298.806c26.11-15.805 56.19-24.305 87.13-24.305 0.006 0 0.018 0 0.027 0 92.845 0 168.381 75.53 168.381 168.375-0.003 92.851-75.539 168.39-168.384 168.39zM784.014 761.831l-47.991-54.51c-0.012-0.018-0.030-0.033-0.048-0.051-0.015-0.018-0.027-0.036-0.042-0.054l-21.5-24.418h-543.471l-69.577 79.032h682.627zM463.878 398.202h-42.359l-198.116 225.036h438.593l-198.119-225.036zM849.909 682.801c-0.009 0-0.012 0-0.021 0-16.329 0-32.29 3.672-46.782 10.579l69.16 78.553c7.734 8.783 9.605 21.282 4.783 31.947-4.816 10.662-15.439 17.518-27.137 17.518h-104.642c12.988 45.566 54.963 79.038 104.642 79.038 60.005 0 108.817-48.819 108.817-108.823 0-60.002-48.816-108.811-108.82-108.811z" />
<glyph unicode="&#xe63a;" glyph-name="code" d="M1004.582 850.38c-12.907 13.19-28.311 19.986-47.184 19.986h-890.239c-18.874 0-34.823-6.797-47.728-19.986-12.634-12.894-19.431-28.854-19.431-47.173v-710.415c0-18.318 6.524-34.55 19.431-47.73 12.621-12.905 28.854-19.429 47.728-19.429h890.237c18.874 0 34.55 6.524 47.184 19.429 12.905 13.19 19.419 29.412 19.419 47.73v710.415c0 18.318-6.797 34.279-19.418 47.173zM962.952 92.792c0-3.884-1.658-5.553-5.553-5.553h-890.239c-3.884 0-5.553 1.67-5.553 5.553v492.303h901.344v-492.303zM962.952 646.144h-901.346v157.064c0 3.884 1.67 5.553 5.553 5.553h890.237c3.895 0 5.553-1.67 5.553-5.553v-157.064h0.002zM275.848 747.712c-11.923-11.379-11.662-31.081 0-43.846 12.765-11.651 32.467-11.923 43.846 0 11.935 12.504 11.651 32.194 0 43.846-11.664 11.651-31.342 11.935-43.846 0zM199.809 747.712c-11.651-11.651-11.935-31.342 0-43.846 11.379-11.923 31.639-11.651 43.289 0 12.763 12.763 12.504 31.91 0 43.846-11.925 11.378-31.639 11.651-43.289 0zM123.768 747.712c-11.651-11.651-11.935-31.342 0-43.846 11.378-11.923 31.637-11.651 43.289 0 12.763 12.763 12.504 31.91 0 43.846-11.923 11.378-31.627 11.651-43.289 0zM558.349 231.551c-0.474-2.239-0.557-4.441-0.557-6.109 0-6.111 1.553-12.28 4.996-17.761 5.992-9.509 14.435-13.878 24.973-13.878 6.666 0 12.408 1.339 17.204 4.441l163.73 106.006c9.045 5.861 13.32 14.435 13.32 24.973 0 11.651-4.938 20.057-14.433 26.085l-162.617 103.237c-5.719 3.634-11.095 5.553-17.204 5.553l-6.099-1.113c-8.359-1.516-14.326-6.169-18.874-13.32-3.221-5.066-4.996-10.55-4.996-16.647 0-1.67 0.084-3.862 0.557-6.109 1.752-8.312 6.179-14.873 13.32-19.431l122.656-78.254-122.656-78.254c-7.138-4.559-11.569-11.12-13.32-19.419zM256.974 304.25l162.617-106.006c4.784-3.126 10.55-4.441 17.204-4.441 11.664 0 20.212 4.298 26.085 13.878 9.117 14.848 4.452 34.433-9.425 43.289l-122.668 78.254 122.668 78.254c13.876 8.858 18.067 28.157 9.425 42.176-9.129 14.836-28.299 19.429-42.176 8.88l-163.73-103.237c-9.509-5.992-13.878-14.435-13.878-26.085 0.002-10.528 4.464-18.817 13.878-24.963z" />
<glyph unicode="&#xe63b;" glyph-name="coffee" d="M723.927 115.639c50.387 16.995 300.073 110.402 300.073 291.945 0 113.57-44.761 164.217-145.13 164.217h-849.613c-16.159 0-29.257-13.101-29.257-29.257v-170.736c0-145.645 77.716-273.478 193.858-344.213h-85.799c-16.159 0-29.257-13.101-29.257-29.257 0-16.159 13.101-29.257 29.257-29.257h600.044c16.156 0 29.257 13.098 29.257 29.257 0 16.156-13.101 29.257-29.257 29.257h-85.826c38.611 23.52 72.976 53.347 101.651 88.044zM816.128 371.809v141.479h62.739c59.898 0 86.616-15.263 86.616-105.703 0-99.003-108.632-168.831-187.36-206.435 24.359 51.852 38.005 109.688 38.005 170.66zM413.401 27.595h-10.667c-189.806 0-344.219 154.41-344.219 344.213v141.479h699.099v-141.479c0-189.803-154.413-344.213-344.213-344.213zM290.553 698.915c4.099-1.981 8.435-2.917 12.703-2.917 10.875 0 21.32 6.091 26.367 16.539l83.248 172.401c7.025 14.553 0.925 32.042-13.622 39.067-14.547 7.019-32.039 0.925-39.070-13.622l-83.251-172.401c-7.025-14.55-0.925-32.042 13.625-39.067zM475.42 698.915c4.099-1.981 8.435-2.917 12.703-2.917 10.875 0 21.32 6.091 26.367 16.539l83.251 172.401c7.025 14.553 0.927 32.042-13.622 39.067-14.544 7.019-32.042 0.925-39.070-13.622l-83.251-172.401c-7.028-14.55-0.93-32.042 13.622-39.067z" />
<glyph unicode="&#xe63c;" glyph-name="compass" d="M512 960c-282.317 0-512-229.683-512-512s229.679-512 511.996-512c282.317 0 512 229.683 512 512 0.004 282.317-229.679 512-511.996 512zM512-6.126c-250.406 0-454.126 203.717-454.126 454.126 0 250.406 203.72 454.126 454.126 454.126s454.126-203.72 454.126-454.126c0-250.409-203.72-454.126-454.126-454.126zM716.446 685.056c-4.723 0-9.526-0.957-14.287-2.84l-281.627-111.477c-13.404-5.305-25.97-17.875-31.275-31.275l-111.477-281.623c-4.568-11.552-3.553-23.524 2.782-32.849 5.98-8.797 16.070-14.052 26.989-14.052 4.723 0 9.53 0.953 14.287 2.84l281.596 111.465c13.411 5.29 25.993 17.868 31.306 31.283l111.477 281.63c4.568 11.548 3.553 23.52-2.786 32.845-5.976 8.801-16.066 14.052-26.985 14.052zM581.383 378.976c-0.108-0.12-0.235-0.247-0.355-0.355l-229.089-90.685 90.677 229.077c0.116 0.123 0.243 0.251 0.367 0.367l229.081 90.677-90.681-229.081z" />
<glyph unicode="&#xe63d;" glyph-name="computermouse1" d="M420.2 431.815c3.051-13.336 13.56-22.297 26.136-22.297 7.371 0 14.602 3.167 20.35 8.92l14.34 14.34 56.718-56.718c6.259-6.263 14.602-9.712 23.48-9.712s17.217 3.449 23.476 9.708l42.245 42.24c6.263 6.259 9.712 14.598 9.716 23.476 0 8.886-3.453 17.229-9.716 23.484l-56.718 56.722 14.34 14.344c7.691 7.695 10.65 17.951 7.919 27.444s-10.692 16.611-21.292 19.039l-151.508 34.732c-11.24 2.582-22.459-1.1-29.071-9.401-5.35-6.72-7.222-15.764-5.147-24.82l34.732-151.5zM537.499 547.948l-2.49-2.49c-6.263-6.259-9.712-14.598-9.712-23.48s3.449-17.225 9.712-23.48l56.718-56.722-30.503-30.503-56.722 56.722c-6.263 6.259-14.602 9.708-23.476 9.708-8.878 0-17.212-3.449-23.476-9.708l-2.494-2.49-24.513 106.96 106.956-24.517zM954.017 266.323v464.91c0 51.496-41.896 93.388-93.388 93.388h-697.255c-51.492 0-93.388-41.892-93.388-93.388v-464.914c-38.816-1.407-69.987-33.342-69.987-72.498v-49.807c0-40.049 32.586-72.635 72.635-72.635h878.73c40.049 0 72.635 32.586 72.635 72.635v49.807c0 39.152-31.167 71.091-69.983 72.502zM163.375 762.362h697.25c17.167 0 31.129-13.963 31.129-31.129v-464.781h-759.509v464.781c0 17.167 13.967 31.129 31.129 31.129zM961.741 144.014c0-5.624-4.752-10.376-10.376-10.376h-878.73c-5.624 0-10.376 4.752-10.376 10.376v49.807c0 5.624 4.752 10.376 10.376 10.376h878.73c5.624 0 10.376-4.752 10.376-10.376v-49.807z" />
<glyph unicode="&#xe63e;" glyph-name="computermouse2" d="M681.689 644.747c-42.744 27.938-100.534 43.321-162.725 43.321h-13.93c-62.191 0-119.981-15.386-162.725-43.321-51.742-33.817-79.092-83.275-79.092-143.035v-379.354c0-113.208 87.661-186.359 223.328-186.359h50.914c135.667 0 223.324 73.151 223.324 186.359v379.354c0 59.76-27.347 109.218-79.092 143.035zM705.355 501.713v-112.27h-165.645v242.49c85.481-5.642 165.645-46.528 165.645-130.22zM484.285 631.933v-242.486h-165.645v112.27c0 83.689 80.164 124.574 165.645 130.217zM537.457-8.575h-50.914c-39.385 0-167.902 9.441-167.902 130.933v211.659h386.714v-211.659c0-121.489-128.513-130.933-167.898-130.933zM304.722 832.632c59.302 47.064 130.66 71.942 206.36 71.942 76.513 0 148.459-25.337 208.056-73.265 5.121-4.116 11.255-6.119 17.348-6.119 8.103 0 16.14 3.54 21.616 10.346 9.592 11.928 7.697 29.372-4.231 38.96-68.554 55.137-154.777 85.503-242.789 85.503-88.337 0-171.612-29.032-240.816-83.951-11.99-9.515-13.997-26.948-4.482-38.935 9.518-11.987 26.948-13.993 38.938-4.482zM511.433 831.494c-56.697 0-110.141-18.63-154.556-53.881-11.99-9.515-13.997-26.948-4.482-38.935 9.515-11.99 26.944-13.997 38.935-4.482 34.519 27.395 76.047 41.872 120.103 41.872 44.533 0 86.408-14.747 121.094-42.644 5.121-4.116 11.255-6.119 17.348-6.119 8.103 0 16.14 3.54 21.616 10.346 9.592 11.928 7.697 29.372-4.231 38.96-43.997 35.395-99.341 54.882-155.827 54.882z" />
<glyph unicode="&#xe63f;" glyph-name="computerscreen1" d="M999.474 757.484l-185.679 131.499c-8.895 6.302-20.289 9.767-32.087 9.767-11.801 0-23.195-3.469-32.087-9.767l-183.169-129.719h-488.244c-43.126 0-78.209-35.086-78.209-78.209v-489.401c0-43.123 35.083-78.209 78.209-78.209h199.732v-64.058h-87.931c-14.397 0-26.070-11.669-26.070-26.070s11.672-26.070 26.070-26.070h432.951c14.397 0 26.070 11.669 26.070 26.070s-11.672 26.070-26.070 26.070h-87.931v64.058h199.732c43.126 0 78.209 35.086 78.209 78.209v155.233c4.116 2.927 7.522 5.763 9.767 7.751l139.146 123.025c12.903 11.408 24.641 31.965 27.908 48.879l33.275 172.185c4.136 21.426-5.781 46.133-23.595 58.758zM78.209 707.124h461.232c0.080-2.829 0.372-5.641 0.904-8.394l33.275-172.189c3.267-16.914 15.006-37.471 27.908-48.879l139.146-123.025c3.942-3.486 11.436-9.597 20.154-14.217v-45.653h-708.689v386.287c0 14.377 11.693 26.070 26.070 26.070zM482.887 52.865h-152.807v60.582h152.807v-60.582zM734.762 165.584h-656.553c-14.377 0-26.070 11.693-26.070 26.070v50.975h708.692v-50.975c0-14.373-11.693-26.070-26.070-26.070zM938.599 536.434c-1.084-5.61-6.973-15.923-11.252-19.705l-139.146-123.028c-2.245-1.985-4.522-3.685-6.497-5.012-1.971 1.328-4.248 3.028-6.493 5.012l-139.15 123.028c-4.275 3.782-10.164 14.095-11.248 19.705l-33.251 172.036c-0.153 1.7 1.352 5.44 2.51 6.465l185.397 131.315c0.195 0.094 1.018 0.361 2.239 0.361 1.206 0 2.037-0.271 1.953-0.177l185.554-131.409c1.286-1.116 2.788-4.856 2.663-6.406l-33.279-172.185z" />
<glyph unicode="&#xe640;" glyph-name="computerscreen2" d="M525.698 509.106l-0.648-0.679c-5.965-6.253-5.736-16.154 0.516-22.122 3.029-2.892 6.919-4.328 10.8-4.328 4.125 0 8.249 1.621 11.322 4.844l17.253 18.076c10.449 10.947 10.449 28.763 0 39.716l-17.253 18.076c-5.965 6.25-15.869 6.484-22.122 0.516-6.25-5.968-6.481-15.869-0.516-22.122l0.651-0.682h-63.978c-8.644 0-15.647-7.007-15.647-15.647s7.004-15.647 15.647-15.647h63.975zM562.265 448.266h-63.978l0.651 0.682c5.965 6.253 5.736 16.154-0.516 22.122-6.246 5.968-16.157 5.736-22.122-0.516l-17.262-18.082c-10.44-10.95-10.437-28.766 0.009-39.71l17.253-18.073c3.073-3.22 7.195-4.844 11.322-4.844 3.881 0 7.77 1.436 10.8 4.328 6.253 5.968 6.481 15.869 0.516 22.122l-0.648 0.679h63.975c8.644 0 15.647 7.007 15.647 15.647 0 8.637-7.004 15.644-15.647 15.644zM350.401 674.015h-279.989c-38.824 0-70.413-31.589-70.413-70.413v-213.513c0-38.827 31.589-70.413 70.413-70.413h73.993v-66.394h-40.376c-8.644 0-15.647-7.007-15.647-15.647s7.004-15.647 15.647-15.647h212.753c8.644 0 15.647 7.007 15.647 15.647s-7.004 15.647-15.647 15.647h-40.376v66.394h73.993c38.824 0 70.413 31.586 70.413 70.413v213.513c0.003 38.824-31.586 70.413-70.41 70.413zM245.111 256.412h-69.411v63.262h69.414v-63.262zM373.872 390.086c0-12.94-10.527-23.471-23.471-23.471h-279.989c-12.943 0-23.471 10.531-23.471 23.471v213.513c0 12.94 10.527 23.471 23.471 23.471h279.989c12.943 0 23.471-10.531 23.471-23.471v-213.513zM953.587 674.015h-279.989c-38.824 0-70.413-31.589-70.413-70.413v-213.513c0-38.827 31.589-70.413 70.413-70.413h73.993v-66.394h-40.373c-8.644 0-15.647-7.007-15.647-15.647s7.004-15.647 15.647-15.647h212.753c8.644 0 15.647 7.007 15.647 15.647s-7.004 15.647-15.647 15.647h-40.376v66.394h73.996c38.824 0 70.413 31.586 70.413 70.413v213.513c-0.003 38.824-31.592 70.413-70.416 70.413zM848.297 256.412h-69.414v63.262h69.414v-63.262zM977.058 390.086c0-12.94-10.527-23.471-23.471-23.471h-279.989c-12.943 0-23.471 10.531-23.471 23.471v213.513c0 12.94 10.527 23.471 23.471 23.471h279.989c12.943 0 23.471-10.531 23.471-23.471v-213.513z" />
<glyph unicode="&#xe641;" glyph-name="computers" d="M365.77 458.017c0 9.507-7.706 17.216-17.216 17.216h-44.429v55.819h81.413c42.717 0 77.474 34.753 77.474 77.474v217.695c0 42.721-34.757 77.474-77.474 77.474h-308.064c-42.717 0-77.474-34.753-77.474-77.474v-217.695c0-42.721 34.757-77.474 77.474-77.474h81.413v-55.819h-44.425c-9.51 0-17.216-7.71-17.216-17.216s7.706-17.216 17.216-17.216h234.089c9.51 0 17.22 7.71 17.22 17.216zM51.649 608.526v217.695c0 14.241 11.583 25.825 25.825 25.825h308.068c14.241 0 25.825-11.583 25.825-25.825v-217.695c0-14.241-11.583-25.825-25.825-25.825h-308.068c-14.241 0-25.825 11.587-25.825 25.825zM269.692 531.052v-52.372h-76.372v52.372h76.372zM946.526 455.2h-308.068c-42.717 0-77.474-34.753-77.474-77.474v-217.695c0-42.721 34.757-77.474 77.474-77.474h81.413v-55.819h-44.422c-9.51 0-17.216-7.71-17.216-17.216s7.706-17.216 17.216-17.216h234.089c9.51 0 17.216 7.71 17.216 17.216s-7.706 17.216-17.216 17.216h-44.425v55.819h81.413c42.717 0 77.474 34.753 77.474 77.474v217.695c0 42.721-34.757 77.474-77.474 77.474zM830.676 30.184h-76.376v52.372h76.376v-52.372zM972.351 160.031c0-14.241-11.583-25.825-25.825-25.825h-308.068c-14.241 0-25.825 11.583-25.825 25.825v217.695c0 14.241 11.583 25.825 25.825 25.825h308.068c14.241 0 25.825-11.583 25.825-25.825v-217.695zM780.697 518.047c4.397-9.362 13.691-14.854 23.394-14.854 3.674 0 7.41 0.792 10.96 2.455 12.912 6.060 18.463 21.441 12.403 34.354-47.521 101.195-158.133 174.64-288.668 191.671-14.131 1.839-27.106-8.123-28.948-22.268-1.846-14.142 8.123-27.102 22.264-28.948 113.233-14.775 208.491-77.006 248.595-162.41zM479.637 176.214c-146.55 0-274.399 78.397-310.915 190.658-4.411 13.567-19 20.977-32.543 16.573-13.563-4.411-20.983-18.983-16.573-32.546 43.344-133.259 191.392-226.331 360.030-226.331 14.266 0 25.825 11.563 25.825 25.825 0 14.259-11.559 25.821-25.825 25.821z" />
<glyph unicode="&#xe642;" glyph-name="connection1" d="M718.55 759.754c0 28.046-22.817 50.86-50.86 50.86-28.046 0-50.86-22.814-50.86-50.86 0-19.397 10.924-36.28 26.933-44.859v-250.009c0-74.325-31.163-112.918-97.56-119.924v533.152l25.963-30.841c8.515-10.113 23.608-11.412 33.715-2.894 10.11 8.509 11.405 23.602 2.897 33.712l-57.55 68.359c-7.252 8.611-17.665 13.549-28.579 13.549-10.911 0-21.327-4.939-28.579-13.549l-57.54-68.359c-8.509-10.11-7.213-25.203 2.897-33.712 4.489-3.781 9.957-5.625 15.396-5.625 6.815 0 13.584 2.897 18.319 8.518l25.207 29.944v-642.547c-80.539 0.938-118.112 39.461-118.112 121.069v250.009c16.012 8.576 26.933 25.459 26.933 44.859 0 28.046-22.817 50.86-50.86 50.86-28.046 0-50.86-22.814-50.86-50.86 0-19.397 10.924-36.283 26.933-44.859v-250.009c0-107.947 58.925-167.81 165.966-168.914v-33.339c-49.22-10.962-86.138-54.947-86.138-107.418 0-60.689 49.376-110.066 110.066-110.066s110.066 49.376 110.066 110.066c0 52.471-36.918 96.456-86.138 107.418v143.478c93.999 8.237 145.414 67.102 145.414 167.928v250.005c16.009 8.576 26.933 25.459 26.933 44.856zM584.487 46.066c0-34.302-27.909-62.211-62.211-62.211-34.305 0-62.211 27.909-62.211 62.211s27.906 62.211 62.211 62.211c34.302 0 62.211-27.909 62.211-62.211z" />
<glyph unicode="&#xe643;" glyph-name="connection2" d="M729.365 756.765h-7.286v141.82c0 33.863-27.553 61.415-61.415 61.415h-297.331c-33.863 0-61.415-27.553-61.415-61.415v-141.82h-7.282c-33.863 0-61.415-27.553-61.415-61.415v-324.424c0-33.863 27.553-61.415 61.415-61.415h15.284c4.755 0 8.774-4.015 8.774-8.774v-41.615c0-33.866 27.553-61.415 61.415-61.415h105.568v-235.382c0-14.54 11.781-26.321 26.321-26.321s26.321 11.781 26.321 26.321v235.382h105.571c33.863 0 61.415 27.549 61.415 61.415v41.615c0 4.759 4.018 8.774 8.774 8.774h15.284c33.863 0 61.415 27.553 61.415 61.415v324.424c0.004 33.863-27.549 61.415-61.412 61.415zM354.559 898.585c0 4.755 4.018 8.774 8.774 8.774h297.331c4.755 0 8.774-4.018 8.774-8.774v-141.82h-314.878v141.82zM738.138 370.922c0-4.755-4.018-8.774-8.774-8.774h-15.284c-33.863 0-61.415-27.549-61.415-61.415v-41.615c0-4.755-4.018-8.774-8.774-8.774h-263.78c-4.755 0-8.774 4.018-8.774 8.774v41.615c0 33.866-27.553 61.415-61.415 61.415h-15.284c-4.755 0-8.774 4.018-8.774 8.774v324.427c0 4.755 4.018 8.774 8.774 8.774h434.729c4.755 0 8.774-4.018 8.774-8.774v-324.427zM404.183 880.816c-9.693 0-17.547-7.854-17.547-17.547v-66.413c0-9.693 7.854-17.547 17.547-17.547s17.547 7.854 17.547 17.547v66.413c0 9.69-7.854 17.547-17.547 17.547zM474.6 880.816c-9.693 0-17.547-7.854-17.547-17.547v-66.413c0-9.693 7.854-17.547 17.547-17.547s17.547 7.854 17.547 17.547v66.413c0 9.69-7.854 17.547-17.547 17.547zM545.017 880.816c-9.693 0-17.547-7.854-17.547-17.547v-66.413c0-9.693 7.854-17.547 17.547-17.547s17.547 7.854 17.547 17.547v66.413c0 9.69-7.858 17.547-17.547 17.547zM615.437 880.816c-9.693 0-17.547-7.854-17.547-17.547v-66.413c0-9.693 7.854-17.547 17.547-17.547s17.547 7.854 17.547 17.547v66.413c0 9.69-7.854 17.547-17.547 17.547z" />
<glyph unicode="&#xe644;" glyph-name="connector" d="M922.892 220.337v167.472c0 24.729-20.118 44.847-44.847 44.847h-341.13v144.294c84.754 12.132 150.125 85.183 150.125 173.236 0 96.517-78.522 175.040-175.040 175.040s-175.040-78.525-175.040-175.040c0-88.056 65.37-161.104 150.125-173.236v-144.294h-341.13c-24.729 0-44.847-20.118-44.847-44.847v-167.472c-57.594-11.597-101.108-62.58-101.108-123.542 0-69.49 56.534-126.020 126.023-126.020s126.027 56.53 126.027 126.020c0 60.962-43.512 111.941-101.112 123.545v162.486h336.147v-162.489c-57.597-11.597-101.108-62.58-101.108-123.542 0-69.49 56.534-126.020 126.023-126.020s126.023 56.53 126.023 126.020c0 60.962-43.512 111.941-101.108 123.542v162.489h336.147v-162.486c-57.597-11.6-101.112-62.583-101.112-123.545 0-69.49 56.534-126.020 126.027-126.020 69.49 0 126.023 56.53 126.023 126.020 0 60.962-43.515 111.945-101.108 123.542zM386.79 750.186c0 69.041 56.168 125.21 125.21 125.21s125.21-56.168 125.21-125.21-56.168-125.21-125.21-125.21c-69.041-0.003-125.21 56.168-125.21 125.21zM202.22 96.795c0-42.010-34.18-76.19-76.197-76.19-42.013 0-76.193 34.18-76.193 76.19 0 42.017 34.18 76.197 76.193 76.197s76.197-34.18 76.197-76.197zM588.193 96.795c0-42.010-34.18-76.19-76.193-76.19s-76.193 34.18-76.193 76.19c0 42.017 34.18 76.197 76.193 76.197s76.193-34.18 76.193-76.197zM897.977 20.605c-42.013 0-76.197 34.18-76.197 76.19 0 42.017 34.18 76.197 76.197 76.197 42.013 0 76.193-34.18 76.193-76.197 0-42.010-34.18-76.19-76.193-76.19z" />
<glyph unicode="&#xe645;" glyph-name="controller1" d="M729.619 960h-435.238c-50.206 0-91.056-40.85-91.056-91.056v-841.889c0-50.206 40.85-91.056 91.056-91.056h435.238c50.206 0 91.056 40.85 91.056 91.056v841.889c0 50.206-40.846 91.056-91.056 91.056zM759.971 27.056c0-16.738-13.614-30.352-30.352-30.352h-435.238c-16.738 0-30.352 13.614-30.352 30.352v841.889c0 16.738 13.614 30.352 30.352 30.352h435.238c16.738 0 30.352-13.614 30.352-30.352v-841.889zM442.66 398.328h-64.415c-16.766 0-30.352-13.586-30.352-30.352s13.586-30.352 30.352-30.352h64.415c16.766 0 30.352 13.586 30.352 30.352s-13.586 30.352-30.352 30.352zM442.66 272.829h-64.415c-16.766 0-30.352-13.586-30.352-30.352s13.586-30.352 30.352-30.352h64.415c16.766 0 30.352 13.586 30.352 30.352s-13.586 30.352-30.352 30.352zM442.66 147.326h-64.415c-16.766 0-30.352-13.586-30.352-30.352s13.586-30.352 30.352-30.352h64.415c16.766 0 30.352 13.586 30.352 30.352s-13.586 30.352-30.352 30.352zM645.755 398.328h-64.415c-16.766 0-30.352-13.586-30.352-30.352s13.586-30.352 30.352-30.352h64.415c16.766 0 30.352 13.586 30.352 30.352s-13.59 30.352-30.352 30.352zM645.755 272.829h-64.415c-16.766 0-30.352-13.586-30.352-30.352s13.586-30.352 30.352-30.352h64.415c16.766 0 30.352 13.586 30.352 30.352s-13.59 30.352-30.352 30.352zM645.755 147.326h-64.415c-16.766 0-30.352-13.586-30.352-30.352s13.586-30.352 30.352-30.352h64.415c16.766 0 30.352 13.586 30.352 30.352s-13.59 30.352-30.352 30.352zM479.795 675.91c-13.407 0-24.282-10.87-24.282-24.282 0-13.407 10.874-24.282 24.282-24.282h64.415c13.407 0 24.282 10.874 24.282 24.282 0 13.411-10.874 24.282-24.282 24.282h-64.415zM465.728 733.292c6.212 0 12.428 2.371 17.167 7.11l30.303 30.299 27.895-27.904c9.482-9.482 24.86-9.486 34.338-0.004 9.486 9.486 9.486 24.86 0.004 34.338l-42.213 42.213c-11.040 11.052-29.012 11.048-40.060 0.004l-44.601-44.601c-9.486-9.486-9.486-24.86-0.004-34.338 4.743-4.747 10.955-7.119 17.171-7.119zM575.44 562.843c-9.478 9.478-24.856 9.482-34.338-0.004l-30.295-30.299-27.895 27.904c-9.482 9.482-24.86 9.486-34.338 0.004-9.486-9.482-9.486-24.856-0.004-34.338l42.209-42.213c5.52-5.524 12.772-8.288 20.028-8.288s14.508 2.764 20.032 8.288l44.605 44.609c9.482 9.482 9.482 24.856-0.004 34.338zM635.128 715.068c-9.486 9.482-24.856 9.486-34.338 0.004-9.486-9.482-9.486-24.856-0.004-34.338l30.303-30.307-27.904-27.904c-9.482-9.482-9.482-24.856 0.004-34.338 4.739-4.739 10.955-7.11 17.167-7.11s12.428 2.371 17.171 7.114l42.201 42.209c11.044 11.044 11.044 29.016 0.004 40.056l-44.605 44.613zM406.044 581.067c6.212 0 12.428 2.371 17.167 7.11 9.486 9.486 9.486 24.86 0.004 34.338l-30.299 30.303 27.904 27.899c9.486 9.486 9.486 24.86 0.004 34.338-9.482 9.482-24.86 9.486-34.338 0.004l-42.213-42.209c-11.044-11.044-11.044-29.016-0.004-40.056l44.605-44.609c4.743-4.747 10.955-7.119 17.171-7.119z" />
<glyph unicode="&#xe646;" glyph-name="controller2" d="M749.863 960h-475.73c-50.21 0-91.055-40.845-91.055-91.055v-841.889c0-50.21 40.845-91.055 91.055-91.055h475.73c50.21 0 91.055 40.845 91.055 91.055v841.889c0 50.21-40.845 91.055-91.055 91.055zM274.133 899.296h475.73c16.734 0 30.352-13.618 30.352-30.352v-337.196h-536.433v337.196c0 16.734 13.618 30.352 30.352 30.352zM749.863-3.296h-475.73c-16.734 0-30.352 13.614-30.352 30.352v443.986h536.433v-443.986c0-16.738-13.618-30.352-30.352-30.352zM405.791 408.512h-69.639c-16.762 0-30.352-13.59-30.352-30.352s13.59-30.352 30.352-30.352h69.639c16.762 0 30.352 13.59 30.352 30.352s-13.59 30.352-30.352 30.352zM405.791 272.828h-69.639c-16.762 0-30.352-13.59-30.352-30.352s13.59-30.352 30.352-30.352h69.639c16.762 0 30.352 13.59 30.352 30.352s-13.59 30.352-30.352 30.352zM405.791 137.147h-69.639c-16.762 0-30.352-13.59-30.352-30.352s13.59-30.352 30.352-30.352h69.639c16.762 0 30.352 13.59 30.352 30.352s-13.59 30.352-30.352 30.352zM572.681 408.512h-69.639c-16.762 0-30.352-13.59-30.352-30.352s13.59-30.352 30.352-30.352h69.639c16.762 0 30.352 13.59 30.352 30.352s-13.59 30.352-30.352 30.352zM572.681 272.828h-69.639c-16.762 0-30.352-13.59-30.352-30.352s13.59-30.352 30.352-30.352h69.639c16.762 0 30.352 13.59 30.352 30.352s-13.59 30.352-30.352 30.352zM572.681 137.147h-69.639c-16.762 0-30.352-13.59-30.352-30.352s13.59-30.352 30.352-30.352h69.639c16.762 0 30.352 13.59 30.352 30.352s-13.59 30.352-30.352 30.352zM687.848 225.414c-16.762 0-30.352-13.59-30.352-30.352v-88.267c0-16.762 13.59-30.352 30.352-30.352s30.352 13.59 30.352 30.352v88.267c0 16.762-13.59 30.352-30.352 30.352zM687.848 426.594c-16.762 0-30.352-13.59-30.352-30.352v-88.267c0-16.762 13.59-30.352 30.352-30.352s30.352 13.59 30.352 30.352v88.267c0 16.762-13.59 30.352-30.352 30.352z" />
</font>
</defs>
</svg>
