<?xml version="1.0" encoding="utf-8"?>
<!-- Generator: Adobe Illustrator 21.0.2, SVG Export Plug-In . SVG Version: 6.00 Build 0)  -->
<svg version="1.1" id="Layer_1" xmlns="http://www.w3.org/2000/svg" xmlns:xlink="http://www.w3.org/1999/xlink" x="0px" y="0px"
	 viewBox="0 0 124.4 117.3" style="enable-background:new 0 0 124.4 117.3;" xml:space="preserve">
<style type="text/css">
	.st0{fill:#656666;}
	.st1{fill:#D85681;}
	.st2{fill:#A7A9AC;}
	.st3{fill:#F1C2D1;}
	.st4{fill:#F2FCFC;}
	.st5{fill:#BCBEC0;}
</style>
<g>
	<g>
		<g>
			<path class="st0" d="M8.6,106.4l4.5,5.8H8.5L5,106.8h0v5.5H1.2V98h5.5c1.5,0,2.7,0.4,3.6,1.1c0.9,0.7,1.4,1.8,1.4,3.3
				c0,1-0.3,1.9-0.8,2.6C10.3,105.8,9.6,106.2,8.6,106.4z M4.9,100.8v3.6h0.4c1.7,0,2.6-0.6,2.6-1.8c0-1.2-0.9-1.8-2.6-1.8H4.9z"/>
			<path class="st0" d="M22.2,101.1h-4.4v2.4H22v3.1h-4.2v2.5h4.4v3.1h-8.1V98h8.1V101.1z"/>
			<path class="st0" d="M28.2,98v11.1h4.4v3.1h-8.2V98H28.2z"/>
			<path class="st0" d="M37.2,98.4c1.2-0.6,2.5-0.9,3.9-0.9s2.7,0.3,3.9,0.9c1.2,0.6,2.2,1.5,2.9,2.6c0.7,1.1,1.1,2.4,1.1,3.8
				c0,2.3-0.7,4.2-2.2,5.7s-3.4,2.2-5.7,2.2s-4.2-0.7-5.7-2.2s-2.2-3.4-2.2-5.7c0-1.4,0.4-2.7,1.1-3.8C35,99.9,36,99,37.2,98.4z
				 M43.9,102.2c-0.8-0.8-1.7-1.1-2.8-1.1s-2,0.4-2.8,1.1s-1.2,1.6-1.2,2.6c0,1.2,0.4,2.2,1.2,3s1.7,1.2,2.9,1.2s2.1-0.4,2.9-1.2
				c0.8-0.8,1.2-1.8,1.2-3C45.1,103.9,44.7,103,43.9,102.2z"/>
			<path class="st0" d="M60.9,98.3v4.4c-0.4-0.5-0.9-0.9-1.4-1.2s-1.2-0.4-1.8-0.4c-1.1,0-2,0.4-2.7,1.1s-1.1,1.7-1.1,2.8
				c0,1.1,0.4,2.1,1.1,2.8s1.6,1.1,2.8,1.1c0.6,0,1.2-0.1,1.8-0.4c0.6-0.3,1-0.6,1.4-1.1v4.4c-1.4,0.4-2.5,0.7-3.3,0.7
				c-2,0-3.8-0.7-5.4-2.1c-1.5-1.4-2.3-3.2-2.3-5.4c0-2,0.7-3.8,2.1-5.2c0.7-0.7,1.5-1.3,2.5-1.7c1-0.4,1.9-0.6,2.9-0.6
				C58.6,97.6,59.7,97.9,60.9,98.3z"/>
			<path class="st0" d="M71.9,109.8h-5.1l-1,2.5h-3.9L67.3,98h4.1l5.4,14.3h-4L71.9,109.8z M70.9,106.9l-1.5-4.5h0l-1.5,4.5H70.9z"
				/>
			<path class="st0" d="M82.5,101.1v11.1h-3.7v-11.1h-3.1V98h9.8v3.1H82.5z"/>
			<path class="st0" d="M90.6,98v14.3h-3.7V98H90.6z"/>
			<path class="st0" d="M93,112.3V98h3.7l6.8,8.7h0V98h3.7v14.3h-3.7l-6.8-8.7h0v8.7H93z"/>
			<path class="st0" d="M116.6,104.3h7.4c0,1.2-0.1,2.3-0.3,3.1c-0.2,0.9-0.6,1.7-1.1,2.5c-1.3,1.9-3.3,2.8-5.9,2.8
				c-2.2,0-4.1-0.7-5.5-2.1c-1.4-1.4-2.1-3.2-2.1-5.4c0-2.3,0.7-4.2,2.1-5.6s3.3-2.1,5.6-2.1c1.5,0,2.8,0.3,3.9,1
				c1.1,0.7,2,1.7,2.6,3l-3.5,1.5c-0.3-0.7-0.7-1.3-1.2-1.7c-0.5-0.4-1.2-0.6-1.9-0.6c-1.1,0-2.1,0.5-2.7,1.4c-0.7,0.9-1,2-1,3.1
				c0,1.2,0.3,2.2,1,3.1c0.7,0.9,1.6,1.3,2.8,1.3c0.8,0,1.5-0.2,2.1-0.6c0.5-0.4,0.9-1,0.9-1.8h-3V104.3z"/>
		</g>
	</g>
	<path class="st2" d="M71.4,43.4l12,24.3l3.6-6.8l-7.8-23.7c0.1-0.1,0.3-0.2,0.4-0.3l3.6-3.6c0.8-0.8,0.8-2,0-2.8l-0.6-0.6
		c-0.8-0.8-2-0.8-2.8,0l-2.3,2.3l-1.1-3.4L88,16.7c0,0,10.9-10.8,7.4-16c-5.2-3.5-16,7.4-16,7.4L67.2,19.6l-3.4-1.1l2.3-2.3
		c0.8-0.8,0.8-2,0-2.8l-0.6-0.6c-0.8-0.8-2-0.8-2.8,0l-3.6,3.6c-0.1,0.1-0.2,0.3-0.3,0.4L35.1,9.1l-6.8,3.6l24.3,12l5.6,4.5
		c-4,4.7-9.8,11.5-13.1,16l-9.5-2.5l-2.1,2.8l7.8,5.2c-1.7,2.9-2.5,4.8-2.5,5.4c0,0.5,0.3,0.8,0.3,0.8s0.3,0.3,0.8,0.3
		s2.5-0.8,5.4-2.5l5.2,7.8l2.8-2.1L50.9,51c4.4-3.4,11.3-9.1,16-13.1L71.4,43.4z"/>
</g>
</svg>
