<?xml version="1.0" encoding="utf-8"?>
<!-- Generator: Adobe Illustrator 21.0.2, SVG Export Plug-In . SVG Version: 6.00 Build 0)  -->
<svg version="1.1" id="Layer_1" xmlns="http://www.w3.org/2000/svg" xmlns:xlink="http://www.w3.org/1999/xlink" x="0px" y="0px"
	 viewBox="0 0 211.6 119.2" style="enable-background:new 0 0 211.6 119.2;" xml:space="preserve">
<style type="text/css">
	.st0{fill:#656666;}
	.st1{fill:#D85681;}
	.st2{fill:#A7A9AC;}
	.st3{fill:#F1C2D1;}
	.st4{fill:#F2FCFC;}
	.st5{fill:#BCBEC0;}
</style>
<g>
	<g>
		<g>
			<path class="st0" d="M1.2,114.2V100h5.3c2,0,3.7,0.7,5.1,2.1c1.4,1.4,2.1,3.1,2.1,5.1c0,2-0.7,3.7-2.1,5.1
				c-1.4,1.4-3.1,2.1-5.1,2.1H1.2z M4.9,103.1v8h0.8c1.2,0,2.2-0.3,2.9-1c0.8-0.7,1.2-1.7,1.2-3c0-1.3-0.4-2.2-1.1-2.9
				c-0.7-0.7-1.7-1.1-3-1.1H4.9z"/>
			<path class="st0" d="M19.2,100v14.3h-3.7V100H19.2z"/>
			<path class="st0" d="M24.1,100l3.4,8.7L31,100h4L29,114.2h-2.9l-6-14.3H24.1z"/>
			<path class="st0" d="M39.3,100.4c1.2-0.6,2.5-0.9,3.9-0.9c1.4,0,2.7,0.3,3.9,0.9c1.2,0.6,2.2,1.5,2.9,2.6
				c0.7,1.1,1.1,2.4,1.1,3.8c0,2.3-0.7,4.2-2.2,5.7c-1.5,1.5-3.4,2.2-5.7,2.2c-2.3,0-4.2-0.7-5.7-2.2c-1.5-1.5-2.2-3.4-2.2-5.7
				c0-1.4,0.4-2.7,1.1-3.8C37.1,101.9,38.1,101,39.3,100.4z M46,104.2c-0.8-0.8-1.7-1.1-2.8-1.1c-1.1,0-2,0.4-2.8,1.1
				c-0.8,0.8-1.2,1.6-1.2,2.6c0,1.2,0.4,2.2,1.2,3c0.8,0.8,1.7,1.2,2.9,1.2c1.1,0,2.1-0.4,2.9-1.2c0.8-0.8,1.2-1.8,1.2-3
				C47.2,105.9,46.8,105,46,104.2z"/>
			<path class="st0" d="M60.2,108.4l4.5,5.8H60l-3.5-5.5h0v5.5h-3.7V100h5.5c1.5,0,2.7,0.4,3.6,1.1c0.9,0.7,1.4,1.8,1.4,3.3
				c0,1-0.3,1.9-0.8,2.6C61.9,107.7,61.1,108.2,60.2,108.4z M56.5,102.8v3.6h0.4c1.7,0,2.6-0.6,2.6-1.8c0-1.2-0.9-1.8-2.6-1.8H56.5z
				"/>
			<path class="st0" d="M75.8,100.3v4.4c-0.4-0.5-0.9-0.9-1.4-1.2s-1.2-0.4-1.8-0.4c-1.1,0-2,0.4-2.7,1.1c-0.7,0.8-1.1,1.7-1.1,2.8
				c0,1.1,0.4,2.1,1.1,2.8s1.6,1.1,2.8,1.1c0.6,0,1.2-0.1,1.8-0.4s1-0.6,1.4-1.1v4.4c-1.4,0.4-2.5,0.7-3.3,0.7c-2,0-3.8-0.7-5.4-2.1
				c-1.5-1.4-2.3-3.2-2.3-5.4c0-2,0.7-3.8,2.1-5.2c0.7-0.7,1.5-1.3,2.5-1.7c1-0.4,1.9-0.6,2.9-0.6C73.6,99.6,74.7,99.8,75.8,100.3z"
				/>
			<path class="st0" d="M86.3,103.1h-4.4v2.4H86v3.1h-4.2v2.5h4.4v3.1h-8.1V100h8.1V103.1z"/>
			<path class="st0" d="M104.3,100.8l-1.5,2.9c-0.8-0.6-1.6-0.9-2.5-0.9c-0.4,0-0.8,0.1-1.1,0.3s-0.5,0.5-0.5,0.9
				c0,0.3,0.1,0.5,0.3,0.7c0.2,0.2,0.4,0.3,0.6,0.4c0.2,0.1,0.4,0.2,0.7,0.3l0.9,0.3c1.1,0.3,2,0.8,2.6,1.4c0.6,0.6,0.9,1.4,0.9,2.5
				c0,1.7-0.5,3-1.5,3.8c-1.1,0.9-2.4,1.3-4.1,1.3c-1.8,0-3.5-0.5-5-1.6l1.6-3c1.1,1,2.2,1.5,3.3,1.5c0.5,0,0.9-0.1,1.3-0.4
				c0.4-0.2,0.5-0.6,0.5-1.1c0-0.6-0.6-1.1-1.8-1.5c0,0-0.2-0.1-0.5-0.1c-0.7-0.2-1.2-0.4-1.6-0.5s-0.8-0.4-1.2-0.7
				c-0.4-0.3-0.7-0.7-0.8-1.1c-0.2-0.5-0.2-1-0.2-1.7c0-1.4,0.5-2.6,1.4-3.5c0.9-0.9,2.1-1.3,3.5-1.3c0.7,0,1.5,0.1,2.3,0.3
				C103,100.1,103.7,100.4,104.3,100.8z"/>
			<path class="st0" d="M114.8,103.1h-4.4v2.4h4.2v3.1h-4.2v2.5h4.4v3.1h-8.1V100h8.1V103.1z"/>
			<path class="st0" d="M122.8,103.1v11.1h-3.7v-11.1H116V100h9.8v3.1H122.8z"/>
			<path class="st0" d="M132.9,103.1v11.1h-3.7v-11.1h-3.1V100h9.8v3.1H132.9z"/>
			<path class="st0" d="M141,100v11.1h4.4v3.1h-8.2V100H141z"/>
			<path class="st0" d="M154.8,103.1h-4.4v2.4h4.2v3.1h-4.2v2.5h4.4v3.1h-8.1V100h8.1V103.1z"/>
			<path class="st0" d="M156.2,114.2l2.4-14.3h3.7l2.9,7.6l3.1-7.6h3.7l2.2,14.3h-3.7l-1-8.2h0l-3.4,8.2h-1.5l-3.3-8.2h0l-1.2,8.2
				H156.2z"/>
			<path class="st0" d="M183.8,103.1h-4.4v2.4h4.2v3.1h-4.2v2.5h4.4v3.1h-8.1V100h8.1V103.1z"/>
			<path class="st0" d="M186.1,114.2V100h3.7l6.8,8.7h0V100h3.7v14.3h-3.7l-6.8-8.7h0v8.7H186.1z"/>
			<path class="st0" d="M208.4,103.1v11.1h-3.7v-11.1h-3.1V100h9.8v3.1H208.4z"/>
		</g>
	</g>
	<g>
		<path class="st1" d="M105.8,52.8L105.8,52.8l-4.6-8l4.6-8l0,0l-4.6-8l4.6-8l0,0l-2.6-7.8c-2.7-7.1-8.3-13-15.4-13
			c-6,0-11,3.2-14.9,7.7c-5.6,6.3-7.8,19.9,2.2,29.7c5.1,5,28.1,30.1,28.1,30.1l-2-6.8L105.8,52.8z"/>
		<path class="st1" d="M138.9,7.7c-3.9-4.5-8.9-7.7-14.9-7.7c-7.1,0-12.8,5.9-15.5,13l2.6,7.8l0,0l-4.6,8l4.6,8l0,0l-4.6,8l4.6,8
			l0,0l-4.6,8l2,6.8c0,0,23.2-25,28.3-30.1C146.6,27.5,144.2,13.9,138.9,7.7"/>
	</g>
</g>
</svg>
