<?xml version="1.0" encoding="utf-8"?>
<!-- Generator: Adobe Illustrator 21.0.2, SVG Export Plug-In . SVG Version: 6.00 Build 0)  -->
<svg version="1.1" id="Layer_1" xmlns="http://www.w3.org/2000/svg" xmlns:xlink="http://www.w3.org/1999/xlink" x="0px" y="0px"
	 viewBox="0 0 136.2 109.7" style="enable-background:new 0 0 136.2 109.7;" xml:space="preserve">
<style type="text/css">
	.st0{fill:#656666;}
	.st1{fill:#D85681;}
	.st2{fill:#A7A9AC;}
	.st3{fill:#F1C2D1;}
	.st4{fill:#F2FCFC;}
	.st5{fill:#BCBEC0;}
</style>
<g>
	<g>
		<g>
			<path class="st0" d="M2.7,104.7V90.4h3.7l6.8,8.7h0v-8.7H17v14.3h-3.7l-6.8-8.7h0v8.7H2.7z"/>
			<path class="st0" d="M27.5,93.5h-4.4v2.4h4.2v3.1h-4.2v2.5h4.4v3.1h-8.1V90.4h8.1V93.5z"/>
			<path class="st0" d="M33.5,90.4v14.3h-3.7V90.4H33.5z"/>
			<path class="st0" d="M42.8,96.7h7.4c0,1.2-0.1,2.3-0.3,3.1c-0.2,0.9-0.6,1.7-1.1,2.5c-1.3,1.9-3.3,2.8-5.9,2.8
				c-2.2,0-4.1-0.7-5.5-2.1c-1.4-1.4-2.1-3.2-2.1-5.4c0-2.3,0.7-4.2,2.1-5.6s3.3-2.1,5.6-2.1c1.5,0,2.8,0.3,3.9,1
				c1.1,0.7,2,1.7,2.6,3l-3.5,1.5c-0.3-0.7-0.7-1.3-1.2-1.7c-0.5-0.4-1.2-0.6-1.9-0.6c-1.1,0-2.1,0.5-2.7,1.4c-0.7,0.9-1,2-1,3.1
				c0,1.2,0.3,2.2,1,3.1c0.7,0.9,1.6,1.3,2.8,1.3c0.8,0,1.5-0.2,2.1-0.6c0.5-0.4,0.9-1,0.9-1.8h-3V96.7z"/>
			<path class="st0" d="M55.6,95.9h5.4v-5.5h3.7v14.3h-3.7v-5.8h-5.4v5.8h-3.7V90.4h3.7V95.9z"/>
			<path class="st0" d="M72.8,104.7h-5.7V90.4h5.3c2.8,0,4.2,1.2,4.2,3.7c0,1.4-0.5,2.4-1.6,2.9v0c1.9,0.3,2.9,1.5,2.9,3.6
				c0,0.7-0.1,1.3-0.4,1.9c-0.3,0.5-0.7,0.9-1.2,1.2c-0.5,0.3-1,0.5-1.6,0.7C74.1,104.6,73.5,104.7,72.8,104.7z M70.8,93.2V96h0.4
				c0.6,0,1.1-0.1,1.5-0.3c0.4-0.2,0.5-0.6,0.5-1.1c0-0.3-0.1-0.6-0.2-0.8c-0.1-0.2-0.3-0.3-0.5-0.4c-0.2-0.1-0.5-0.1-0.7-0.2
				c-0.2,0-0.5,0-0.8,0H70.8z M70.8,98.8v3.1h0.5c0.3,0,0.5,0,0.6,0s0.3,0,0.6,0s0.5-0.1,0.7-0.1c0.1-0.1,0.3-0.1,0.5-0.3
				c0.2-0.1,0.3-0.3,0.4-0.4s0.1-0.4,0.1-0.7c0-0.2,0-0.4-0.1-0.5c0-0.2-0.1-0.3-0.2-0.4c-0.1-0.1-0.2-0.2-0.3-0.3
				c-0.1-0.1-0.2-0.1-0.4-0.2c-0.2,0-0.3-0.1-0.4-0.1c-0.1,0-0.2-0.1-0.5-0.1c-0.2,0-0.4,0-0.4,0c-0.1,0-0.2,0-0.5,0
				c-0.2,0-0.4,0-0.4,0H70.8z"/>
			<path class="st0" d="M83.2,90.8c1.2-0.6,2.5-0.9,3.9-0.9s2.7,0.3,3.9,0.9c1.2,0.6,2.2,1.5,2.9,2.6c0.7,1.1,1.1,2.4,1.1,3.8
				c0,2.3-0.7,4.2-2.2,5.7s-3.4,2.2-5.7,2.2s-4.2-0.7-5.7-2.2s-2.2-3.4-2.2-5.7c0-1.4,0.4-2.7,1.1-3.8C81,92.3,82,91.4,83.2,90.8z
				 M89.9,94.6c-0.8-0.8-1.7-1.1-2.8-1.1s-2,0.4-2.8,1.1S83,96.3,83,97.3c0,1.2,0.4,2.2,1.2,3s1.7,1.2,2.9,1.2s2.1-0.4,2.9-1.2
				c0.8-0.8,1.2-1.8,1.2-3C91.1,96.3,90.7,95.4,89.9,94.6z"/>
			<path class="st0" d="M105.3,90.4h3.7v8c0,1.2-0.1,2.1-0.3,2.9c-0.2,0.8-0.6,1.5-1.2,2.1c-1.1,1.1-2.6,1.6-4.7,1.6
				s-3.7-0.5-4.7-1.6c-0.6-0.6-1-1.3-1.2-2.1c-0.2-0.8-0.3-1.8-0.3-2.9v-8h3.7v7.5c0,0.5,0,0.8,0,1.1c0,0.3,0.1,0.6,0.2,1
				c0.1,0.4,0.2,0.7,0.4,0.9c0.2,0.2,0.4,0.4,0.7,0.6s0.7,0.2,1.2,0.2s0.8-0.1,1.2-0.2c0.3-0.2,0.6-0.4,0.7-0.6
				c0.2-0.2,0.3-0.5,0.4-0.9c0.1-0.4,0.2-0.7,0.2-1c0-0.3,0-0.7,0-1.1V90.4z"/>
			<path class="st0" d="M118.8,98.8l4.5,5.8h-4.6l-3.5-5.5h0v5.5h-3.7V90.4h5.5c1.5,0,2.7,0.4,3.6,1.1c0.9,0.7,1.4,1.8,1.4,3.3
				c0,1-0.3,1.9-0.8,2.6C120.5,98.2,119.8,98.6,118.8,98.8z M115.1,93.2v3.6h0.4c1.7,0,2.6-0.6,2.6-1.8c0-1.2-0.9-1.8-2.6-1.8H115.1
				z"/>
			<path class="st0" d="M133.6,91.2l-1.5,2.9c-0.8-0.6-1.6-0.9-2.5-0.9c-0.4,0-0.8,0.1-1.1,0.3c-0.3,0.2-0.5,0.5-0.5,0.9
				c0,0.3,0.1,0.5,0.3,0.7c0.2,0.2,0.4,0.3,0.6,0.4c0.2,0.1,0.4,0.2,0.7,0.3l0.9,0.3c1.1,0.3,2,0.8,2.6,1.4s0.9,1.4,0.9,2.5
				c0,1.7-0.5,3-1.5,3.8c-1.1,0.9-2.4,1.3-4,1.3c-1.8,0-3.5-0.5-5-1.6l1.6-3c1.1,1,2.2,1.5,3.3,1.5c0.5,0,0.9-0.1,1.3-0.4
				c0.4-0.2,0.5-0.6,0.5-1.1c0-0.6-0.6-1.1-1.8-1.5c0,0-0.2-0.1-0.5-0.1c-0.7-0.2-1.2-0.4-1.6-0.5c-0.4-0.2-0.8-0.4-1.2-0.7
				c-0.4-0.3-0.7-0.7-0.8-1.1c-0.2-0.5-0.2-1-0.2-1.7c0-1.4,0.5-2.6,1.4-3.5c0.9-0.9,2.1-1.3,3.5-1.3c0.7,0,1.5,0.1,2.3,0.3
				S132.9,90.8,133.6,91.2z"/>
		</g>
	</g>
	<g>
		<g>
			<path class="st2" d="M65.7,27.4l-2.5,3c-0.2,0.2-0.5,0.4-0.9,0.5h-0.1c-0.4,0-0.6-0.1-0.9-0.3L33,7L4.7,30.6
				c-0.3,0.2-0.7,0.3-1,0.3c-0.4-0.1-0.6-0.2-0.9-0.5l-2.5-3c-0.2-0.3-0.3-0.6-0.3-1c0-0.4,0.2-0.7,0.4-0.9L29.9,1.1
				C30.7,0.4,31.8,0,33,0c1.2,0,2.2,0.4,3.1,1.1l10,8.3v-8c0-0.4,0.1-0.7,0.4-0.9c0.2-0.2,0.6-0.4,0.9-0.4h7.9
				c0.4,0,0.7,0.1,0.9,0.4c0.2,0.2,0.4,0.6,0.4,0.9v16.7l9,7.4c0.3,0.2,0.4,0.5,0.4,0.9S65.9,27.1,65.7,27.4z M56.5,30.2v19.6
				c0,0.7-0.3,1.3-0.8,1.8c-0.5,0.5-1.1,0.8-1.8,0.8H38.2V36.8H27.7v15.7H12c-0.7,0-1.3-0.3-1.8-0.8c-0.5-0.5-0.8-1.1-0.8-1.8V30.2
				c0,0,0-0.1,0-0.1c0-0.1,0-0.1,0-0.1L33,10.6L56.5,30C56.5,30,56.5,30.1,56.5,30.2z"/>
		</g>
		<g>
			<path class="st2" d="M135.9,27.4l-2.5,3c-0.2,0.2-0.5,0.4-0.9,0.5h-0.1c-0.4,0-0.6-0.1-0.9-0.3L103.2,7L74.9,30.6
				c-0.3,0.2-0.7,0.3-1,0.3c-0.4-0.1-0.6-0.2-0.9-0.5l-2.5-3c-0.2-0.3-0.3-0.6-0.3-1s0.2-0.7,0.4-0.9l29.4-24.5
				C101,0.4,102,0,103.2,0c1.2,0,2.2,0.4,3.1,1.1l10,8.3v-8c0-0.4,0.1-0.7,0.4-0.9c0.2-0.2,0.6-0.4,0.9-0.4h7.9
				c0.4,0,0.7,0.1,0.9,0.4c0.2,0.2,0.4,0.6,0.4,0.9v16.7l9,7.4c0.3,0.2,0.4,0.5,0.4,0.9S136.1,27.1,135.9,27.4z M126.8,30.2v19.6
				c0,0.7-0.3,1.3-0.8,1.8c-0.5,0.5-1.1,0.8-1.8,0.8h-15.7V36.8H98v15.7H82.3c-0.7,0-1.3-0.3-1.8-0.8c-0.5-0.5-0.8-1.1-0.8-1.8V30.2
				c0,0,0-0.1,0-0.1c0-0.1,0-0.1,0-0.1l23.5-19.4L126.8,30C126.8,30,126.8,30.1,126.8,30.2z"/>
		</g>
	</g>
</g>
</svg>
