<?xml version="1.0" encoding="utf-8"?>
<!-- Generator: Adobe Illustrator 21.0.2, SVG Export Plug-In . SVG Version: 6.00 Build 0)  -->
<svg version="1.1" id="Layer_1" xmlns="http://www.w3.org/2000/svg" xmlns:xlink="http://www.w3.org/1999/xlink" x="0px" y="0px"
	 viewBox="0 0 130.7 127.7" style="enable-background:new 0 0 130.7 127.7;" xml:space="preserve">
<style type="text/css">
	.st0{fill:#656666;}
	.st1{fill:#D85681;}
	.st2{fill:#A7A9AC;}
	.st3{fill:#F1C2D1;}
	.st4{fill:#F2FCFC;}
	.st5{fill:#BCBEC0;}
</style>
<g>
	<g>
		<g>
			<path class="st0" d="M4.9,108.4v14.3H1.2v-14.3H4.9z"/>
			<path class="st0" d="M7.3,122.7v-14.3h3.7l6.8,8.7h0v-8.7h3.7v14.3h-3.7l-6.8-8.7h0v8.7H7.3z"/>
			<path class="st0" d="M27.7,113.9h5.4v-5.5h3.7v14.3h-3.7v-5.8h-5.4v5.8H24v-14.3h3.7V113.9z"/>
			<path class="st0" d="M47.3,111.5h-4.4v2.4h4.2v3.1h-4.2v2.5h4.4v3.1h-8.1v-14.3h8.1V111.5z"/>
			<path class="st0" d="M57,116.8l4.5,5.8h-4.6l-3.5-5.5h0v5.5h-3.7v-14.3h5.5c1.5,0,2.7,0.4,3.6,1.1c0.9,0.7,1.4,1.8,1.4,3.3
				c0,1-0.3,1.9-0.8,2.6C58.8,116.2,58,116.6,57,116.8z M53.3,111.2v3.6h0.4c1.7,0,2.6-0.6,2.6-1.8c0-1.2-0.9-1.8-2.6-1.8H53.3z"/>
			<path class="st0" d="M66.2,108.4v14.3h-3.7v-14.3H66.2z"/>
			<path class="st0" d="M74.3,111.5v11.1h-3.7v-11.1h-3.1v-3.1h9.8v3.1H74.3z"/>
			<path class="st0" d="M86.3,120.2h-5.1l-1,2.5h-3.9l5.5-14.3h4l5.4,14.3h-4L86.3,120.2z M85.3,117.3l-1.5-4.5h0l-1.5,4.5H85.3z"/>
			<path class="st0" d="M92.4,122.7v-14.3h3.7l6.8,8.7h0v-8.7h3.7v14.3h-3.7l-6.8-8.7h0v8.7H92.4z"/>
			<path class="st0" d="M119.2,108.7v4.4c-0.4-0.5-0.9-0.9-1.4-1.2s-1.2-0.4-1.8-0.4c-1.1,0-2,0.4-2.7,1.1c-0.7,0.8-1.1,1.7-1.1,2.8
				c0,1.1,0.4,2.1,1.1,2.8s1.6,1.1,2.8,1.1c0.6,0,1.2-0.1,1.8-0.4c0.6-0.3,1-0.6,1.4-1.1v4.4c-1.4,0.4-2.5,0.7-3.3,0.7
				c-2,0-3.8-0.7-5.4-2.1c-1.5-1.4-2.3-3.2-2.3-5.4c0-2,0.7-3.8,2.1-5.2c0.7-0.7,1.5-1.3,2.5-1.7c1-0.4,1.9-0.6,2.9-0.6
				C117,108,118.1,108.3,119.2,108.7z"/>
			<path class="st0" d="M129.7,111.5h-4.4v2.4h4.2v3.1h-4.2v2.5h4.4v3.1h-8.1v-14.3h8.1V111.5z"/>
		</g>
	</g>
	<g>
		<path class="st1" d="M64.5,26.7c0.4,0.6,1.3,0.6,1.7,0c3.3-4.9,15-10.9,15-18.8c0-5.4-3.5-7.9-7.9-7.9c-4.4,0-7.9,3.5-7.9,7.9
			c0-4.4-3.5-7.9-7.9-7.9c-4.4,0-7.9,2.5-7.9,7.9C49.6,15.8,61.2,21.8,64.5,26.7z"/>
		<path class="st1" d="M73.3,0c-4.4,0-7.9,3.5-7.9,7.9c0,0,0,0,0-0.1v19.3c0.3,0,0.7-0.2,0.9-0.5c3.3-4.9,15-10.9,15-18.8
			C81.3,2.5,77.7,0,73.3,0z"/>
		<circle class="st5" cx="65.4" cy="42.7" r="4.1"/>
		<path class="st5" d="M69.1,73.8v-10c0-0.7,0.6-1.2,1.2-1.2l0,0c0.7,0,1.2-0.6,1.2-1.2V50.9c0-0.5-0.3-0.9-0.7-1.1l-4-2
			c-0.2-0.1-0.4-0.1-0.6-0.1h-1.9c-0.2,0-0.4,0-0.6,0.1l-4,2c-0.4,0.2-0.7,0.6-0.7,1.1v10.4c0,0.7,0.6,1.2,1.2,1.2l0,0
			c0.7,0,1.2,0.6,1.2,1.2v10c0,0.7,0.6,1.2,1.2,1.2h5C68.5,75,69.1,74.4,69.1,73.8z"/>
		<circle class="st5" cx="41.7" cy="26.6" r="6.1"/>
		<path class="st5" d="M47.3,73.1V58.2c0-1,0.8-1.9,1.9-1.9l0,0c1,0,1.9-0.8,1.9-1.9V38.8c0-0.7-0.4-1.4-1-1.7l-6-3
			c-0.3-0.1-0.5-0.2-0.8-0.2h-2.9c-0.3,0-0.6,0.1-0.8,0.2l-6,3c-0.6,0.3-1,1-1,1.7v15.7c0,1,0.8,1.9,1.9,1.9l0,0
			c1,0,1.9,0.8,1.9,1.9v14.9c0,1,0.8,1.9,1.9,1.9h7.5C46.5,75,47.3,74.2,47.3,73.1z"/>
		<path class="st5" d="M89,20.5c3.4,0,6.1,2.7,6.1,6.1c0,3.4-2.7,6.1-6.1,6.1c-3.4,0-6.1-2.7-6.1-6.1C82.9,23.2,85.7,20.5,89,20.5z"
			/>
		<g>
			<path class="st5" d="M94.6,73.1V58.2c0-1,0.8-1.9,1.9-1.9l0,0c1,0,1.9-0.8,1.9-1.9V38.8c0-0.7-0.4-1.4-1-1.7l-6-3
				c-0.3-0.1-0.5-0.2-0.8-0.2h-2.9c-0.3,0-0.6,0.1-0.8,0.2l-6,3c-0.6,0.3-1,1-1,1.7v15.7c0,1,0.8,1.9,1.9,1.9l0,0
				c1,0,1.9,0.8,1.9,1.9v14.9c0,1,0.8,1.9,1.9,1.9h7.5C93.8,75,94.6,74.2,94.6,73.1z"/>
			<path class="st2" d="M69.4,42.7c0-2.2-1.8-4-4-4.1v8.1C67.6,46.7,69.4,44.9,69.4,42.7z"/>
		</g>
		<path class="st2" d="M70.9,49.7l-4-2c-0.2-0.1-0.4-0.1-0.6-0.1h-0.9V75h2.4c0.7,0,1.2-0.6,1.2-1.2v-10c0-0.7,0.6-1.2,1.2-1.2
			c0.7,0,1.2-0.6,1.2-1.2V50.9C71.6,50.4,71.3,50,70.9,49.7z"/>
		<path class="st2" d="M41.7,20.5c0,0-0.1,0-0.1,0v12.2c0,0,0.1,0,0.1,0c3.4,0,6.1-2.7,6.1-6.1C47.8,23.2,45.1,20.5,41.7,20.5z"/>
		<path class="st2" d="M50,37.1l-6-3c-0.3-0.1-0.5-0.2-0.8-0.2h-1.6V75h3.9c1,0,1.9-0.8,1.9-1.9V58.2c0-1,0.8-1.9,1.9-1.9
			c1,0,1.9-0.8,1.9-1.9V38.8C51,38.1,50.6,37.5,50,37.1z"/>
		<path class="st2" d="M89,20.5C89,20.5,89,20.5,89,20.5l-0.1,12.2c0,0,0.1,0,0.1,0c3.4,0,6.1-2.7,6.1-6.1
			C95.1,23.2,92.4,20.5,89,20.5z"/>
		<path class="st2" d="M97.3,37.1l-6-3c-0.3-0.1-0.5-0.2-0.8-0.2h-1.5V75h3.8c1,0,1.9-0.8,1.9-1.9V58.2c0-1,0.8-1.9,1.9-1.9l0,0
			c1,0,1.9-0.8,1.9-1.9V38.8C98.4,38.1,98,37.5,97.3,37.1z"/>
	</g>
</g>
</svg>
