<?xml version="1.0" encoding="utf-8"?>
<!-- Generator: Adobe Illustrator 21.0.2, SVG Export Plug-In . SVG Version: 6.00 Build 0)  -->
<svg version="1.1" id="Layer_1" xmlns="http://www.w3.org/2000/svg" xmlns:xlink="http://www.w3.org/1999/xlink" x="0px" y="0px"
	 viewBox="0 0 156.6 117.5" style="enable-background:new 0 0 156.6 117.5;" xml:space="preserve">
<style type="text/css">
	.st0{fill:#656666;}
	.st1{fill:#D85681;}
	.st2{fill:#A7A9AC;}
	.st3{fill:#F1C2D1;}
	.st4{fill:#F2FCFC;}
	.st5{fill:#BCBEC0;}
</style>
<g>
	<g>
		<g>
			<path class="st0" d="M6.9,112.5H1.2V98.2h5.3c2.8,0,4.2,1.2,4.2,3.7c0,1.4-0.5,2.4-1.6,2.9v0c1.9,0.3,2.9,1.5,2.9,3.6
				c0,0.7-0.1,1.3-0.4,1.9c-0.3,0.5-0.7,0.9-1.2,1.2c-0.5,0.3-1,0.5-1.6,0.7C8.3,112.4,7.6,112.5,6.9,112.5z M4.9,101v2.8h0.4
				c0.6,0,1.1-0.1,1.5-0.3c0.4-0.2,0.5-0.6,0.5-1.1c0-0.3-0.1-0.6-0.2-0.8c-0.1-0.2-0.3-0.3-0.5-0.4c-0.2-0.1-0.5-0.1-0.7-0.2
				c-0.2,0-0.5,0-0.8,0H4.9z M4.9,106.6v3.1h0.5c0.3,0,0.5,0,0.6,0s0.3,0,0.6,0s0.5-0.1,0.7-0.1c0.1-0.1,0.3-0.1,0.5-0.3
				c0.2-0.1,0.3-0.3,0.4-0.4s0.1-0.4,0.1-0.7c0-0.2,0-0.4-0.1-0.5c0-0.2-0.1-0.3-0.2-0.4c-0.1-0.1-0.2-0.2-0.3-0.3
				c-0.1-0.1-0.2-0.1-0.4-0.2c-0.2,0-0.3-0.1-0.4-0.1c-0.1,0-0.2-0.1-0.5-0.1c-0.2,0-0.4,0-0.4,0c-0.1,0-0.2,0-0.5,0
				c-0.2,0-0.4,0-0.4,0H4.9z"/>
			<path class="st0" d="M21.4,106.6l4.5,5.8h-4.6l-3.5-5.5h0v5.5H14V98.2h5.5c1.5,0,2.7,0.4,3.6,1.1c0.9,0.7,1.4,1.8,1.4,3.3
				c0,1-0.3,1.9-0.8,2.6C23.2,106,22.4,106.4,21.4,106.6z M17.7,101v3.6h0.4c1.7,0,2.6-0.6,2.6-1.8c0-1.2-0.9-1.8-2.6-1.8H17.7z"/>
			<path class="st0" d="M30.2,98.6c1.2-0.6,2.5-0.9,3.9-0.9s2.7,0.3,3.9,0.9c1.2,0.6,2.2,1.5,2.9,2.6c0.7,1.1,1.1,2.4,1.1,3.8
				c0,2.3-0.7,4.2-2.2,5.7s-3.4,2.2-5.7,2.2s-4.2-0.7-5.7-2.2s-2.2-3.4-2.2-5.7c0-1.4,0.4-2.7,1.1-3.8C28,100.1,29,99.2,30.2,98.6z
				 M36.9,102.4c-0.8-0.8-1.7-1.1-2.8-1.1s-2,0.4-2.8,1.1s-1.2,1.6-1.2,2.6c0,1.2,0.4,2.2,1.2,3s1.7,1.2,2.9,1.2s2.1-0.4,2.9-1.2
				c0.8-0.8,1.2-1.8,1.2-3C38.1,104.1,37.7,103.2,36.9,102.4z"/>
			<path class="st0" d="M47.4,104.1l4.5-5.9h4.6l-5.7,6.8l6.2,7.5h-4.8l-4.8-6.2h0v6.2h-3.7V98.2h3.7L47.4,104.1L47.4,104.1z"/>
			<path class="st0" d="M66.2,101.3h-4.4v2.4h4.2v3.1h-4.2v2.5h4.4v3.1H58V98.2h8.1V101.3z"/>
			<path class="st0" d="M68.4,112.5V98.2h3.7l6.8,8.7h0v-8.7h3.7v14.3H79l-6.8-8.7h0v8.7H68.4z"/>
			<path class="st0" d="M84.9,105h5.4v2.8h-5.4V105z"/>
			<path class="st0" d="M102.7,98.5v4.4c-0.4-0.5-0.9-0.9-1.4-1.2s-1.2-0.4-1.8-0.4c-1.1,0-2,0.4-2.7,1.1s-1.1,1.7-1.1,2.8
				c0,1.1,0.4,2.1,1.1,2.8s1.6,1.1,2.8,1.1c0.6,0,1.2-0.1,1.8-0.4c0.6-0.3,1-0.6,1.4-1.1v4.4c-1.4,0.4-2.5,0.7-3.3,0.7
				c-2,0-3.8-0.7-5.4-2.1c-1.5-1.4-2.3-3.2-2.3-5.4c0-2,0.7-3.8,2.1-5.2c0.7-0.7,1.5-1.3,2.5-1.7c1-0.4,1.9-0.6,2.9-0.6
				C100.5,97.8,101.6,98,102.7,98.5z"/>
			<path class="st0" d="M108.7,103.7h5.4v-5.5h3.7v14.3h-3.7v-5.8h-5.4v5.8H105V98.2h3.7V103.7z"/>
			<path class="st0" d="M129,110h-5.1l-1,2.5h-3.9l5.5-14.3h4l5.4,14.3h-4L129,110z M128,107.1l-1.5-4.5h0l-1.5,4.5H128z"/>
			<path class="st0" d="M138.7,98.2v14.3H135V98.2H138.7z"/>
			<path class="st0" d="M141.1,112.5V98.2h3.7l6.8,8.7h0v-8.7h3.7v14.3h-3.7l-6.8-8.7h0v8.7H141.1z"/>
		</g>
	</g>
	<g>
		<path class="st2" d="M59.6,43.6c0.2,0.2,0.4,0.6,0.4,0.9c0,0.4-0.1,0.7-0.4,0.9c-0.2,0.2-0.6,0.4-0.9,0.4H45.6
			c-0.4,0-0.7-0.1-0.9-0.4c-0.2-0.2-0.4-0.6-0.4-0.9s0.1-0.7,0.4-0.9c0.2-0.2,0.6-0.4,0.9-0.4h13.1C59.1,43.2,59.4,43.3,59.6,43.6z
			 M86.4,20.1l-9.8,0.7L65.5,9.7c-0.8-0.8-1.7-1.1-2.8-1.1c-1.1,0-2,0.4-2.8,1.1l-6,6c-0.8,0.8-1.1,1.7-1.1,2.7c0,1.1,0.4,2,1.1,2.8
			l11.2,11.2l-0.7,9.8c-1-0.6-1.7-1.1-2.3-1.7L48.4,26.7c-2.3-2.3-3.4-5.1-3.4-8.3c0-3.3,1.2-6,3.5-8.3l6-6c2.3-2.3,5-3.4,8.3-3.4
			c3.3,0,6.1,1.2,8.3,3.5l13.7,13.7C85.3,18.4,85.9,19.2,86.4,20.1z M62.2,52L51.8,62.5c-0.3,0.2-0.6,0.4-0.9,0.4s-0.6-0.1-0.9-0.4
			c-0.2-0.3-0.4-0.6-0.4-0.9c0-0.4,0.1-0.7,0.4-0.9l10.5-10.5c0.3-0.2,0.6-0.4,0.9-0.4c0.4,0,0.7,0.1,0.9,0.4
			c0.2,0.3,0.4,0.6,0.4,0.9C62.6,51.4,62.5,51.7,62.2,52z M69.1,53.7v13.1c0,0.4-0.1,0.7-0.4,0.9c-0.2,0.2-0.6,0.4-0.9,0.4
			c-0.4,0-0.7-0.1-0.9-0.4c-0.2-0.2-0.4-0.6-0.4-0.9V53.7c0-0.4,0.1-0.7,0.4-0.9c0.2-0.2,0.6-0.4,0.9-0.4c0.4,0,0.7,0.1,0.9,0.4
			C69,53,69.1,53.3,69.1,53.7z M111.7,49.8c0,3.3-1.2,6-3.5,8.3l-6,6c-2.3,2.3-5,3.4-8.3,3.4c-3.3,0-6.1-1.2-8.3-3.5L71.9,50.2
			c-0.6-0.6-1.1-1.3-1.7-2.3l9.8-0.7l11.2,11.2c0.7,0.7,1.7,1.1,2.8,1.1c1.1,0,2-0.3,2.8-1.1l6-6c0.8-0.8,1.1-1.7,1.1-2.7
			c0-1.1-0.4-2-1.1-2.8L91.5,35.7l0.7-9.8c1,0.6,1.7,1.1,2.3,1.7l13.7,13.7C110.5,43.8,111.7,46.5,111.7,49.8z M90.1,1.3v13.1
			c0,0.4-0.1,0.7-0.4,0.9c-0.2,0.2-0.6,0.4-0.9,0.4c-0.4,0-0.7-0.1-0.9-0.4c-0.2-0.2-0.4-0.6-0.4-0.9V1.3c0-0.4,0.1-0.7,0.4-0.9
			C88.1,0.1,88.4,0,88.8,0c0.4,0,0.7,0.1,0.9,0.4C90,0.6,90.1,0.9,90.1,1.3z M106.7,7.5L96.3,18c-0.3,0.2-0.6,0.4-0.9,0.4
			c-0.3,0-0.6-0.1-0.9-0.4C94.1,17.7,94,17.4,94,17c0-0.4,0.1-0.7,0.4-0.9l10.5-10.5c0.3-0.2,0.6-0.4,0.9-0.4c0.4,0,0.7,0.1,0.9,0.4
			c0.2,0.3,0.4,0.6,0.4,0.9C107.1,6.9,107,7.2,106.7,7.5z M112,22.6c0.2,0.2,0.4,0.6,0.4,0.9c0,0.4-0.1,0.7-0.4,0.9
			c-0.2,0.2-0.6,0.4-0.9,0.4H97.9c-0.4,0-0.7-0.1-0.9-0.4c-0.2-0.2-0.4-0.6-0.4-0.9s0.1-0.7,0.4-0.9c0.2-0.2,0.6-0.4,0.9-0.4H111
			C111.4,22.3,111.7,22.4,112,22.6z"/>
	</g>
</g>
</svg>
