<?xml version="1.0" encoding="utf-8"?>
<!-- Generator: Adobe Illustrator 21.0.2, SVG Export Plug-In . SVG Version: 6.00 Build 0)  -->
<svg version="1.1" id="Layer_1" xmlns="http://www.w3.org/2000/svg" xmlns:xlink="http://www.w3.org/1999/xlink" x="0px" y="0px"
	 viewBox="0 0 234.6 119.2" style="enable-background:new 0 0 234.6 119.2;" xml:space="preserve">
<style type="text/css">
	.st0{fill:#656666;}
	.st1{fill:#D85681;}
	.st2{fill:#A7A9AC;}
	.st3{fill:#F1C2D1;}
	.st4{fill:#F2FCFC;}
	.st5{fill:#BCBEC0;}
</style>
<g>
	<g>
		<g>
			<path class="st0" d="M9.4,103.1H4.9v2.4H9v3.1H4.9v5.6H1.2V100h8.2V103.1z"/>
			<path class="st0" d="M15.2,100v14.3h-3.7V100H15.2z"/>
			<path class="st0" d="M17.6,114.2V100h3.7l6.8,8.7h0V100h3.7v14.3h-3.7l-6.8-8.7h0v8.7H17.6z"/>
			<path class="st0" d="M43,111.8h-5.1l-1,2.5H33l5.5-14.3h4l5.4,14.3h-4L43,111.8z M42,108.9l-1.5-4.5h0l-1.5,4.5H42z"/>
			<path class="st0" d="M49.1,114.2V100h3.7l6.8,8.7h0V100h3.7v14.3h-3.7l-6.8-8.7h0v8.7H49.1z"/>
			<path class="st0" d="M75.9,100.3v4.4c-0.4-0.5-0.9-0.9-1.4-1.2s-1.2-0.4-1.8-0.4c-1.1,0-2,0.4-2.7,1.1c-0.7,0.8-1.1,1.7-1.1,2.8
				c0,1.1,0.4,2.1,1.1,2.8s1.6,1.1,2.8,1.1c0.6,0,1.2-0.1,1.8-0.4c0.6-0.3,1-0.6,1.4-1.1v4.4c-1.4,0.4-2.5,0.7-3.3,0.7
				c-2,0-3.8-0.7-5.4-2.1c-1.5-1.4-2.3-3.2-2.3-5.4c0-2,0.7-3.8,2.1-5.2c0.7-0.7,1.5-1.3,2.5-1.7c1-0.4,1.9-0.6,2.9-0.6
				C73.6,99.6,74.8,99.8,75.9,100.3z"/>
			<path class="st0" d="M81.9,100v14.3h-3.7V100H81.9z"/>
			<path class="st0" d="M93.1,111.8H88l-1,2.5h-3.9l5.5-14.3h4.1l5.4,14.3h-4L93.1,111.8z M92.1,108.9l-1.5-4.5h0l-1.5,4.5H92.1z"/>
			<path class="st0" d="M102.9,100v11.1h4.4v3.1h-8.2V100H102.9z"/>
			<path class="st0" d="M115,114.2V100h5.3c2,0,3.7,0.7,5.1,2.1c1.4,1.4,2.1,3.1,2.1,5.1c0,2-0.7,3.7-2.1,5.1s-3.1,2.1-5.1,2.1H115z
				 M118.7,103.1v8h0.8c1.2,0,2.2-0.3,2.9-1c0.8-0.7,1.2-1.7,1.2-3c0-1.3-0.4-2.2-1.1-2.9c-0.7-0.7-1.7-1.1-3-1.1H118.7z"/>
			<path class="st0" d="M132.9,100v14.3h-3.7V100H132.9z"/>
			<path class="st0" d="M143.6,103.1h-4.5v2.4h4.1v3.1h-4.1v5.6h-3.7V100h8.2V103.1z"/>
			<path class="st0" d="M153.8,103.1h-4.5v2.4h4.1v3.1h-4.1v5.6h-3.7V100h8.2V103.1z"/>
			<path class="st0" d="M159.6,100v14.3h-3.7V100H159.6z"/>
			<path class="st0" d="M172.2,100.3v4.4c-0.4-0.5-0.9-0.9-1.4-1.2s-1.2-0.4-1.8-0.4c-1.1,0-2,0.4-2.7,1.1c-0.7,0.8-1.1,1.7-1.1,2.8
				c0,1.1,0.4,2.1,1.1,2.8s1.6,1.1,2.8,1.1c0.6,0,1.2-0.1,1.8-0.4c0.6-0.3,1-0.6,1.4-1.1v4.4c-1.4,0.4-2.5,0.7-3.3,0.7
				c-2,0-3.8-0.7-5.4-2.1c-1.5-1.4-2.3-3.2-2.3-5.4c0-2,0.7-3.8,2.1-5.2c0.7-0.7,1.5-1.3,2.5-1.7c1-0.4,1.9-0.6,2.9-0.6
				C169.9,99.6,171.1,99.8,172.2,100.3z"/>
			<path class="st0" d="M183.2,100h3.7v8c0,1.2-0.1,2.1-0.3,2.9s-0.6,1.5-1.2,2.1c-1.1,1.1-2.7,1.6-4.7,1.6s-3.7-0.5-4.7-1.6
				c-0.6-0.6-1-1.3-1.2-2.1c-0.2-0.8-0.3-1.8-0.3-2.9v-8h3.7v7.5c0,0.5,0,0.8,0,1.1c0,0.3,0.1,0.6,0.2,1c0.1,0.4,0.2,0.7,0.4,0.9
				c0.2,0.2,0.4,0.4,0.7,0.6s0.7,0.2,1.2,0.2c0.5,0,0.8-0.1,1.2-0.2s0.6-0.3,0.7-0.6c0.2-0.2,0.3-0.5,0.4-0.9c0.1-0.4,0.2-0.7,0.2-1
				c0-0.3,0-0.7,0-1.1V100z"/>
			<path class="st0" d="M192.9,100v11.1h4.4v3.1h-8.2V100H192.9z"/>
			<path class="st0" d="M203.2,103.1v11.1h-3.7v-11.1h-3.1V100h9.8v3.1H203.2z"/>
			<path class="st0" d="M211.4,100v14.3h-3.7V100H211.4z"/>
			<path class="st0" d="M221.9,103.1h-4.4v2.4h4.2v3.1h-4.2v2.5h4.4v3.1h-8.1V100h8.1V103.1z"/>
			<path class="st0" d="M233.5,100.8l-1.5,2.9c-0.8-0.6-1.6-0.9-2.5-0.9c-0.4,0-0.8,0.1-1.1,0.3c-0.3,0.2-0.5,0.5-0.5,0.9
				c0,0.3,0.1,0.5,0.3,0.7c0.2,0.2,0.4,0.3,0.6,0.4c0.2,0.1,0.4,0.2,0.7,0.3l0.9,0.3c1.1,0.3,2,0.8,2.6,1.4c0.6,0.6,0.9,1.4,0.9,2.5
				c0,1.7-0.5,3-1.5,3.8c-1.1,0.9-2.4,1.3-4,1.3c-1.8,0-3.5-0.5-5-1.6l1.6-3c1.1,1,2.2,1.5,3.3,1.5c0.5,0,0.9-0.1,1.3-0.4
				c0.4-0.2,0.5-0.6,0.5-1.1c0-0.6-0.6-1.1-1.8-1.5c0,0-0.2-0.1-0.5-0.1c-0.7-0.2-1.2-0.4-1.6-0.5c-0.4-0.2-0.8-0.4-1.2-0.7
				c-0.4-0.3-0.7-0.7-0.8-1.1c-0.2-0.5-0.2-1-0.2-1.7c0-1.4,0.5-2.6,1.4-3.5c0.9-0.9,2.1-1.3,3.5-1.3c0.7,0,1.5,0.1,2.3,0.3
				S232.9,100.4,233.5,100.8z"/>
		</g>
	</g>
	<g>
		<path class="st3" d="M165.5,6.4c-0.3-0.6-0.6-1-0.7-1.3c-0.1-0.3-0.3-0.4-0.3-0.4l0,0c-0.1-0.1-0.4-0.1-0.6,0s-0.1,0.4,0,0.6
			c0,0,0.1,0.1,0.3,0.3c0.1,0.1,0.4,0.6,0.6,1s0.1,1.1,0,1.7c-0.1,0.7-0.4,1.4-1.1,2c-0.3,0.3-0.6,0.4-1,0.6
			c-0.1-0.6-0.3-1.3-0.4-1.8c-0.1-0.3-0.1-0.3-0.1-0.4c-0.1-0.1-0.1-0.4-0.3-0.6c-0.1-0.3-0.4-0.6-0.6-0.9c-0.4-0.6-1-1-1.6-1.4
			c-0.6-0.4-1.3-0.9-2.3-0.6c-0.1,0-0.3,0-0.3,0.1h-0.1h-0.1l0,0c-0.1,0.1,0,0-0.1,0l0,0c-0.1,0.1-0.3,0.1-0.4,0.4
			c-0.3,0.4-0.3,0.9-0.4,1.3c0,0.7,0.1,1.4,0.4,2.1c0.3,0.6,0.7,1.1,1.3,1.6c1,0.9,2.3,1.3,3.6,1.4c0.1,0,0.1,0,0.1,0
			c0,0.3,0,0.4,0,0.7c0,0.6-0.1,1-0.4,1.4c-0.1,0.4-0.6,0.7-0.9,1l-0.3,0.1c-0.1,0-0.1,0.1-0.3,0.1l-0.4,0.1l0,0l0,0l0,0h-0.1
			c-0.1,0-0.4,0.1-0.6,0.1s-0.1,0-0.3,0c-1.4-2.8-3.4-5.4-5.7-7.5c-2.8-2.8-6.5-5.1-11-6.5c-0.1,0-0.3,0-0.3-0.1
			c-3.3-1-7.1-1.6-11.4-1.6c-25.3,0.4-38,14.1-38,14.1s-0.6-1.3-4-4c-3.4-2.7-6.8-3.4-6.8-3.4l2.3,14.5c0,0-2,9.7-6.8,13.7
			c-3,2.4-7.3,3.7-7.3,3.7l6.4,12.4c6.8,1.8,13.8,3.3,20.3,4.3l9.1,14.1h7.7v-12c7.3,0.7,13.2,0.9,16.6,1v11.1h8.3
			c0,0,12.9-13.2,19.9-25.6c0,0,0,0,0-0.1c2.4-4.1,3.7-9,3.7-14.1c0-4.3-1-8.3-2.6-12c0.1,0,0.4-0.1,0.6-0.1h0.3l0,0l0,0l0,0l0,0
			h0.1l0.4-0.1c0.1,0,0.3-0.1,0.4-0.3l0.4-0.3c0.6-0.4,1-1,1.3-1.6c0.3-0.6,0.4-1.3,0.6-2c0-0.4,0-0.7,0-1.1l0,0
			c0.6-0.1,1-0.4,1.4-0.9c0.9-0.7,1.3-1.7,1.4-2.6C165.8,7.8,165.6,7,165.5,6.4z M160.9,11.1c-1,0-2-0.4-2.7-1.1
			c-0.7-0.7-1.3-1.8-1.3-2.8c0-0.1,0-0.3,0-0.3c0.1-0.1,0.1-0.1,0.1-0.1l0.1-0.1l0,0l0,0h0.1c0.3,0,0.9,0.1,1.3,0.4
			c0.9,0.7,1.7,1.7,2,2.7C160.9,10,161.1,10.5,160.9,11.1C161.1,11.1,161.1,11.1,160.9,11.1z M132.6,4.6c-1.3-0.1-2.6-0.1-3.7-0.1
			c-5.4,0-10.2,0.9-10.2,0.9h-0.1c-0.4,0-0.7-0.3-0.9-0.7s0.1-0.9,0.7-1c0.1,0,5.1-1,10.5-1c1.1,0,2.4,0,3.8,0.1
			c0.4,0,0.7,0.4,0.7,0.9C133.5,4.3,133,4.7,132.6,4.6z"/>
		<g>
			<g>
				<path class="st4" d="M113.4,29.6l9.8-9.8l-6-6.1c-1.6-1.6-4.1-1.6-5.5,0l-4.3,4.3c-1.6,1.6-1.6,4.1,0,5.5L113.4,29.6z"/>
				<path class="st4" d="M135.6,31.9l-9.8,9.8l6,6c1.6,1.6,4.1,1.6,5.5,0l4.3-4.3c1.6-1.6,1.6-4.1,0-5.5L135.6,31.9z"/>
			</g>
			<path class="st4" d="M141.6,17.9l-4.3-4.3c-1.6-1.6-4.1-1.6-5.5,0L107.4,38c-1.6,1.6-1.6,4.1,0,5.5l4.3,4.3
				c1.6,1.6,4.1,1.6,5.5,0l24.3-24.3C143.1,22.1,143.1,19.5,141.6,17.9z M118.4,31.4c-0.4-0.4-0.4-1.1,0-1.6c0.4-0.4,1.1-0.4,1.6,0
				c0.4,0.4,0.4,1.1,0,1.6S118.8,31.9,118.4,31.4z M121.1,28.9c-0.4-0.4-0.4-1.1,0-1.6c0.4-0.4,1.1-0.4,1.6,0c0.4,0.4,0.4,1.1,0,1.6
				C122.2,29.2,121.5,29.2,121.1,28.9z M123.8,26.2c-0.4-0.4-0.4-1.1,0-1.6c0.4-0.4,1.1-0.4,1.6,0c0.4,0.4,0.4,1.1,0,1.6
				C124.8,26.6,124.2,26.6,123.8,26.2z M121.1,34.2c-0.4-0.4-0.4-1.1,0-1.6c0.4-0.4,1.1-0.4,1.6,0c0.4,0.4,0.4,1.1,0,1.6
				C122.2,34.6,121.5,34.6,121.1,34.2z M123.8,31.4c-0.4-0.4-0.4-1.1,0-1.6c0.4-0.4,1.1-0.4,1.6,0c0.4,0.4,0.4,1.1,0,1.6
				C124.8,31.9,124.2,31.9,123.8,31.4z M126.3,28.9c-0.4-0.4-0.4-1.1,0-1.6c0.4-0.4,1.1-0.4,1.6,0c0.4,0.4,0.4,1.1,0,1.6
				C127.5,29.2,126.8,29.2,126.3,28.9z M123.8,36.9c-0.4-0.4-0.4-1.1,0-1.6c0.4-0.4,1.1-0.4,1.6,0s0.4,1.1,0,1.6
				C124.8,37.3,124.2,37.3,123.8,36.9z M126.3,34.2c-0.4-0.4-0.4-1.1,0-1.6c0.4-0.4,1.1-0.4,1.6,0c0.4,0.4,0.4,1.1,0,1.6
				C127.5,34.6,126.8,34.6,126.3,34.2z M129.1,31.4c-0.4-0.4-0.4-1.1,0-1.6c0.4-0.4,1.1-0.4,1.6,0c0.4,0.4,0.4,1.1,0,1.6
				C130.2,31.9,129.5,31.9,129.1,31.4z"/>
		</g>
	</g>
</g>
</svg>
