<?xml version="1.0" encoding="utf-8"?>
<!-- Generator: Adobe Illustrator 21.0.2, SVG Export Plug-In . SVG Version: 6.00 Build 0)  -->
<svg version="1.1" id="Layer_1" xmlns="http://www.w3.org/2000/svg" xmlns:xlink="http://www.w3.org/1999/xlink" x="0px" y="0px"
	 viewBox="0 0 302.6 52.6" style="enable-background:new 0 0 302.6 52.6;" xml:space="preserve">
<style type="text/css">
	.st0{fill:#656666;}
	.st1{fill:#D85681;}
	.st2{fill:#A7A9AC;}
	.st3{fill:#F1C2D1;}
	.st4{fill:#F2FCFC;}
	.st5{fill:#BCBEC0;}
	.st6{fill:#FFFFFF;}
</style>
<g>
	<g>
		<g>
			<path class="st0" d="M82.4,30.6L78,19.9h2.4l3.5,8.4l6.1-8.4h2.4l-7.9,10.8l-1.3,8.1h-2.1L82.4,30.6z"/>
			<path class="st0" d="M98.7,37.2c-1.4,1.2-2.9,1.8-4.7,1.8S91,38.4,90,37.2c-1-1.2-1.4-2.7-1.1-4.4c0.3-1.7,1.1-3.2,2.5-4.4
				c1.4-1.2,2.9-1.8,4.7-1.8c1.7,0,3.1,0.6,4.1,1.8c1,1.2,1.4,2.7,1.1,4.4C101,34.6,100.1,36,98.7,37.2z M98.6,29.7
				c-0.7-0.8-1.6-1.3-2.8-1.3s-2.3,0.4-3.2,1.3c-0.9,0.8-1.5,1.9-1.7,3.1c-0.2,1.2,0.1,2.2,0.7,3.1c0.7,0.8,1.6,1.3,2.8,1.3
				s2.3-0.4,3.2-1.3s1.5-1.9,1.7-3.1C99.4,31.6,99.2,30.6,98.6,29.7z"/>
			<path class="st0" d="M106.8,27l-1,6.5c-0.1,0.5-0.1,0.8-0.1,1.2c0,0.3,0,0.6,0,1c0,0.3,0.1,0.6,0.3,0.8c0.1,0.2,0.4,0.4,0.7,0.5
				c0.3,0.1,0.7,0.2,1.2,0.2c0.6,0,1.1-0.1,1.5-0.3c0.4-0.2,0.7-0.5,0.9-0.8c0.2-0.4,0.4-0.8,0.5-1.1s0.2-0.9,0.3-1.4l1-6.5h2
				l-1,6.8c-0.6,3.5-2.4,5.3-5.5,5.3c-3.1,0-4.4-1.8-3.8-5.3l1.1-6.8H106.8z"/>
			<path class="st0" d="M119.6,27l-0.2,1.3h0c0.5-0.5,1-1,1.4-1.2c0.4-0.3,0.9-0.4,1.5-0.4c0.5,0,1.1,0.2,1.7,0.6l-1.3,1.8
				c0,0-0.1-0.1-0.2-0.1c-0.1-0.1-0.1-0.1-0.2-0.1c0,0-0.1-0.1-0.2-0.1c-0.1,0-0.1-0.1-0.2-0.1s-0.1,0-0.2-0.1c-0.1,0-0.2,0-0.2,0
				c-0.4,0-0.8,0.1-1.1,0.3c-0.3,0.2-0.6,0.5-0.8,0.8c-0.2,0.3-0.4,0.6-0.5,1.1s-0.3,0.8-0.3,1.1c-0.1,0.3-0.1,0.7-0.2,1l-0.9,5.9
				h-2l1.9-11.8H119.6z"/>
			<path class="st0" d="M149.1,21.4l-0.4,2.6c-0.6-0.8-1.4-1.4-2.3-1.8c-0.9-0.4-1.9-0.7-3-0.7c-1.4,0-2.7,0.4-4,1.1
				s-2.4,1.7-3.2,2.9c-0.9,1.2-1.4,2.5-1.6,3.8c-0.2,1.4-0.1,2.7,0.4,3.8c0.5,1.2,1.3,2.2,2.3,2.9c1.1,0.7,2.3,1.1,3.7,1.1
				c1,0,2.1-0.2,3.2-0.7c1.1-0.5,2-1.1,2.9-1.8l-0.4,2.6c-1.9,1.2-3.9,1.8-5.9,1.8c-1.8,0-3.3-0.4-4.7-1.3s-2.4-2-3-3.5
				c-0.7-1.5-0.8-3.1-0.6-4.9c0.3-1.8,1-3.4,2.1-4.9c1.1-1.5,2.5-2.7,4.2-3.6s3.4-1.3,5.1-1.3C145.8,19.5,147.6,20.1,149.1,21.4z"/>
			<path class="st0" d="M159.6,37.2c-1.4,1.2-2.9,1.8-4.7,1.8s-3.1-0.6-4.1-1.8c-1-1.2-1.4-2.7-1.1-4.4c0.3-1.7,1.1-3.2,2.5-4.4
				c1.4-1.2,2.9-1.8,4.7-1.8c1.7,0,3.1,0.6,4.1,1.8c1,1.2,1.4,2.7,1.1,4.4C161.8,34.6,161,36,159.6,37.2z M159.4,29.7
				c-0.7-0.8-1.6-1.3-2.8-1.3s-2.3,0.4-3.2,1.3c-0.9,0.8-1.5,1.9-1.7,3.1c-0.2,1.2,0.1,2.2,0.7,3.1c0.7,0.8,1.6,1.3,2.8,1.3
				s2.3-0.4,3.2-1.3s1.5-1.9,1.7-3.1C160.3,31.6,160.1,30.6,159.4,29.7z"/>
			<path class="st0" d="M167.8,27l-0.2,1.3h0c0.9-1.1,1.9-1.6,3.1-1.6c0.7,0,1.3,0.2,1.8,0.5c0.5,0.3,0.9,0.8,1.1,1.4
				c0.4-0.6,1-1.1,1.7-1.5c0.7-0.3,1.4-0.5,2.2-0.5c2.5,0,3.5,1.6,3,4.9l-1.1,7.1h-2l1.1-6.8c0-0.3,0.1-0.6,0.1-0.8
				c0-0.2,0-0.5,0-0.8c0-0.3,0-0.5-0.1-0.7s-0.2-0.4-0.3-0.6c-0.1-0.2-0.3-0.3-0.5-0.4s-0.5-0.1-0.9-0.1c-0.4,0-0.8,0.1-1.2,0.3
				c-0.4,0.2-0.6,0.4-0.9,0.6c-0.2,0.3-0.4,0.6-0.6,0.9s-0.3,0.7-0.4,1.1c-0.1,0.3-0.2,0.7-0.2,1.1l-1,6.2h-2l1-6.7
				c0.1-0.5,0.1-0.8,0.1-1.2s0-0.7-0.1-1.1c-0.1-0.4-0.2-0.7-0.5-0.9c-0.3-0.2-0.6-0.3-1.1-0.3s-0.9,0.1-1.2,0.3
				c-0.4,0.2-0.6,0.4-0.9,0.7c-0.2,0.3-0.4,0.6-0.6,1c-0.2,0.4-0.3,0.8-0.4,1.1c-0.1,0.3-0.2,0.7-0.2,1.1l-1,6.1h-2l1.9-11.8H167.8z
				"/>
			<path class="st0" d="M186.9,27l-0.3,1.7h0c1.2-1.3,2.7-2,4.4-2c1.1,0,2,0.3,2.8,0.9c0.8,0.6,1.3,1.4,1.6,2.3s0.4,1.9,0.2,3
				c-0.3,1.7-1,3.2-2.2,4.4c-1.2,1.2-2.7,1.8-4.4,1.8c-0.8,0-1.5-0.2-2.2-0.5c-0.7-0.3-1.2-0.8-1.5-1.5h-0.1l-1.3,8.3h-2l2.9-18.4
				H186.9z M190.4,28.5c-1.1,0-2.1,0.4-3,1.3s-1.4,1.8-1.5,3c-0.2,1.2,0,2.3,0.5,3.2c0.6,0.9,1.4,1.3,2.6,1.3c1.2,0,2.3-0.4,3.1-1.3
				s1.3-1.9,1.5-3.2c0.2-1.2,0-2.2-0.6-3C192.5,28.9,191.6,28.5,190.4,28.5z"/>
			<path class="st0" d="M202.8,18.1l-3.3,20.6h-2l3.3-20.6H202.8z"/>
			<path class="st0" d="M214.3,33.3h-9.2c-0.2,1.1,0,2,0.6,2.8c0.6,0.8,1.5,1.1,2.6,1.1c1.5,0,2.8-0.8,4-2.4l1.5,1
				c-0.7,1-1.6,1.9-2.6,2.4c-1,0.6-2.1,0.9-3.3,0.9c-1.7,0-3-0.6-3.9-1.7s-1.2-2.6-0.9-4.3c0.3-1.8,1-3.3,2.3-4.5
				c1.2-1.2,2.7-1.8,4.5-1.8c0.9,0,1.7,0.2,2.4,0.5s1.2,0.8,1.6,1.5c0.4,0.6,0.6,1.3,0.7,2.1C214.6,31.6,214.5,32.4,214.3,33.3z
				 M205.4,31.6h7c0-0.9-0.3-1.6-0.8-2.2s-1.3-0.9-2.1-0.9s-1.7,0.3-2.5,0.9C206.2,30,205.7,30.7,205.4,31.6z"/>
			<path class="st0" d="M219.9,28.8l-1.6,9.9h-2l1.6-9.9h-1.2l0.3-1.9h1.2l0.7-4.2h2l-0.7,4.2h2.1l-0.3,1.9H219.9z"/>
			<path class="st0" d="M233.3,33.3h-9.2c-0.2,1.1,0,2,0.6,2.8c0.6,0.8,1.5,1.1,2.6,1.1c1.5,0,2.8-0.8,4-2.4l1.5,1
				c-0.7,1-1.6,1.9-2.6,2.4c-1,0.6-2.1,0.9-3.3,0.9c-1.7,0-3-0.6-3.9-1.7s-1.2-2.6-0.9-4.3c0.3-1.8,1-3.3,2.3-4.5
				c1.2-1.2,2.7-1.8,4.5-1.8c0.9,0,1.7,0.2,2.4,0.5s1.2,0.8,1.6,1.5c0.4,0.6,0.6,1.3,0.7,2.1C233.5,31.6,233.5,32.4,233.3,33.3z
				 M224.4,31.6h7c0-0.9-0.3-1.6-0.8-2.2s-1.3-0.9-2.1-0.9s-1.7,0.3-2.5,0.9C225.2,30,224.7,30.7,224.4,31.6z"/>
			<path class="st0" d="M243.9,38.7l0.3-1.6h0c-1.2,1.3-2.7,2-4.4,2c-1.1,0-2.1-0.3-2.8-0.9c-0.8-0.6-1.3-1.3-1.6-2.3
				c-0.3-0.9-0.4-1.9-0.2-3c0.3-1.7,1-3.2,2.3-4.4c1.2-1.2,2.7-1.8,4.4-1.8c0.8,0,1.5,0.2,2.2,0.5c0.6,0.3,1.2,0.8,1.5,1.5h0
				l1.7-10.5h2l-3.3,20.6H243.9z M241.7,28.5c-1.1,0-2.1,0.4-3,1.3c-0.8,0.8-1.4,1.8-1.5,3c-0.2,1.2,0,2.3,0.5,3.2s1.4,1.3,2.6,1.3
				c1.2,0,2.3-0.4,3.1-1.3c0.8-0.9,1.3-1.9,1.5-3.2c0.2-1.2,0-2.2-0.6-3C243.8,28.9,242.9,28.5,241.7,28.5z"/>
			<path class="st0" d="M270.1,22.5l-1.9,1.1c-0.3-0.7-0.6-1.2-1.1-1.5s-1.1-0.5-1.8-0.5c-0.8,0-1.6,0.3-2.3,0.8
				c-0.7,0.5-1.1,1.3-1.3,2.1c0,0.3,0,0.6,0.1,0.9c0.1,0.3,0.2,0.5,0.3,0.7c0.1,0.2,0.3,0.4,0.6,0.6c0.3,0.2,0.5,0.3,0.7,0.4
				s0.4,0.2,0.8,0.4l1.1,0.5c0.7,0.3,1.2,0.6,1.6,0.9c0.4,0.3,0.8,0.6,1.2,1c0.4,0.4,0.7,0.9,0.8,1.5c0.1,0.6,0.2,1.2,0,1.9
				c-0.3,1.6-1.1,3-2.4,4.1s-2.8,1.7-4.5,1.7c-1.5,0-2.7-0.4-3.6-1.3c-0.9-0.9-1.4-2.1-1.5-3.5l2.1-0.6c0,1,0.3,1.8,0.9,2.5
				c0.6,0.7,1.4,1,2.4,1c1,0,2-0.4,2.9-1.1c0.9-0.7,1.4-1.6,1.6-2.6c0.1-0.4,0.1-0.8,0-1.2c-0.1-0.4-0.2-0.6-0.3-0.9
				c-0.1-0.2-0.4-0.4-0.7-0.7s-0.6-0.4-0.8-0.5c-0.2-0.1-0.5-0.3-1-0.5l-1-0.5c-0.6-0.3-1.1-0.6-1.5-0.8c-0.4-0.3-0.8-0.6-1.1-1
				c-0.4-0.4-0.6-0.8-0.7-1.3c-0.1-0.5-0.1-1.1,0-1.7c0.2-1.4,0.9-2.6,2.1-3.5s2.5-1.3,3.9-1.3c1.1,0,2,0.3,2.7,0.8
				C269.2,20.8,269.7,21.5,270.1,22.5z"/>
			<path class="st0" d="M283.8,27L282,38.7h-2l0.3-1.6h0c-1.2,1.3-2.7,2-4.4,2c-1.1,0-2.1-0.3-2.8-0.9c-0.8-0.6-1.3-1.3-1.6-2.3
				c-0.3-0.9-0.4-1.9-0.2-3c0.3-1.7,1-3.2,2.3-4.4c1.2-1.2,2.7-1.8,4.4-1.8c0.8,0,1.5,0.2,2.1,0.5s1.2,0.8,1.6,1.5h0l0.3-1.7H283.8z
				 M277.8,28.5c-1.1,0-2.1,0.4-3,1.3c-0.8,0.8-1.4,1.8-1.5,3c-0.2,1.2,0,2.3,0.5,3.2s1.4,1.3,2.6,1.3c1.2,0,2.3-0.4,3.1-1.3
				c0.8-0.9,1.3-1.9,1.5-3.2c0.2-1.2,0-2.2-0.6-3C279.9,28.9,279,28.5,277.8,28.5z"/>
			<path class="st0" d="M290.9,18.1l-3.3,20.6h-2l3.3-20.6H290.9z"/>
			<path class="st0" d="M302.5,33.3h-9.2c-0.2,1.1,0.1,2,0.7,2.8s1.5,1.1,2.6,1.1c1.5,0,2.8-0.8,4-2.4l1.5,1c-0.7,1-1.6,1.9-2.6,2.4
				S297.2,39,296,39c-1.7,0-3-0.6-3.9-1.7s-1.2-2.6-0.9-4.3c0.3-1.8,1-3.3,2.3-4.5c1.2-1.2,2.7-1.8,4.5-1.8c0.9,0,1.7,0.2,2.4,0.5
				s1.2,0.8,1.6,1.5c0.3,0.6,0.6,1.3,0.7,2.1C302.7,31.6,302.7,32.4,302.5,33.3z M293.6,31.6h7c0-0.9-0.3-1.6-0.8-2.2
				c-0.6-0.6-1.3-0.9-2.1-0.9s-1.7,0.3-2.5,0.9C294.4,30,293.9,30.7,293.6,31.6z"/>
		</g>
	</g>
	<circle class="st1" cx="26.3" cy="26.3" r="26.3"/>
	<g>
		<path class="st6" d="M37.6,35.5H34v6.2h-6.2v-6.2H15v-4.4l13.1-19.4H34v18.8h3.6V35.5z M27.8,30.6v-5.1c0-0.8,0-2.1,0.1-3.7
			s0.1-2.5,0.2-2.8h-0.2c-0.5,1.1-1.1,2.2-1.8,3.3l-5.5,8.3H27.8z"/>
	</g>
</g>
</svg>
