<?xml version="1.0" encoding="utf-8"?>
<!-- Generator: Adobe Illustrator 21.0.2, SVG Export Plug-In . SVG Version: 6.00 Build 0)  -->
<svg version="1.1" id="Layer_1" xmlns="http://www.w3.org/2000/svg" xmlns:xlink="http://www.w3.org/1999/xlink" x="0px" y="0px"
	 viewBox="0 0 221.7 52.6" style="enable-background:new 0 0 221.7 52.6;" xml:space="preserve">
<style type="text/css">
	.st0{fill:#656666;}
	.st1{fill:#D85681;}
	.st2{fill:#A7A9AC;}
	.st3{fill:#F1C2D1;}
	.st4{fill:#F2FCFC;}
	.st5{fill:#BCBEC0;}
	.st6{fill:#FFFFFF;}
</style>
<g>
	<g>
		<g>
			<path class="st0" d="M82.4,32.5L78,21.8h2.4l3.5,8.4l6.1-8.4h2.4l-7.9,10.8l-1.3,8.1h-2.1L82.4,32.5z"/>
			<path class="st0" d="M98.7,39.1c-1.4,1.2-2.9,1.8-4.7,1.8S91,40.3,90,39.1c-1-1.2-1.4-2.7-1.1-4.4c0.3-1.7,1.1-3.2,2.5-4.4
				c1.4-1.2,2.9-1.8,4.7-1.8c1.7,0,3.1,0.6,4.1,1.8c1,1.2,1.4,2.7,1.1,4.4C101,36.5,100.1,37.9,98.7,39.1z M98.6,31.7
				c-0.7-0.8-1.6-1.3-2.8-1.3s-2.3,0.4-3.2,1.3c-0.9,0.8-1.5,1.9-1.7,3.1c-0.2,1.2,0.1,2.2,0.7,3.1c0.7,0.8,1.6,1.3,2.8,1.3
				s2.3-0.4,3.2-1.3s1.5-1.9,1.7-3.1C99.4,33.5,99.2,32.5,98.6,31.7z"/>
			<path class="st0" d="M106.8,28.9l-1,6.5c-0.1,0.5-0.1,0.8-0.1,1.2c0,0.3,0,0.6,0,1c0,0.3,0.1,0.6,0.3,0.8
				c0.1,0.2,0.4,0.4,0.7,0.5c0.3,0.1,0.7,0.2,1.2,0.2c0.6,0,1.1-0.1,1.5-0.3c0.4-0.2,0.7-0.5,0.9-0.8c0.2-0.4,0.4-0.8,0.5-1.1
				s0.2-0.9,0.3-1.4l1-6.5h2l-1,6.8c-0.6,3.5-2.4,5.3-5.5,5.3c-3.1,0-4.4-1.8-3.8-5.3l1.1-6.8H106.8z"/>
			<path class="st0" d="M119.6,28.9l-0.2,1.3h0c0.5-0.5,1-1,1.4-1.2c0.4-0.3,0.9-0.4,1.5-0.4c0.5,0,1.1,0.2,1.7,0.6l-1.3,1.8
				c0,0-0.1-0.1-0.2-0.1c-0.1-0.1-0.1-0.1-0.2-0.1c0,0-0.1-0.1-0.2-0.1c-0.1,0-0.1-0.1-0.2-0.1s-0.1,0-0.2-0.1c-0.1,0-0.2,0-0.2,0
				c-0.4,0-0.8,0.1-1.1,0.3c-0.3,0.2-0.6,0.5-0.8,0.8c-0.2,0.3-0.4,0.6-0.5,1.1s-0.3,0.8-0.3,1.1s-0.1,0.7-0.2,1l-0.9,5.9h-2
				l1.9-11.8H119.6z"/>
			<path class="st0" d="M135.3,32.4l-1.3,8.3h-2.1l3-18.8h3.1c0.7,0,1.2,0,1.7,0s0.9,0.1,1.5,0.3c0.5,0.1,1,0.4,1.4,0.7
				c0.6,0.5,1,1.1,1.3,1.9c0.2,0.8,0.3,1.6,0.2,2.4c-0.1,0.8-0.4,1.5-0.8,2.3s-1,1.3-1.6,1.8c-1.1,0.8-2.7,1.3-4.7,1.3H135.3z
				 M136.7,23.7l-1,6.7h1.4c2.9,0,4.5-1.1,4.8-3.4c0.1-0.6,0.1-1.1,0-1.5c-0.1-0.4-0.3-0.7-0.6-1c-0.2-0.2-0.6-0.4-1-0.5
				c-0.5-0.1-0.9-0.2-1.3-0.2s-0.9,0-1.5,0H136.7z"/>
			<path class="st0" d="M148.3,28.9l-0.2,1.3h0c0.5-0.5,1-1,1.4-1.2c0.4-0.3,0.9-0.4,1.5-0.4c0.5,0,1.1,0.2,1.7,0.6l-1.3,1.8
				c0,0-0.1-0.1-0.2-0.1c-0.1-0.1-0.1-0.1-0.2-0.1c0,0-0.1-0.1-0.2-0.1c-0.1,0-0.1-0.1-0.2-0.1s-0.1,0-0.2-0.1c-0.1,0-0.2,0-0.2,0
				c-0.4,0-0.8,0.1-1.1,0.3c-0.3,0.2-0.6,0.5-0.8,0.8c-0.2,0.3-0.4,0.6-0.5,1.1s-0.3,0.8-0.3,1.1s-0.1,0.7-0.2,1l-0.9,5.9h-2
				l1.9-11.8H148.3z"/>
			<path class="st0" d="M162.6,39.1c-1.4,1.2-2.9,1.8-4.7,1.8s-3.1-0.6-4.1-1.8c-1-1.2-1.4-2.7-1.1-4.4c0.3-1.7,1.1-3.2,2.5-4.4
				c1.4-1.2,2.9-1.8,4.7-1.8c1.7,0,3.1,0.6,4.1,1.8c1,1.2,1.4,2.7,1.1,4.4C164.8,36.5,164,37.9,162.6,39.1z M162.4,31.7
				c-0.7-0.8-1.6-1.3-2.8-1.3s-2.3,0.4-3.2,1.3c-0.9,0.8-1.5,1.9-1.7,3.1c-0.2,1.2,0.1,2.2,0.7,3.1c0.7,0.8,1.6,1.3,2.8,1.3
				s2.3-0.4,3.2-1.3s1.5-1.9,1.7-3.1C163.3,33.5,163.1,32.5,162.4,31.7z"/>
			<path class="st0" d="M170.7,28.9l-0.3,1.7h0c1.2-1.3,2.7-2,4.4-2c1.1,0,2,0.3,2.8,0.9c0.8,0.6,1.3,1.4,1.6,2.3s0.4,1.9,0.2,3
				c-0.3,1.7-1,3.2-2.2,4.4c-1.2,1.2-2.7,1.8-4.4,1.8c-0.8,0-1.5-0.2-2.2-0.5c-0.7-0.3-1.2-0.8-1.5-1.5h-0.1l-1.3,8.3h-2l2.9-18.4
				H170.7z M174.2,30.4c-1.1,0-2.1,0.4-3,1.3s-1.4,1.8-1.5,3c-0.2,1.2,0,2.3,0.5,3.2c0.6,0.9,1.4,1.3,2.6,1.3c1.2,0,2.3-0.4,3.1-1.3
				s1.3-1.9,1.5-3.2c0.2-1.2,0-2.2-0.6-3C176.3,30.8,175.4,30.4,174.2,30.4z"/>
			<path class="st0" d="M192.5,35.2h-9.2c-0.2,1.1,0,2,0.6,2.8c0.6,0.8,1.5,1.1,2.6,1.1c1.5,0,2.8-0.8,4-2.4l1.5,1
				c-0.7,1-1.6,1.9-2.6,2.4c-1,0.6-2.1,0.9-3.3,0.9c-1.7,0-3-0.6-3.9-1.7s-1.2-2.6-0.9-4.3c0.3-1.8,1-3.3,2.3-4.5
				c1.2-1.2,2.7-1.8,4.5-1.8c0.9,0,1.7,0.2,2.4,0.5s1.2,0.8,1.6,1.5c0.4,0.6,0.6,1.3,0.7,2.1C192.7,33.5,192.7,34.3,192.5,35.2z
				 M183.6,33.5h7c0-0.9-0.3-1.6-0.8-2.2s-1.3-0.9-2.1-0.9s-1.7,0.3-2.5,0.9C184.4,31.9,183.9,32.6,183.6,33.5z"/>
			<path class="st0" d="M198.1,28.9l-0.2,1.3h0c0.5-0.5,1-1,1.4-1.2c0.4-0.3,0.9-0.4,1.5-0.4c0.5,0,1.1,0.2,1.7,0.6l-1.3,1.8
				c0,0-0.1-0.1-0.2-0.1c-0.1-0.1-0.1-0.1-0.2-0.1c0,0-0.1-0.1-0.2-0.1c-0.1,0-0.1-0.1-0.2-0.1c0,0-0.1,0-0.2-0.1
				c-0.1,0-0.2,0-0.2,0c-0.4,0-0.8,0.1-1.1,0.3s-0.6,0.5-0.8,0.8s-0.4,0.6-0.5,1.1c-0.2,0.5-0.3,0.8-0.3,1.1s-0.1,0.7-0.2,1
				l-0.9,5.9h-2l1.8-11.8H198.1z"/>
			<path class="st0" d="M206.9,30.7l-1.6,9.9h-2l1.6-9.9h-1.2l0.3-1.9h1.2l0.7-4.2h2l-0.7,4.2h2.1l-0.3,1.9H206.9z"/>
			<path class="st0" d="M212.8,39.5l-3.7-10.7h2.3l2.8,8.4l5.1-8.4h2.3l-11.6,18.4h-2.3L212.8,39.5z"/>
		</g>
	</g>
	<circle class="st1" cx="26.3" cy="26.3" r="26.3"/>
	<g>
		<path class="st6" d="M36.4,40.6H16.3v-4.2l7.2-7.3c2.1-2.2,3.5-3.7,4.2-4.6c0.7-0.8,1.1-1.6,1.4-2.4c0.3-0.7,0.4-1.5,0.4-2.2
			c0-1.2-0.3-2-1-2.6c-0.6-0.6-1.5-0.8-2.6-0.8c-1.1,0-2.2,0.3-3.3,0.8c-1.1,0.5-2.1,1.2-3.3,2.2l-3.3-3.9c1.4-1.2,2.6-2.1,3.5-2.6
			c0.9-0.5,2-0.9,3.1-1.2c1.1-0.3,2.3-0.4,3.7-0.4c1.8,0,3.4,0.3,4.8,1c1.4,0.7,2.5,1.6,3.2,2.8c0.8,1.2,1.1,2.5,1.1,4.1
			c0,1.3-0.2,2.6-0.7,3.7c-0.5,1.2-1.2,2.4-2.2,3.6c-1,1.2-2.7,3-5.2,5.2l-3.7,3.5v0.3h12.6V40.6z"/>
	</g>
</g>
</svg>
