<?xml version="1.0" encoding="utf-8"?>
<!-- Generator: Adobe Illustrator 21.0.2, SVG Export Plug-In . SVG Version: 6.00 Build 0)  -->
<svg version="1.1" id="Layer_1" xmlns="http://www.w3.org/2000/svg" xmlns:xlink="http://www.w3.org/1999/xlink" x="0px" y="0px"
	 viewBox="0 0 188.3 52.6" style="enable-background:new 0 0 188.3 52.6;" xml:space="preserve">
<style type="text/css">
	.st0{fill:#656666;}
	.st1{fill:#D85681;}
	.st2{fill:#A7A9AC;}
	.st3{fill:#F1C2D1;}
	.st4{fill:#F2FCFC;}
	.st5{fill:#BCBEC0;}
	.st6{fill:#FFFFFF;}
</style>
<g>
	<g>
		<g>
			<path class="st0" d="M82.4,32.7L78,22h2.4l3.5,8.4L90,22h2.4l-7.9,10.8l-1.3,8.1h-2.1L82.4,32.7z"/>
			<path class="st0" d="M98.7,39.4c-1.4,1.2-2.9,1.8-4.7,1.8S91,40.6,90,39.4c-1-1.2-1.4-2.7-1.1-4.4c0.3-1.7,1.1-3.2,2.5-4.4
				c1.4-1.2,2.9-1.8,4.7-1.8c1.7,0,3.1,0.6,4.1,1.8c1,1.2,1.4,2.7,1.1,4.4C101,36.7,100.1,38.2,98.7,39.4z M98.6,31.9
				c-0.7-0.8-1.6-1.3-2.8-1.3s-2.3,0.4-3.2,1.3c-0.9,0.8-1.5,1.9-1.7,3.1c-0.2,1.2,0.1,2.2,0.7,3.1c0.7,0.8,1.6,1.3,2.8,1.3
				s2.3-0.4,3.2-1.3s1.5-1.9,1.7-3.1C99.4,33.7,99.2,32.7,98.6,31.9z"/>
			<path class="st0" d="M106.8,29.1l-1,6.5c-0.1,0.5-0.1,0.8-0.1,1.2c0,0.3,0,0.6,0,1c0,0.3,0.1,0.6,0.3,0.8
				c0.1,0.2,0.4,0.4,0.7,0.5c0.3,0.1,0.7,0.2,1.2,0.2c0.6,0,1.1-0.1,1.5-0.3c0.4-0.2,0.7-0.5,0.9-0.8c0.2-0.4,0.4-0.8,0.5-1.1
				s0.2-0.9,0.3-1.4l1-6.5h2l-1,6.8c-0.6,3.5-2.4,5.3-5.5,5.3c-3.1,0-4.4-1.8-3.8-5.3l1.1-6.8H106.8z"/>
			<path class="st0" d="M119.6,29.1l-0.2,1.3h0c0.5-0.5,1-1,1.4-1.2c0.4-0.3,0.9-0.4,1.5-0.4c0.5,0,1.1,0.2,1.7,0.6l-1.3,1.8
				c0,0-0.1-0.1-0.2-0.1c-0.1-0.1-0.1-0.1-0.2-0.1c0,0-0.1-0.1-0.2-0.1c-0.1,0-0.1-0.1-0.2-0.1s-0.1,0-0.2-0.1c-0.1,0-0.2,0-0.2,0
				c-0.4,0-0.8,0.1-1.1,0.3c-0.3,0.2-0.6,0.5-0.8,0.8c-0.2,0.3-0.4,0.6-0.5,1.1s-0.3,0.8-0.3,1.1s-0.1,0.7-0.2,1l-0.9,5.9h-2
				l1.9-11.8H119.6z"/>
			<path class="st0" d="M138.7,23c1.6-0.9,3.4-1.3,5.1-1.3c1.8,0,3.3,0.4,4.7,1.3s2.4,2.1,3,3.6s0.8,3.1,0.6,4.9
				c-0.3,1.8-1,3.4-2.1,4.9s-2.5,2.7-4.2,3.5s-3.3,1.3-5.1,1.3s-3.3-0.4-4.7-1.3s-2.4-2-3-3.5s-0.8-3.1-0.5-4.9
				c0.3-1.8,1-3.4,2.1-4.9S137.1,23.8,138.7,23z M143.5,23.6c-2.2,0-4.1,0.8-5.8,2.3c-1.7,1.5-2.8,3.4-3.1,5.5
				c-0.2,1.4-0.1,2.7,0.4,3.9s1.3,2.1,2.4,2.8c1.1,0.7,2.3,1.1,3.7,1.1c2.1,0,4.1-0.8,5.8-2.3s2.8-3.4,3.2-5.5
				c0.2-1.4,0.1-2.7-0.4-3.9c-0.5-1.2-1.3-2.1-2.3-2.8S145,23.6,143.5,23.6z"/>
			<path class="st0" d="M157.2,30.9l-1.6,9.9h-2l1.6-9.9h-1.1l0.3-1.9h1.1l0.8-4.7c0.2-1.5,0.6-2.5,1-3c0.8-1,1.9-1.5,3.3-1.5
				c0.4,0,0.9,0.1,1.4,0.3l-0.3,2c-0.5-0.2-1-0.3-1.3-0.3c-0.3,0-0.6,0.1-0.8,0.2c-0.2,0.1-0.4,0.2-0.5,0.4
				c-0.1,0.1-0.3,0.4-0.4,0.7s-0.2,0.6-0.2,0.8c0,0.2-0.1,0.6-0.2,1.2l-0.7,4h3l-0.3,1.9H157.2z"/>
			<path class="st0" d="M164.1,30.9l-1.6,9.9h-2l1.6-9.9H161l0.3-1.9h1.1l0.8-4.7c0.2-1.5,0.6-2.5,1-3c0.8-1,1.9-1.5,3.3-1.5
				c0.4,0,0.9,0.1,1.4,0.3l-0.3,2c-0.5-0.2-1-0.3-1.3-0.3c-0.3,0-0.6,0.1-0.8,0.2c-0.2,0.1-0.4,0.2-0.5,0.4
				c-0.1,0.1-0.3,0.4-0.4,0.7s-0.2,0.6-0.2,0.8c0,0.2-0.1,0.6-0.2,1.2l-0.7,4h3l-0.3,1.9H164.1z"/>
			<path class="st0" d="M178.3,35.4h-9.2c-0.2,1.1,0.1,2,0.7,2.8s1.5,1.1,2.6,1.1c1.5,0,2.8-0.8,4-2.4l1.5,1c-0.7,1-1.6,1.9-2.6,2.4
				s-2.1,0.9-3.3,0.9c-1.7,0-3-0.6-3.9-1.7s-1.2-2.6-0.9-4.3c0.3-1.8,1-3.3,2.3-4.5c1.2-1.2,2.7-1.8,4.5-1.8c0.9,0,1.7,0.2,2.4,0.5
				s1.2,0.8,1.6,1.5c0.3,0.6,0.6,1.3,0.7,2.1C178.5,33.7,178.5,34.5,178.3,35.4z M169.4,33.7h7c0-0.9-0.3-1.6-0.8-2.2
				c-0.6-0.6-1.3-0.9-2.1-0.9s-1.7,0.3-2.5,0.9C170.2,32.1,169.7,32.8,169.4,33.7z"/>
			<path class="st0" d="M183.9,29.1l-0.2,1.3h0c0.5-0.5,1-1,1.4-1.2c0.4-0.3,0.9-0.4,1.5-0.4c0.5,0,1.1,0.2,1.7,0.6l-1.3,1.8
				c0,0-0.1-0.1-0.2-0.1c-0.1-0.1-0.1-0.1-0.2-0.1c0,0-0.1-0.1-0.2-0.1c-0.1,0-0.1-0.1-0.2-0.1s-0.1,0-0.2-0.1c-0.1,0-0.2,0-0.2,0
				c-0.4,0-0.8,0.1-1.1,0.3c-0.3,0.2-0.6,0.5-0.8,0.8c-0.2,0.3-0.4,0.6-0.5,1.1s-0.3,0.8-0.3,1.1s-0.1,0.7-0.2,1l-0.9,5.9h-2
				l1.9-11.8H183.9z"/>
		</g>
	</g>
	<circle class="st1" cx="26.3" cy="26.3" r="26.3"/>
	<g>
		<path class="st6" d="M35.4,18.2c0,1.8-0.5,3.3-1.6,4.6c-1.1,1.3-2.6,2.1-4.6,2.6v0.1c2.3,0.3,4.1,1,5.3,2.1
			c1.2,1.1,1.8,2.6,1.8,4.5c0,2.8-1,4.9-3,6.5c-2,1.5-4.9,2.3-8.6,2.3c-3.1,0-5.9-0.5-8.3-1.6v-5.2c1.1,0.6,2.3,1,3.7,1.4
			c1.3,0.4,2.7,0.5,4,0.5c2,0,3.5-0.3,4.5-1c1-0.7,1.4-1.8,1.4-3.3c0-1.4-0.6-2.3-1.7-2.9c-1.1-0.6-2.9-0.8-5.3-0.8h-2.2v-4.7H23
			c2.2,0,3.9-0.3,4.9-0.9c1-0.6,1.5-1.6,1.5-3c0-2.2-1.4-3.3-4.1-3.3c-0.9,0-1.9,0.2-2.9,0.5c-1,0.3-2.1,0.9-3.3,1.6l-2.8-4.2
			c2.6-1.9,5.8-2.8,9.4-2.8c3,0,5.3,0.6,7.1,1.8C34.6,14.4,35.4,16.1,35.4,18.2z"/>
	</g>
</g>
</svg>
