<?xml version="1.0" encoding="utf-8"?>
<!-- Generator: Adobe Illustrator 21.0.2, SVG Export Plug-In . SVG Version: 6.00 Build 0)  -->
<svg version="1.1" id="Layer_1" xmlns="http://www.w3.org/2000/svg" xmlns:xlink="http://www.w3.org/1999/xlink" x="0px" y="0px"
	 viewBox="0 0 222.9 52.6" style="enable-background:new 0 0 222.9 52.6;" xml:space="preserve">
<style type="text/css">
	.st0{fill:#656666;}
	.st1{fill:#D85681;}
	.st2{fill:#A7A9AC;}
	.st3{fill:#F1C2D1;}
	.st4{fill:#F2FCFC;}
	.st5{fill:#BCBEC0;}
	.st6{fill:#FFFFFF;}
</style>
<g>
	<g>
		<g>
			<path class="st0" d="M82.4,32.5L78,21.8h2.4l3.5,8.4l6.1-8.4h2.4l-7.9,10.8l-1.3,8.1h-2.1L82.4,32.5z"/>
			<path class="st0" d="M98.7,39.1c-1.4,1.2-2.9,1.8-4.7,1.8S91,40.3,90,39.1c-1-1.2-1.4-2.7-1.1-4.4c0.3-1.7,1.1-3.2,2.5-4.4
				c1.4-1.2,2.9-1.8,4.7-1.8c1.7,0,3.1,0.6,4.1,1.8c1,1.2,1.4,2.7,1.1,4.4C101,36.5,100.1,37.9,98.7,39.1z M98.6,31.7
				c-0.7-0.8-1.6-1.3-2.8-1.3s-2.3,0.4-3.2,1.3c-0.9,0.8-1.5,1.9-1.7,3.1c-0.2,1.2,0.1,2.2,0.7,3.1c0.7,0.8,1.6,1.3,2.8,1.3
				s2.3-0.4,3.2-1.3c0.9-0.8,1.5-1.9,1.7-3.1C99.4,33.5,99.2,32.5,98.6,31.7z"/>
			<path class="st0" d="M106.8,28.9l-1,6.5c-0.1,0.5-0.1,0.8-0.1,1.2c0,0.3,0,0.6,0,1c0,0.3,0.1,0.6,0.3,0.8
				c0.1,0.2,0.4,0.4,0.7,0.5c0.3,0.1,0.7,0.2,1.2,0.2c0.6,0,1.1-0.1,1.5-0.3c0.4-0.2,0.7-0.5,0.9-0.8c0.2-0.4,0.4-0.8,0.5-1.1
				s0.2-0.9,0.3-1.4l1-6.5h2l-1,6.8c-0.6,3.5-2.4,5.3-5.5,5.3c-3.1,0-4.4-1.8-3.8-5.3l1.1-6.8H106.8z"/>
			<path class="st0" d="M119.6,28.9l-0.2,1.3h0c0.5-0.5,1-1,1.4-1.2c0.4-0.3,0.9-0.4,1.5-0.4c0.5,0,1.1,0.2,1.7,0.5l-1.3,1.8
				c0,0-0.1-0.1-0.2-0.1c-0.1-0.1-0.1-0.1-0.2-0.1c0,0-0.1-0.1-0.2-0.1s-0.1-0.1-0.2-0.1s-0.1,0-0.2,0s-0.2,0-0.2,0
				c-0.4,0-0.8,0.1-1.1,0.3c-0.3,0.2-0.6,0.5-0.8,0.8c-0.2,0.3-0.4,0.7-0.5,1.1c-0.2,0.4-0.3,0.8-0.3,1.1c-0.1,0.3-0.1,0.6-0.2,1
				l-0.9,5.9h-2l1.9-11.8H119.6z"/>
			<path class="st0" d="M144.7,24.4l-1.9,1.1c-0.3-0.7-0.6-1.2-1.1-1.5c-0.5-0.3-1.1-0.5-1.8-0.5c-0.8,0-1.6,0.3-2.3,0.8
				s-1.1,1.3-1.3,2.1c0,0.3,0,0.6,0.1,0.9c0.1,0.3,0.2,0.5,0.3,0.7c0.1,0.2,0.3,0.4,0.6,0.6c0.3,0.2,0.5,0.3,0.7,0.4
				s0.4,0.2,0.8,0.4l1.1,0.6c0.7,0.3,1.2,0.6,1.6,0.9c0.4,0.3,0.8,0.6,1.2,1c0.4,0.4,0.7,0.9,0.8,1.5c0.1,0.6,0.2,1.2,0,1.9
				c-0.3,1.6-1.1,3-2.4,4.1s-2.8,1.7-4.5,1.7c-1.5,0-2.7-0.4-3.6-1.3c-0.9-0.9-1.4-2.1-1.5-3.5l2.1-0.6c0,1,0.3,1.8,0.9,2.5
				s1.4,1,2.4,1c1,0,2-0.4,2.9-1.1s1.4-1.6,1.6-2.6c0.1-0.4,0.1-0.8,0-1.2c-0.1-0.4-0.2-0.6-0.3-0.9c-0.1-0.2-0.4-0.5-0.7-0.7
				s-0.6-0.4-0.8-0.5c-0.2-0.1-0.5-0.3-1-0.5l-1-0.5c-0.6-0.3-1.1-0.6-1.5-0.8c-0.4-0.3-0.8-0.6-1.1-1c-0.4-0.4-0.6-0.8-0.7-1.3
				c-0.1-0.5-0.1-1.1,0-1.7c0.2-1.4,0.9-2.6,2.1-3.5s2.5-1.3,3.9-1.3c1.1,0,2,0.3,2.7,0.8C143.8,22.7,144.4,23.4,144.7,24.4z"/>
			<path class="st0" d="M150.1,28.9l-1.9,11.8h-2l1.9-11.8H150.1z M149,23.4c0.3-0.3,0.7-0.4,1.1-0.4s0.7,0.1,0.9,0.4s0.3,0.6,0.3,1
				c0,0.4-0.2,0.7-0.6,1c-0.3,0.3-0.7,0.4-1.1,0.4s-0.7-0.1-0.9-0.4c-0.2-0.3-0.3-0.6-0.3-1C148.5,24.1,148.7,23.7,149,23.4z"/>
			<path class="st0" d="M156.1,30.7l-1.6,9.9h-2l1.6-9.9h-1.2l0.3-1.8h1.2l0.7-4.2h2l-0.7,4.2h2.1l-0.3,1.8H156.1z"/>
			<path class="st0" d="M162.2,28.9l-1,6.5c-0.1,0.5-0.1,0.8-0.1,1.2c0,0.3,0,0.6,0,1s0.2,0.6,0.3,0.8c0.2,0.2,0.4,0.4,0.7,0.5
				c0.3,0.1,0.7,0.2,1.2,0.2c0.6,0,1.1-0.1,1.5-0.3c0.4-0.2,0.7-0.5,0.9-0.8c0.2-0.4,0.4-0.8,0.5-1.1s0.2-0.9,0.3-1.4l1-6.5h2
				l-1,6.8c-0.6,3.5-2.4,5.3-5.5,5.3c-3.1,0-4.4-1.8-3.8-5.3l1-6.8H162.2z"/>
			<path class="st0" d="M183.8,28.9L182,40.6h-2l0.3-1.6h0c-1.2,1.3-2.7,2-4.4,2c-1.1,0-2.1-0.3-2.8-0.9c-0.8-0.6-1.3-1.3-1.6-2.3
				c-0.3-0.9-0.4-1.9-0.2-3c0.3-1.7,1-3.2,2.3-4.4c1.2-1.2,2.7-1.8,4.4-1.8c0.8,0,1.5,0.2,2.1,0.5c0.6,0.3,1.2,0.8,1.6,1.5h0
				l0.3-1.7H183.8z M177.8,30.4c-1.1,0-2.1,0.4-3,1.3c-0.8,0.8-1.4,1.8-1.5,3c-0.2,1.2,0,2.3,0.5,3.1c0.5,0.9,1.4,1.3,2.6,1.3
				c1.2,0,2.3-0.4,3.1-1.3c0.8-0.9,1.3-1.9,1.5-3.2c0.2-1.2,0-2.2-0.6-3C179.9,30.8,179,30.4,177.8,30.4z"/>
			<path class="st0" d="M189.4,30.7l-1.6,9.9h-2l1.6-9.9h-1.2l0.3-1.8h1.2l0.7-4.2h2l-0.7,4.2h2.1l-0.3,1.8H189.4z"/>
			<path class="st0" d="M195.9,28.9l-1.8,11.8h-2l1.8-11.8H195.9z M194.8,23.4c0.3-0.3,0.7-0.4,1.1-0.4s0.7,0.1,0.9,0.4
				s0.3,0.6,0.3,1c0,0.4-0.2,0.7-0.6,1c-0.3,0.3-0.7,0.4-1.1,0.4s-0.7-0.1-0.9-0.4c-0.2-0.3-0.3-0.6-0.3-1
				C194.3,24.1,194.4,23.7,194.8,23.4z"/>
			<path class="st0" d="M208,39.1c-1.4,1.2-2.9,1.8-4.7,1.8c-1.7,0-3.1-0.6-4.1-1.8c-1-1.2-1.4-2.7-1.1-4.4c0.3-1.7,1.1-3.2,2.5-4.4
				c1.4-1.2,3-1.8,4.7-1.8c1.7,0,3.1,0.6,4.1,1.8c1,1.2,1.4,2.7,1.1,4.4C210.2,36.5,209.4,37.9,208,39.1z M207.8,31.7
				c-0.7-0.8-1.6-1.3-2.8-1.3c-1.2,0-2.3,0.4-3.2,1.3c-0.9,0.8-1.5,1.9-1.7,3.1c-0.2,1.2,0,2.2,0.7,3.1c0.6,0.8,1.6,1.3,2.8,1.3
				c1.2,0,2.3-0.4,3.2-1.3c0.9-0.8,1.5-1.9,1.6-3.1C208.7,33.5,208.4,32.5,207.8,31.7z"/>
			<path class="st0" d="M216.1,28.9l-0.2,1.4h0.1c1-1.2,2.3-1.8,3.6-1.8c0.8,0,1.4,0.1,1.9,0.4c0.5,0.3,0.9,0.6,1,1.1
				c0.2,0.5,0.3,1,0.3,1.6c0,0.6,0,1.3-0.1,1.9l-1.1,7h-2l1-6.6c0.1-0.5,0.1-0.8,0.1-1.1c0-0.3,0-0.6,0-1c0-0.3-0.1-0.6-0.3-0.8
				s-0.4-0.4-0.6-0.5c-0.3-0.1-0.7-0.2-1.1-0.2c-0.5,0-1,0.1-1.4,0.3c-0.4,0.2-0.7,0.4-1,0.7c-0.2,0.3-0.5,0.7-0.6,1.1
				c-0.2,0.5-0.3,0.9-0.4,1.2c-0.1,0.4-0.2,0.8-0.3,1.3l-0.9,5.6h-2l1.9-11.8H216.1z"/>
		</g>
	</g>
	<g>
		<circle class="st1" cx="26.3" cy="26.3" r="26.3"/>
		<g>
			<path class="st6" d="M30.5,40.6h-6.1V23.9l0.1-2.7l0.1-3c-1,1-1.7,1.7-2.1,2l-3.3,2.7l-2.9-3.7l9.3-7.4h5L30.5,40.6L30.5,40.6z"
				/>
		</g>
	</g>
</g>
</svg>
