<?xml version="1.0" encoding="utf-8"?>
<!-- Generator: Adobe Illustrator 21.0.2, SVG Export Plug-In . SVG Version: 6.00 Build 0)  -->
<svg version="1.1" id="Layer_1" xmlns="http://www.w3.org/2000/svg" xmlns:xlink="http://www.w3.org/1999/xlink" x="0px" y="0px"
	 viewBox="0 0 314.6 335.9" style="enable-background:new 0 0 314.6 335.9;" xml:space="preserve">
<style type="text/css">
	.st0{fill:#656666;}
	.st1{fill:#D85681;}
</style>
<g>
	<path class="st0" d="M-189.4-144.3h7.1v-7.3h4.9v18.9h-4.9v-7.7h-7.1v7.7h-4.9v-18.9h4.9V-144.3z"/>
	<path class="st0" d="M-169.8-150.9c1.6-0.8,3.3-1.2,5.1-1.2s3.5,0.4,5.1,1.2c1.6,0.8,2.9,2,3.9,3.5s1.5,3.2,1.5,5
		c0,3-1,5.5-2.9,7.5c-2,1.9-4.5,2.9-7.5,2.9s-5.5-1-7.5-2.9c-2-1.9-2.9-4.4-2.9-7.5c0-1.8,0.5-3.5,1.5-5S-171.4-150.1-169.8-150.9z
		 M-161-145.9c-1-1-2.3-1.5-3.8-1.5s-2.7,0.5-3.8,1.5s-1.6,2.2-1.6,3.5c0,1.6,0.5,2.9,1.5,4c1,1.1,2.3,1.6,3.8,1.6s2.7-0.5,3.8-1.6
		c1-1.1,1.5-2.4,1.5-4C-159.4-143.7-159.9-144.9-161-145.9z"/>
	<path class="st0" d="M-148.9-151.5l3.3,12.2h0l4-12.2h3.9l3.7,12.2h0l3.5-12.2h5.1l-6,18.9h-5l-3.3-10.9h-0.1l-3.7,10.9h-5
		l-5.6-18.9H-148.9z"/>
	<path class="st0" d="M-112.4-151.5l3.3,12.2h0l4-12.2h3.9l3.7,12.2h0l3.6-12.2h5.1l-6,18.9h-5l-3.3-10.9h0l-3.7,10.9h-5l-5.6-18.9
		H-112.4z"/>
	<path class="st0" d="M-76.9-147.4h-5.8v3.2h5.5v4.1h-5.5v3.3h5.8v4.2h-10.7v-18.9h10.7V-147.4z"/>
	<path class="st0" d="M-51.8-151.1v5.9c-0.5-0.7-1.1-1.2-1.9-1.5c-0.8-0.4-1.6-0.5-2.4-0.5c-1.5,0-2.7,0.5-3.6,1.5s-1.4,2.2-1.4,3.7
		c0,1.5,0.5,2.7,1.4,3.7s2.2,1.4,3.7,1.4c0.8,0,1.6-0.2,2.3-0.5c0.8-0.4,1.4-0.8,1.9-1.5v5.9c-1.9,0.6-3.3,0.9-4.3,0.9
		c-2.7,0-5-0.9-7.1-2.8c-2-1.8-3-4.2-3-7.1c0-2.7,0.9-5,2.8-6.9c0.9-1,2-1.7,3.3-2.2c1.3-0.5,2.6-0.8,3.9-0.8
		C-54.8-152-53.3-151.7-51.8-151.1z"/>
	<path class="st0" d="M-37.2-136H-44l-1.3,3.3h-5.2l7.3-18.9h5.4l7.1,18.9H-36L-37.2-136z M-38.6-139.7l-2-6h-0.1l-2,6H-38.6z"/>
	<path class="st0" d="M-29.3-132.7v-18.9h4.9l9,11.5h0v-11.5h4.9v18.9h-4.9l-9-11.5h0v11.5H-29.3z"/>
	<path class="st0" d="M6.2-144.3h7.1v-7.3h4.9v18.9h-4.9v-7.7H6.2v7.7H1.3v-18.9h4.9V-144.3z"/>
	<path class="st0" d="M32.1-147.4h-5.8v3.2h5.5v4.1h-5.5v3.3h5.8v4.2H21.4v-18.9h10.7V-147.4z"/>
	<path class="st0" d="M40.1-151.5v14.7h5.9v4.2H35.2v-18.9H40.1z"/>
	<path class="st0" d="M47.5-132.7v-18.9H55c2.1,0,3.8,0.5,5,1.5c1.2,1,1.8,2.6,1.8,4.7c0,4.3-2.2,6.4-6.7,6.4h-2.8v6.3H47.5z
		 M52.4-147.6v4.7h0.8c0.5,0,0.8,0,1.1,0c0.2,0,0.5-0.1,0.9-0.1c0.4-0.1,0.7-0.2,0.8-0.3c0.2-0.2,0.3-0.4,0.5-0.7s0.2-0.7,0.2-1.1
		c0-0.5-0.1-0.9-0.2-1.2c-0.1-0.3-0.3-0.5-0.5-0.7s-0.5-0.3-0.8-0.4c-0.4-0.1-0.7-0.1-0.9-0.1s-0.6,0-1.1,0H52.4z"/>
</g>
<g>
	<path class="st0" d="M414-132.7l3.1-19.6l12.3,15.4l2.3-14.6h2.1l-3.1,19.7l-12.3-15.4l-2.3,14.5H414z"/>
	<path class="st0" d="M434.8-132.7l3-18.9h9.8l-0.3,2h-7.7l-0.9,5.6h7.5l-0.3,1.9h-7.5l-1.2,7.4h7.7l-0.3,2H434.8z"/>
	<path class="st0" d="M448.1-132.7l3-18.9h9.8l-0.3,2h-7.7L452-144h7.5l-0.3,1.9h-7.5l-1.2,7.4h7.7l-0.3,2H448.1z"/>
	<path class="st0" d="M461.5-132.7l3-18.9h3.6c1.6,0,2.9,0.2,4,0.5c1.1,0.3,2.1,0.9,3,1.8c1.8,1.8,2.5,4.2,2,7.2
		c-0.5,2.9-1.9,5.2-4.2,7c-1.2,0.9-2.4,1.6-3.6,1.9c-1.2,0.3-2.6,0.5-4.2,0.5H461.5z M463.9-134.6h1.5c1.3,0,2.4-0.1,3.4-0.4
		c1-0.3,1.9-0.8,2.9-1.5c1.8-1.5,2.9-3.3,3.2-5.5c0.2-1.1,0.1-2.1-0.1-3.1c-0.3-1-0.7-1.8-1.4-2.5c-0.7-0.7-1.5-1.2-2.4-1.4
		s-1.9-0.4-3.2-0.4h-1.5L463.9-134.6z"/>
	<path class="st0" d="M497.8-138h-8l-3.1,5.4h-2.3l11.8-19.8l5.4,19.8h-2.3L497.8-138z M497.3-140l-1.9-7.6l-4.4,7.6H497.3z"/>
	<path class="st0" d="M515.3-143.9h9.6l1.2-7.6h2.1l-3,18.9h-2.1l1.5-9.3H515l-1.5,9.3h-2.1l3-18.9h2.1L515.3-143.9z"/>
	<path class="st0" d="M540.9-138h-8l-3.1,5.4h-2.3l11.8-19.8l5.3,19.8h-2.3L540.9-138z M540.3-140l-2-7.6L534-140H540.3z"/>
	<path class="st0" d="M559.4-148.9l-1.8,1.1c-0.3-0.7-0.7-1.2-1.1-1.5c-0.5-0.3-1.1-0.5-1.8-0.5c-0.8,0-1.6,0.3-2.3,0.8
		c-0.7,0.5-1.1,1.3-1.3,2.1c-0.1,0.3,0,0.6,0.1,0.9c0.1,0.3,0.2,0.5,0.3,0.7c0.1,0.2,0.3,0.4,0.6,0.6c0.3,0.2,0.5,0.3,0.7,0.4
		s0.4,0.2,0.8,0.4l1.2,0.6c0.7,0.3,1.2,0.6,1.6,0.9c0.4,0.3,0.8,0.6,1.2,1c0.4,0.4,0.7,0.9,0.8,1.5c0.1,0.6,0.2,1.2,0,1.9
		c-0.3,1.6-1.1,3-2.4,4.1c-1.3,1.1-2.8,1.7-4.5,1.7c-1.5,0-2.7-0.4-3.6-1.3c-0.9-0.9-1.4-2.1-1.5-3.5l2.1-0.6c0,1,0.3,1.8,0.9,2.5
		c0.6,0.7,1.4,1,2.3,1c1,0,2-0.4,2.9-1.1c0.9-0.7,1.4-1.6,1.6-2.6c0.1-0.4,0.1-0.8,0-1.2s-0.2-0.6-0.3-0.9c-0.1-0.2-0.4-0.4-0.7-0.7
		s-0.6-0.4-0.8-0.5c-0.2-0.1-0.5-0.3-1-0.5l-1-0.5c-0.6-0.3-1.1-0.6-1.5-0.8s-0.8-0.6-1.1-1c-0.4-0.4-0.6-0.8-0.7-1.3
		c-0.1-0.5-0.1-1.1,0-1.7c0.2-1.4,0.9-2.6,2.1-3.5c1.2-0.9,2.5-1.3,3.9-1.3c1.1,0,2,0.3,2.7,0.8
		C558.5-150.6,559.1-149.9,559.4-148.9z"/>
	<path class="st0" d="M573.4-148.9l-1.8,1.1c-0.3-0.7-0.7-1.2-1.1-1.5c-0.5-0.3-1.1-0.5-1.8-0.5c-0.8,0-1.6,0.3-2.3,0.8
		c-0.7,0.5-1.1,1.3-1.3,2.1c-0.1,0.3,0,0.6,0.1,0.9s0.2,0.5,0.3,0.7c0.1,0.2,0.3,0.4,0.6,0.6c0.3,0.2,0.5,0.3,0.7,0.4
		c0.2,0.1,0.4,0.2,0.8,0.4l1.2,0.6c0.7,0.3,1.2,0.6,1.6,0.9c0.4,0.3,0.8,0.6,1.2,1c0.4,0.4,0.7,0.9,0.8,1.5s0.2,1.2,0,1.9
		c-0.3,1.6-1.1,3-2.4,4.1c-1.3,1.1-2.8,1.7-4.5,1.7c-1.5,0-2.7-0.4-3.6-1.3c-0.9-0.9-1.4-2.1-1.5-3.5l2.1-0.6c0,1,0.3,1.8,0.9,2.5
		c0.6,0.7,1.4,1,2.3,1c1.1,0,2-0.4,2.9-1.1c0.9-0.7,1.4-1.6,1.6-2.6c0.1-0.4,0.1-0.8,0-1.2s-0.2-0.6-0.3-0.9
		c-0.1-0.2-0.4-0.4-0.7-0.7c-0.3-0.3-0.6-0.4-0.8-0.5s-0.5-0.3-1-0.5l-1-0.5c-0.6-0.3-1.1-0.6-1.5-0.8c-0.4-0.3-0.8-0.6-1.1-1
		s-0.6-0.8-0.7-1.3c-0.1-0.5-0.1-1.1,0-1.7c0.2-1.4,0.9-2.6,2.1-3.5c1.2-0.9,2.5-1.3,3.9-1.3c1,0,2,0.3,2.7,0.8
		C572.5-150.6,573-149.9,573.4-148.9z"/>
	<path class="st0" d="M579.6-151.5l-2.7,16.9h5.2l-0.3,2h-7.3l3-18.9H579.6z"/>
	<path class="st0" d="M583.9-132.7l3-18.9h9.8l-0.3,2h-7.7l-0.9,5.6h7.5L595-142h-7.4l-1.2,7.4h7.7l-0.3,2H583.9z"/>
	<path class="st0" d="M616.2-149.6h-6.5l-0.9,5.6h6.3l-0.3,1.9h-6.3l-1.5,9.4H605l3-18.9h8.6L616.2-149.6z"/>
	<path class="st0" d="M620.3-141l-1.3,8.3h-2.1l3-18.9h2.7c0.8,0,1.5,0,2.1,0.1c0.6,0.1,1.2,0.2,1.8,0.5c0.6,0.2,1,0.5,1.4,0.9
		c0.4,0.4,0.6,0.9,0.8,1.5c0.2,0.6,0.2,1.3,0,2.2c-0.2,1.4-0.8,2.6-1.8,3.6c-1,0.9-2.2,1.5-3.7,1.6l4.7,8.5h-2.6l-4.4-8.3H620.3z
		 M621.7-149.6l-1.1,6.8h0.6c0.7,0,1.3,0,1.8-0.1c0.5-0.1,1-0.2,1.6-0.5s1-0.6,1.3-1c0.3-0.5,0.6-1,0.7-1.8c0.1-0.6,0.1-1.1,0-1.5
		c-0.1-0.4-0.3-0.8-0.5-1c-0.2-0.2-0.6-0.4-1-0.6c-0.4-0.1-0.8-0.2-1.3-0.3c-0.4,0-0.9,0-1.5,0H621.7z"/>
	<path class="st0" d="M630.5-132.7l3-18.9h9.8l-0.3,2h-7.7l-0.9,5.6h7.5l-0.3,1.9h-7.5l-1.2,7.4h7.7l-0.3,2H630.5z"/>
	<path class="st0" d="M643.8-132.7l3-18.9h9.8l-0.3,2h-7.7l-0.9,5.6h7.4l-0.3,1.9h-7.5l-1.2,7.4h7.7l-0.3,2H643.8z"/>
	<path class="st0" d="M677.7-148.9l-1.8,1.1c-0.3-0.7-0.7-1.2-1.1-1.5c-0.5-0.3-1.1-0.5-1.8-0.5c-0.8,0-1.6,0.3-2.3,0.8
		c-0.7,0.5-1.1,1.3-1.3,2.1c-0.1,0.3,0,0.6,0.1,0.9s0.2,0.5,0.3,0.7c0.1,0.2,0.3,0.4,0.6,0.6c0.3,0.2,0.5,0.3,0.7,0.4
		c0.2,0.1,0.4,0.2,0.8,0.4l1.2,0.6c0.7,0.3,1.2,0.6,1.6,0.9c0.4,0.3,0.8,0.6,1.2,1c0.4,0.4,0.7,0.9,0.8,1.5s0.2,1.2,0,1.9
		c-0.3,1.6-1.1,3-2.4,4.1c-1.3,1.1-2.8,1.7-4.5,1.7c-1.5,0-2.7-0.4-3.6-1.3c-0.9-0.9-1.4-2.1-1.5-3.5l2.1-0.6c0,1,0.3,1.8,0.9,2.5
		c0.6,0.7,1.4,1,2.3,1c1.1,0,2-0.4,2.9-1.1c0.9-0.7,1.4-1.6,1.6-2.6c0.1-0.4,0.1-0.8,0-1.2s-0.2-0.6-0.3-0.9
		c-0.1-0.2-0.4-0.4-0.7-0.7c-0.3-0.3-0.6-0.4-0.8-0.5s-0.5-0.3-1-0.5l-1-0.5c-0.6-0.3-1.1-0.6-1.5-0.8c-0.4-0.3-0.8-0.6-1.1-1
		s-0.6-0.8-0.7-1.3c-0.1-0.5-0.1-1.1,0-1.7c0.2-1.4,0.9-2.6,2.1-3.5c1.2-0.9,2.5-1.3,3.9-1.3c1,0,2,0.3,2.7,0.8
		C676.8-150.6,677.3-149.9,677.7-148.9z"/>
	<path class="st0" d="M690.6-138h-8.1l-3.1,5.4h-2.3l11.8-19.8l5.3,19.8H692L690.6-138z M690.1-140l-2-7.6l-4.4,7.6H690.1z"/>
	<path class="st0" d="M701.4-151.5l-2.7,16.9h5.2l-0.3,2h-7.3l3-18.9H701.4z"/>
	<path class="st0" d="M705.7-132.7l3-18.9h9.8l-0.3,2h-7.7l-0.9,5.6h7.5l-0.3,1.9h-7.5l-1.2,7.4h7.7l-0.3,2H705.7z"/>
	<path class="st0" d="M726.6-140.9h2c-0.2,1.2-0.7,2.2-1.6,3.1c-0.9,0.8-2,1.3-3.2,1.3c-1.2,0-2.1-0.4-2.7-1.2
		c-0.7-0.8-0.9-1.8-0.7-2.9c0.2-1,0.6-1.8,1.3-2.4c0.7-0.6,1.6-1,2.8-1.4c0.1,0,0.2-0.1,0.4-0.1c0.4-0.1,0.7-0.2,0.9-0.3
		c0.2-0.1,0.5-0.2,0.8-0.3s0.6-0.3,0.7-0.5c0.2-0.2,0.3-0.4,0.5-0.7c0.2-0.3,0.3-0.6,0.3-1c0.1-0.8,0-1.4-0.4-1.9s-1-0.7-1.7-0.7
		c-0.7,0-1.3,0.2-1.9,0.7c-0.5,0.5-0.9,1.1-1,1.8c-0.1,0.4-0.1,0.8,0,1.2H721l0.1-1.3c0.2-1.3,0.8-2.3,1.8-3.1
		c1-0.8,2.2-1.2,3.5-1.2s2.3,0.4,3,1.3c0.7,0.9,1,1.9,0.8,3.2c-0.1,0.6-0.3,1.3-0.6,1.8c-0.3,0.6-0.7,1.1-1.2,1.5
		c-0.1,0.1-0.2,0.2-0.3,0.2c-0.1,0.1-0.2,0.1-0.4,0.2c-0.1,0.1-0.3,0.1-0.4,0.2c-0.1,0-0.2,0.1-0.4,0.2c-0.2,0.1-0.3,0.1-0.4,0.1
		c-0.1,0-0.2,0.1-0.4,0.1c-0.2,0.1-0.3,0.1-0.4,0.1c0,0-0.2,0.1-0.4,0.1c-0.2,0.1-0.4,0.1-0.4,0.1c-0.6,0.2-1.1,0.4-1.5,0.7
		c-0.4,0.3-0.6,0.8-0.7,1.4c-0.1,0.6,0,1,0.4,1.4c0.3,0.4,0.8,0.6,1.4,0.6c0.6,0,1.2-0.2,1.6-0.7S726.5-140.2,726.6-140.9z
		 M722.6-134.8c0.3-0.3,0.7-0.4,1-0.4c0.4,0,0.7,0.1,0.9,0.4c0.2,0.3,0.3,0.6,0.3,1c-0.1,0.4-0.3,0.7-0.6,1s-0.7,0.4-1,0.4
		c-0.4,0-0.7-0.1-0.9-0.4s-0.3-0.6-0.3-1C722-134.2,722.2-134.5,722.6-134.8z"/>
</g>
<g>
	<g>
		<g>
			<path class="st0" d="M520.1-35.8v-14.3h3.7l6.8,8.7h0v-8.7h3.7v14.3h-3.7l-6.8-8.7h0v8.7H520.1z"/>
			<path class="st0" d="M540.1-49.6c1.2-0.6,2.5-0.9,3.9-0.9s2.7,0.3,3.9,0.9c1.2,0.6,2.2,1.5,2.9,2.6c0.7,1.1,1.1,2.4,1.1,3.8
				c0,2.3-0.7,4.2-2.2,5.7c-1.5,1.5-3.4,2.2-5.7,2.2s-4.2-0.7-5.7-2.2c-1.5-1.5-2.2-3.4-2.2-5.7c0-1.4,0.4-2.7,1.1-3.8
				C538-48.2,538.9-49,540.1-49.6z M546.8-45.8c-0.8-0.8-1.7-1.1-2.8-1.1s-2,0.4-2.8,1.1c-0.8,0.8-1.2,1.6-1.2,2.6
				c0,1.2,0.4,2.2,1.2,3c0.8,0.8,1.7,1.2,2.9,1.2s2.1-0.4,2.9-1.2c0.8-0.8,1.2-1.8,1.2-3C548-44.2,547.6-45.1,546.8-45.8z"/>
			<path class="st0" d="M562.6-50.1l3.4,8.7l3.5-8.7h4l-6.1,14.3h-2.9l-6-14.3H562.6z"/>
			<path class="st0" d="M578.2-50.1v14.3h-3.7v-14.3H578.2z"/>
			<path class="st0" d="M588.8-46.9h-4.4v2.4h4.2v3.1h-4.2v2.5h4.4v3.1h-8.1v-14.3h8.1V-46.9z"/>
			<path class="st0" d="M593.4-50.1l2.5,9.2h0l3-9.2h3l2.8,9.2h0l2.7-9.2h3.9l-4.6,14.3h-3.8l-2.5-8.3h0l-2.8,8.3h-3.8l-4.3-14.3
				H593.4z"/>
			<path class="st0" d="M615.9-50.1v14.3h-3.7v-14.3H615.9z"/>
			<path class="st0" d="M618.3-35.8v-14.3h3.7l6.8,8.7h0v-8.7h3.7v14.3h-3.7l-6.8-8.7h0v8.7H618.3z"/>
			<path class="st0" d="M641.9-43.8h7.4c0,1.2-0.1,2.3-0.3,3.1c-0.2,0.9-0.6,1.7-1.1,2.5c-1.3,1.9-3.3,2.8-5.9,2.8
				c-2.2,0-4.1-0.7-5.5-2.1c-1.4-1.4-2.1-3.2-2.1-5.4c0-2.3,0.7-4.2,2.1-5.6s3.3-2.1,5.6-2.1c1.5,0,2.8,0.3,3.9,1
				c1.1,0.7,1.9,1.7,2.6,3l-3.5,1.5c-0.3-0.7-0.7-1.3-1.2-1.7c-0.5-0.4-1.2-0.6-1.9-0.6c-1.1,0-2.1,0.5-2.7,1.4c-0.7,0.9-1,2-1,3.1
				s0.3,2.2,1,3.1c0.7,0.9,1.6,1.3,2.8,1.3c0.8,0,1.5-0.2,2.1-0.6c0.5-0.4,0.9-1,0.9-1.8h-3V-43.8z"/>
			<path class="st0" d="M660.2-49.3l-1.5,2.9c-0.8-0.6-1.6-0.9-2.5-0.9c-0.4,0-0.8,0.1-1.1,0.3s-0.5,0.5-0.5,0.9
				c0,0.3,0.1,0.5,0.3,0.7c0.2,0.2,0.4,0.3,0.6,0.4s0.4,0.2,0.7,0.3l0.9,0.3c1.1,0.3,2,0.8,2.6,1.4c0.6,0.6,0.9,1.4,0.9,2.5
				c0,1.7-0.5,3-1.5,3.8c-1.1,0.9-2.4,1.3-4,1.3c-1.8,0-3.5-0.5-5-1.6l1.6-3c1.1,1,2.2,1.5,3.3,1.5c0.5,0,0.9-0.1,1.3-0.4
				c0.4-0.2,0.5-0.6,0.5-1.1c0-0.6-0.6-1.1-1.8-1.5c0,0-0.2-0.1-0.5-0.1c-0.7-0.2-1.2-0.4-1.6-0.5c-0.4-0.2-0.8-0.4-1.2-0.7
				c-0.4-0.3-0.7-0.7-0.8-1.1c-0.2-0.5-0.2-1-0.2-1.7c0-1.4,0.5-2.6,1.4-3.5c0.9-0.9,2.1-1.3,3.5-1.3c0.7,0,1.5,0.1,2.3,0.3
				C658.9-49.9,659.6-49.6,660.2-49.3z"/>
		</g>
	</g>
	<g id="Layer_1_1_">
		<g>
			<path d="M474.2-43.5l-19.4-19.4c-0.6-0.6-1.4-0.9-2.3-0.9c-0.9,0-1.7,0.4-2.3,0.9l-5.2,5.2v-4.9c0-0.7-0.6-1.2-1.2-1.2h-6.7
				c-0.7,0-1.2,0.6-1.2,1.2v14l-5.1,5.1c-0.4,0.4-0.5,0.9-0.3,1.3c0.2,0.5,0.7,0.8,1.1,0.8h4.3v2.2l0.4-0.1c0.5-0.1,1-0.1,1.6,0
				l0.4,0.1v-3.3c0-0.7-0.6-1.2-1.2-1.2h-2.6l3.4-3.4c0.2-0.2,0.4-0.6,0.4-0.9v-13.4h4.3v6.3c0,0.8,0.6,1.3,1.3,1.3
				c0.4,0,0.7-0.1,0.9-0.4l7-7c0.3-0.3,0.9-0.3,1.2,0l17.3,17.3h-2.6c-0.7,0-1.2,0.6-1.2,1.2V-24h-10.4l0.1,0.5
				c0.1,0.6,0.2,1,0.2,1.6v0.4h11.4c0.7,0,1.2-0.6,1.2-1.2v-18.7h4.3c0.5,0,0.9-0.3,1.1-0.8C474.6-42.7,474.5-43.2,474.2-43.5z"/>
			<path d="M428.5-21.6h1.7c0-3.9,3.1-7,7-7c3.9,0,7,3.1,7,7h1.7c0-1.6-0.5-3.1-1.2-4.4c0.9-0.8,2.2-1.1,3.4-1.1
				c3,0,5.6,2.5,5.6,5.6h1.7c0-3.4-2.3-6.2-5.4-7.1c1.1-0.7,1.9-1.9,1.9-3.2c0-2.1-1.7-3.8-3.8-3.8c-2.1,0-3.8,1.7-3.8,3.8
				c0,1.4,0.8,2.6,1.9,3.2c-0.9,0.3-1.8,0.7-2.6,1.2c-1.2-1.4-2.8-2.4-4.7-2.7c1.5-0.7,2.6-2.3,2.6-4.1c0-2.5-2-4.4-4.4-4.4
				s-4.4,2-4.4,4.4c0,1.8,1,3.3,2.6,4.1C431.4-29.3,428.5-25.8,428.5-21.6z M450.1-31.9c0,1.1-0.9,2-2,2s-2-0.9-2-2s0.9-2,2-2
				S450.1-33,450.1-31.9z M437.2-31.5c-1.5,0-2.6-1.2-2.6-2.6s1.2-2.6,2.6-2.6c1.5,0,2.6,1.2,2.6,2.6S438.7-31.5,437.2-31.5z"/>
		</g>
		<path class="st1" d="M451.9-73.5c-17.6,0-31.9,14.3-31.9,31.9s14.3,31.9,31.9,31.9c17.6,0,31.9-14.3,31.9-31.9
			C483.9-59.2,469.5-73.5,451.9-73.5z M426.1-41.6c0-6.1,2.1-11.6,5.6-16L468-21.3c-4.4,3.5-9.9,5.6-16,5.6
			C437.7-15.7,426.1-27.3,426.1-41.6z M472.3-25.5l-36.3-36.3c4.4-3.5,9.9-5.6,16-5.6c14.3,0,25.8,11.6,25.8,25.8
			C477.9-35.6,475.8-30,472.3-25.5z"/>
	</g>
</g>
<g>
	<g>
		<g>
			<path class="st0" d="M520.1,61.1V46.8h3.7l6.8,8.7h0v-8.7h3.7v14.3h-3.7l-6.8-8.7h0v8.7H520.1z"/>
			<path class="st0" d="M540.1,47.2c1.2-0.6,2.5-0.9,3.9-0.9s2.7,0.3,3.9,0.9c1.2,0.6,2.2,1.5,2.9,2.6c0.7,1.1,1.1,2.4,1.1,3.8
				c0,2.3-0.7,4.2-2.2,5.7c-1.5,1.5-3.4,2.2-5.7,2.2s-4.2-0.7-5.7-2.2c-1.5-1.5-2.2-3.4-2.2-5.7c0-1.4,0.4-2.7,1.1-3.8
				C538,48.7,538.9,47.8,540.1,47.2z M546.8,51c-0.8-0.8-1.7-1.1-2.8-1.1s-2,0.4-2.8,1.1c-0.8,0.8-1.2,1.6-1.2,2.6
				c0,1.2,0.4,2.2,1.2,3c0.8,0.8,1.7,1.2,2.9,1.2s2.1-0.4,2.9-1.2c0.8-0.8,1.2-1.8,1.2-3C548,52.7,547.6,51.8,546.8,51z"/>
			<path class="st0" d="M563.8,52.3h5.4v-5.5h3.7v14.3h-3.7v-5.8h-5.4v5.8h-3.7V46.8h3.7V52.3z"/>
			<path class="st0" d="M579,46.8v14.3h-3.7V46.8H579z"/>
			<path class="st0" d="M581.4,61.1V46.8h5.3c2,0,3.7,0.7,5.1,2.1s2.1,3.1,2.1,5.1c0,2-0.7,3.7-2.1,5.1c-1.4,1.4-3.1,2.1-5.1,2.1
				H581.4z M585.1,49.9v8h0.8c1.2,0,2.2-0.3,2.9-1c0.8-0.7,1.2-1.7,1.2-3c0-1.2-0.4-2.2-1.1-2.9c-0.7-0.7-1.7-1.1-3-1.1H585.1z"/>
			<path class="st0" d="M595.7,61.1V46.8h5.3c2,0,3.7,0.7,5.1,2.1c1.4,1.4,2.1,3.1,2.1,5.1c0,2-0.7,3.7-2.1,5.1
				c-1.4,1.4-3.1,2.1-5.1,2.1H595.7z M599.4,49.9v8h0.8c1.2,0,2.2-0.3,2.9-1c0.8-0.7,1.2-1.7,1.2-3c0-1.2-0.4-2.2-1.1-2.9
				c-0.7-0.7-1.7-1.1-3-1.1H599.4z"/>
			<path class="st0" d="M618,49.9h-4.4v2.4h4.2v3.1h-4.2v2.5h4.4v3.1h-8.1V46.8h8.1V49.9z"/>
			<path class="st0" d="M620.3,61.1V46.8h3.7l6.8,8.7h0v-8.7h3.7v14.3h-3.7l-6.8-8.7h0v8.7H620.3z"/>
			<path class="st0" d="M651.7,49.9h-4.5v2.4h4.1v3.1h-4.1v5.6h-3.7V46.8h8.2V49.9z"/>
			<path class="st0" d="M661.9,49.9h-4.4v2.4h4.2v3.1h-4.2v2.5h4.4v3.1h-8.1V46.8h8.1V49.9z"/>
			<path class="st0" d="M672.3,49.9h-4.4v2.4h4.2v3.1h-4.2v2.5h4.4v3.1h-8.1V46.8h8.1V49.9z"/>
			<path class="st0" d="M683.9,47.6l-1.5,2.9c-0.8-0.6-1.6-0.9-2.5-0.9c-0.4,0-0.8,0.1-1.1,0.3c-0.3,0.2-0.5,0.5-0.5,0.9
				c0,0.3,0.1,0.5,0.3,0.7c0.2,0.2,0.4,0.3,0.6,0.4c0.2,0.1,0.4,0.2,0.7,0.3l0.9,0.3c1.1,0.3,2,0.8,2.6,1.4c0.6,0.6,0.9,1.4,0.9,2.5
				c0,1.7-0.5,3-1.5,3.8c-1.1,0.9-2.4,1.3-4.1,1.3c-1.8,0-3.5-0.5-5-1.6l1.6-3c1.1,1,2.2,1.5,3.3,1.5c0.5,0,0.9-0.1,1.3-0.4
				c0.4-0.2,0.5-0.6,0.5-1.1c0-0.6-0.6-1.1-1.8-1.5c0,0-0.2-0.1-0.5-0.1c-0.7-0.2-1.2-0.4-1.6-0.5c-0.4-0.2-0.8-0.4-1.2-0.7
				c-0.4-0.3-0.7-0.7-0.8-1.1c-0.2-0.5-0.2-1-0.2-1.7c0-1.4,0.5-2.6,1.4-3.5c0.9-0.9,2.1-1.3,3.5-1.3c0.7,0,1.5,0.1,2.3,0.3
				C682.5,46.9,683.2,47.2,683.9,47.6z"/>
		</g>
	</g>
	<g id="Layer_1_2_">
		<g>
			<path d="M465.2,74.9h-28.5v-1.1c0-1.3,0-4.1,0-4.1v-0.7l0.6-0.3c0,0,0.2-0.1,0.4-0.2c2.7-1.6,4.4-3.7,5.3-6.4
				c0.4-1.3,0.3-2.7,0.2-4.2h-6v-7.3h4.9c-0.4-2.6-0.7-5.7,0.3-8.7c1.4-4.8,4.7-7.8,9.8-8.9c3.4-0.8,7.1-0.3,10.8,1.3l0.9,0.4
				l-0.3,0.9c0,0-0.9,3.9-1.2,5.5l-0.3,1.1l-1.1-0.4c-0.3-0.1-0.7-0.2-0.9-0.3c-0.7-0.2-1.2-0.4-1.9-0.6c-1.3-0.3-2.6-0.4-3.7-0.1
				c-2.1,0.4-3.2,1.7-3.5,3.9c-0.2,1.7,0,3.4,0.3,5.2v0.1c0,0.2,0,0.3,0.1,0.5h8.7V58H452c0,1.9-0.3,3.5-0.7,5.1
				c-0.4,1.2-0.9,2.5-1.8,3.5h15.5L465.2,74.9L465.2,74.9z M439,72.7h24v-3.8h-18.9l2.3-2c1.7-1.4,2.6-2.7,3-4.4
				c0.5-1.6,0.7-3.5,0.6-5.6v-1.1h7.9V53h-8.5l-0.2-1.4c-0.1-0.4-0.1-0.7-0.2-0.9v-0.1c-0.3-1.9-0.6-3.8-0.3-5.8
				c0.4-3.2,2.3-5.2,5.3-5.8c1.4-0.3,2.9-0.2,4.5,0.1c0.7,0.1,1.2,0.4,1.8,0.6c0.3-1.1,0.6-2.6,0.8-3.4c-2.9-1.1-5.9-1.4-8.5-0.9
				c-4.3,0.9-6.9,3.3-8.1,7.4c-0.8,2.6-0.6,5.3-0.2,7.8c0,0.3,0.1,0.5,0.1,0.8l0.3,1.7h-5.3v2.8h5.8l0.1,1.7
				c0.1,1.7,0.3,3.5-0.3,5.3c-0.9,3.3-3,5.9-6.2,7.7C439,71,439,71.9,439,72.7z"/>
		</g>
		<path class="st1" d="M451.9,23.4c-17.6,0-31.9,14.3-31.9,31.9s14.3,31.9,31.9,31.9c17.6,0,31.9-14.3,31.9-31.9
			C483.9,37.7,469.5,23.4,451.9,23.4z M426.1,55.3c0-6.1,2.1-11.6,5.6-16L468,75.6c-4.4,3.5-9.9,5.6-16,5.6
			C437.7,81.2,426.1,69.6,426.1,55.3z M472.3,71.3L435.9,35c4.4-3.5,9.9-5.6,16-5.6c14.3,0,25.8,11.6,25.8,25.8
			C477.9,61.3,475.8,66.9,472.3,71.3z"/>
	</g>
</g>
<g>
	<g>
		<g>
			<path class="st0" d="M528.3,143.7h-4.5v2.4h4.1v3.1h-4.1v5.6h-3.7v-14.3h8.2V143.7z"/>
			<path class="st0" d="M537.8,149l4.5,5.8h-4.6l-3.5-5.5h0v5.5h-3.7v-14.3h5.5c1.5,0,2.7,0.4,3.6,1.1c0.9,0.7,1.4,1.8,1.4,3.3
				c0,1-0.3,1.9-0.8,2.7C539.5,148.4,538.8,148.8,537.8,149z M534.1,143.4v3.6h0.4c1.7,0,2.6-0.6,2.6-1.8s-0.9-1.8-2.6-1.8H534.1z"
				/>
			<path class="st0" d="M551.4,143.7H547v2.4h4.2v3.1H547v2.5h4.4v3.1h-8.1v-14.3h8.1V143.7z"/>
			<path class="st0" d="M561.8,143.7h-4.4v2.4h4.2v3.1h-4.2v2.5h4.4v3.1h-8.1v-14.3h8.1V143.7z"/>
			<path class="st0" d="M574.3,140.6v11.1h4.4v3.1h-8.2v-14.3H574.3z"/>
			<path class="st0" d="M588.1,143.7h-4.4v2.4h4.2v3.1h-4.2v2.5h4.4v3.1h-8.1v-14.3h8.1V143.7z"/>
			<path class="st0" d="M597.2,146.9h7.4c0,1.2-0.1,2.3-0.3,3.1c-0.2,0.9-0.6,1.7-1.1,2.5c-1.3,1.9-3.3,2.8-5.9,2.8
				c-2.2,0-4.1-0.7-5.5-2.1c-1.4-1.4-2.1-3.2-2.1-5.4c0-2.3,0.7-4.2,2.1-5.6s3.3-2.1,5.6-2.1c1.5,0,2.8,0.3,3.9,1
				c1.1,0.7,2,1.7,2.6,3l-3.5,1.5c-0.3-0.7-0.7-1.3-1.2-1.7s-1.2-0.6-1.9-0.6c-1.1,0-2.1,0.5-2.7,1.4c-0.7,0.9-1,2-1,3.1
				c0,1.2,0.3,2.2,1,3.1c0.7,0.9,1.6,1.3,2.8,1.3c0.8,0,1.5-0.2,2.1-0.6c0.5-0.4,0.9-1,0.9-1.8h-3V146.9z"/>
			<path class="st0" d="M615,152.4h-5.1l-1,2.5H605l5.5-14.3h4.1l5.4,14.3h-4L615,152.4z M614,149.5l-1.5-4.5h0l-1.5,4.5H614z"/>
			<path class="st0" d="M624.8,140.6v11.1h4.4v3.1h-8.2v-14.3H624.8z"/>
			<path class="st0" d="M647.1,140.9v4.4c-0.4-0.5-0.9-0.9-1.4-1.2c-0.6-0.3-1.2-0.4-1.8-0.4c-1.1,0-2,0.4-2.7,1.1
				c-0.7,0.8-1.1,1.7-1.1,2.8c0,1.1,0.4,2.1,1.1,2.8s1.6,1.1,2.8,1.1c0.6,0,1.2-0.1,1.8-0.4c0.6-0.3,1-0.6,1.4-1.1v4.4
				c-1.4,0.4-2.5,0.7-3.3,0.7c-2,0-3.8-0.7-5.4-2.1c-1.5-1.4-2.3-3.2-2.3-5.4c0-2,0.7-3.8,2.1-5.2c0.7-0.7,1.5-1.3,2.5-1.7
				c1-0.4,1.9-0.6,2.9-0.6C644.9,140.2,646,140.5,647.1,140.9z"/>
			<path class="st0" d="M652.7,141c1.2-0.6,2.5-0.9,3.9-0.9c1.4,0,2.7,0.3,3.9,0.9c1.2,0.6,2.2,1.5,2.9,2.6c0.7,1.1,1.1,2.4,1.1,3.8
				c0,2.3-0.7,4.2-2.2,5.7c-1.5,1.5-3.4,2.2-5.7,2.2c-2.3,0-4.2-0.7-5.7-2.2c-1.5-1.5-2.2-3.4-2.2-5.7c0-1.4,0.4-2.7,1.1-3.8
				C650.6,142.5,651.5,141.6,652.7,141z M659.4,144.8c-0.8-0.8-1.7-1.1-2.8-1.1c-1.1,0-2,0.4-2.8,1.1c-0.8,0.8-1.2,1.6-1.2,2.6
				c0,1.2,0.4,2.2,1.2,3c0.8,0.8,1.7,1.2,2.9,1.2c1.1,0,2.1-0.4,2.9-1.2c0.8-0.8,1.2-1.8,1.2-3C660.6,146.5,660.2,145.6,659.4,144.8
				z"/>
			<path class="st0" d="M675.5,141.4l-1.5,2.9c-0.8-0.6-1.6-0.9-2.5-0.9c-0.4,0-0.8,0.1-1.1,0.3c-0.3,0.2-0.5,0.5-0.5,0.9
				c0,0.3,0.1,0.5,0.3,0.7c0.2,0.2,0.4,0.3,0.6,0.4c0.2,0.1,0.4,0.2,0.7,0.3l0.9,0.3c1.1,0.3,2,0.8,2.6,1.4c0.6,0.6,0.9,1.4,0.9,2.5
				c0,1.7-0.5,3-1.5,3.8c-1.1,0.9-2.4,1.3-4,1.3c-1.8,0-3.5-0.5-5-1.6l1.6-3c1.1,1,2.2,1.5,3.3,1.5c0.5,0,0.9-0.1,1.3-0.4
				c0.4-0.2,0.5-0.6,0.5-1.1c0-0.6-0.6-1.1-1.8-1.5c0,0-0.2-0.1-0.5-0.1c-0.7-0.2-1.2-0.4-1.6-0.5c-0.4-0.2-0.8-0.4-1.2-0.7
				c-0.4-0.3-0.7-0.7-0.8-1.1c-0.2-0.5-0.2-1-0.2-1.7c0-1.4,0.5-2.6,1.4-3.5c0.9-0.9,2.1-1.3,3.5-1.3c0.7,0,1.5,0.1,2.3,0.3
				C674.2,140.7,674.9,141,675.5,141.4z"/>
			<path class="st0" d="M683.6,143.7v11.1h-3.7v-11.1h-3.1v-3.1h9.8v3.1H683.6z"/>
			<path class="st0" d="M697.3,141.4l-1.5,2.9c-0.8-0.6-1.6-0.9-2.5-0.9c-0.4,0-0.8,0.1-1.1,0.3c-0.3,0.2-0.5,0.5-0.5,0.9
				c0,0.3,0.1,0.5,0.3,0.7c0.2,0.2,0.4,0.3,0.6,0.4c0.2,0.1,0.4,0.2,0.7,0.3l0.9,0.3c1.1,0.3,2,0.8,2.6,1.4c0.6,0.6,0.9,1.4,0.9,2.5
				c0,1.7-0.5,3-1.5,3.8c-1.1,0.9-2.4,1.3-4,1.3c-1.8,0-3.5-0.5-5-1.6l1.6-3c1.1,1,2.2,1.5,3.3,1.5c0.5,0,0.9-0.1,1.3-0.4
				c0.4-0.2,0.5-0.6,0.5-1.1c0-0.6-0.6-1.1-1.8-1.5c0,0-0.2-0.1-0.5-0.1c-0.7-0.2-1.2-0.4-1.6-0.5c-0.4-0.2-0.8-0.4-1.2-0.7
				c-0.4-0.3-0.7-0.7-0.8-1.1c-0.2-0.5-0.2-1-0.2-1.7c0-1.4,0.5-2.6,1.4-3.5c0.9-0.9,2.1-1.3,3.5-1.3c0.7,0,1.5,0.1,2.3,0.3
				C695.9,140.7,696.7,141,697.3,141.4z"/>
		</g>
	</g>
	<g id="Layer_1_3_">
		<g>
			<g>
				<path d="M457.3,177.2c-0.4,0-0.7-0.1-0.9-0.4l-29.1-29.1c-0.3-0.3-0.4-0.6-0.4-0.9v-12c0-0.4,0.1-0.7,0.4-0.9l9.4-9.4
					c0.3-0.3,0.6-0.4,0.9-0.4h12.1c0.4,0,0.7,0.1,0.9,0.4l29,29.1c0.5,0.5,0.5,1.3,0,1.8l-21.4,21.5
					C458,177.1,457.7,177.2,457.3,177.2z M429.6,146.3l27.7,27.7l19.7-19.7l-27.8-27.6h-11l-8.6,8.6
					C429.6,135.3,429.6,146.3,429.6,146.3z"/>
				<path d="M439.9,141.3c-1,0-2.2-0.4-3-1.2c-0.8-0.8-1.2-1.9-1.2-3s0.5-2.2,1.2-3c1.6-1.6,4.4-1.6,6,0l0,0l0,0l0,0
					c0.8,0.8,1.2,1.9,1.2,3s-0.5,2.2-1.2,3S441.1,141.3,439.9,141.3z M439.9,134.8c-0.6,0-1.2,0.3-1.6,0.7c-0.5,0.5-0.7,1-0.7,1.6
					s0.3,1.2,0.7,1.6c0.9,0.9,2.4,0.9,3.2,0c0.5-0.5,0.7-1,0.7-1.6c0-0.7-0.3-1.2-0.7-1.6l0,0C441.2,135.1,440.6,134.8,439.9,134.8z
					"/>
				<path d="M439.9,137.7c-0.2,0-0.3-0.1-0.5-0.2L424,122.1c-0.3-0.3-0.3-0.7,0-0.9c0.3-0.3,0.7-0.3,0.9,0l15.5,15.5
					c0.3,0.3,0.3,0.7,0,0.9C440.3,137.6,440.1,137.7,439.9,137.7z"/>
			</g>
			<g>
				<path d="M458.1,163.8c-0.5-0.5-1.3-1.4-1.3-1.4s0-0.1,0.1-0.2c0.4-1.5,0.3-2.9-0.5-4.4c-0.5-0.8-1.1-1.3-1.8-1.9
					c-0.7,0.7-1.3,1.3-2,2c-0.6-0.6-1.1-1.1-1.7-1.7c0.6-0.6,1.1-1.1,1.7-1.7c-0.2-0.1-0.3-0.2-0.5-0.4c-1-0.9-2.1-1.7-2.6-2.8
					c-1-2-0.9-3.9,0.3-5.8c0.9-1.3,2.2-2.4,3.8-2.9l0,0c0,0,1,1.6,1.4,2.3c-0.5,0.2-0.9,0.4-1.2,0.7c-0.6,0.4-1,0.8-1.4,1.3
					c-0.8,1-0.7,2.1,0.2,3.1c0.6,0.8,1.2,1.2,2,1.8c0.2,0.1,0.4,0.3,0.6,0.4c0.9-0.9,1.9-1.9,2.8-2.8c0.6,0.6,1.1,1.1,1.7,1.7
					c-0.9,0.9-1.8,1.8-2.6,2.6c0.7,0.7,1.3,1.3,1.8,2.2c0.5,0.9,0.6,1.8,0.6,2.8c1.9-1.9,3.8-3.8,5.7-5.7c0.7,0.7,1.3,1.3,2,2
					C464,158,461,160.9,458.1,163.8z"/>
			</g>
		</g>
	</g>
</g>
<g>
	<g>
		<g>
			<path class="st0" d="M527.8,231.3h-4.5v2.4h4.1v3.1h-4.1v5.6h-3.7v-14.3h8.2V231.3z"/>
			<path class="st0" d="M533.5,228.2v11.1h4.4v3.1h-8.2v-14.3H533.5z"/>
			<path class="st0" d="M547.3,231.3h-4.4v2.4h4.2v3.1h-4.2v2.5h4.4v3.1h-8.1v-14.3h8.1V231.3z"/>
			<path class="st0" d="M553.8,234.8l-4.6-6.6h4.6l2.2,3.7l2.2-3.7h4.6l-4.6,6.6l5.3,7.6H559l-3-4.7l-3.3,4.7h-4.5L553.8,234.8z"/>
			<path class="st0" d="M568.3,228.2v14.3h-3.7v-14.3H568.3z"/>
			<path class="st0" d="M576.4,242.5h-5.7v-14.3h5.3c2.8,0,4.2,1.2,4.2,3.7c0,1.4-0.5,2.4-1.6,2.9v0c1.9,0.3,2.9,1.5,2.9,3.6
				c0,0.7-0.1,1.3-0.4,1.9c-0.3,0.5-0.7,0.9-1.2,1.2c-0.5,0.3-1,0.5-1.6,0.7S577.1,242.5,576.4,242.5z M574.4,231v2.8h0.4
				c0.6,0,1.1-0.1,1.5-0.3s0.5-0.6,0.5-1.1c0-0.3-0.1-0.6-0.2-0.8c-0.1-0.2-0.3-0.3-0.5-0.4c-0.2-0.1-0.5-0.1-0.7-0.2s-0.5,0-0.8,0
				H574.4z M574.4,236.6v3.1h0.5c0.3,0,0.5,0,0.6,0c0.1,0,0.3,0,0.6,0c0.3,0,0.5-0.1,0.7-0.1c0.1-0.1,0.3-0.1,0.5-0.3
				c0.2-0.1,0.3-0.3,0.4-0.4c0.1-0.2,0.1-0.4,0.1-0.7c0-0.2,0-0.4-0.1-0.5c0-0.2-0.1-0.3-0.2-0.4c-0.1-0.1-0.2-0.2-0.3-0.3
				s-0.2-0.1-0.4-0.2c-0.2,0-0.3-0.1-0.4-0.1c-0.1,0-0.2-0.1-0.5-0.1c-0.2,0-0.4,0-0.4,0s-0.2,0-0.5,0s-0.4,0-0.4,0H574.4z"/>
			<path class="st0" d="M587.2,228.2v11.1h4.4v3.1h-8.2v-14.3H587.2z"/>
			<path class="st0" d="M601,231.3h-4.4v2.4h4.2v3.1h-4.2v2.5h4.4v3.1h-8.1v-14.3h8.1V231.3z"/>
			<path class="st0" d="M608.9,242.5l2.4-14.3h3.7l2.9,7.6l3.1-7.6h3.7l2.2,14.3h-3.7l-1-8.2h0l-3.4,8.2h-1.5l-3.3-8.2h0l-1.2,8.2
				H608.9z"/>
			<path class="st0" d="M631.7,228.6c1.2-0.6,2.5-0.9,3.9-0.9s2.7,0.3,3.9,0.9c1.2,0.6,2.2,1.5,2.9,2.6c0.7,1.1,1.1,2.4,1.1,3.8
				c0,2.3-0.7,4.2-2.2,5.7c-1.5,1.5-3.4,2.2-5.7,2.2s-4.2-0.7-5.7-2.2c-1.5-1.5-2.2-3.4-2.2-5.7c0-1.4,0.4-2.7,1.1-3.8
				C629.5,230.1,630.5,229.2,631.7,228.6z M638.4,232.4c-0.8-0.8-1.7-1.1-2.8-1.1s-2,0.4-2.8,1.1c-0.8,0.8-1.2,1.6-1.2,2.6
				c0,1.2,0.4,2.2,1.2,3c0.8,0.8,1.7,1.2,2.9,1.2s2.1-0.4,2.9-1.2c0.8-0.8,1.2-1.8,1.2-3C639.6,234.1,639.2,233.2,638.4,232.4z"/>
			<path class="st0" d="M647.7,228.2l3.4,8.7l3.5-8.7h4l-6.1,14.3h-2.9l-6-14.3H647.7z"/>
			<path class="st0" d="M667.7,231.3h-4.4v2.4h4.2v3.1h-4.2v2.5h4.4v3.1h-8.1v-14.3h8.1V231.3z"/>
			<path class="st0" d="M676.5,242.5v-14.3h5.3c2,0,3.7,0.7,5.1,2.1c1.4,1.4,2.1,3.1,2.1,5.1c0,2-0.7,3.7-2.1,5.1s-3.1,2.1-5.1,2.1
				H676.5z M680.2,231.3v8h0.8c1.2,0,2.2-0.3,2.9-1c0.8-0.7,1.2-1.7,1.2-3c0-1.2-0.4-2.2-1.1-2.9c-0.7-0.7-1.7-1.1-3-1.1H680.2z"/>
			<path class="st0" d="M699.4,240h-5.1l-1,2.5h-3.9l5.5-14.3h4l5.4,14.3h-4L699.4,240z M698.4,237.1l-1.5-4.5h0l-1.5,4.5H698.4z"/>
			<path class="st0" d="M710,231.3v11.1h-3.7v-11.1h-3.1v-3.1h9.8v3.1H710z"/>
			<path class="st0" d="M722.6,231.3h-4.4v2.4h4.2v3.1h-4.2v2.5h4.4v3.1h-8.1v-14.3h8.1V231.3z"/>
		</g>
	</g>
	<g id="Layer_1_4_">
		<g>
			<path d="M470.3,216.2h-4.9v-4c0-0.7-0.6-1.2-1.2-1.2s-1.2,0.6-1.2,1.2v4.1h-22.1v-4.1c0-0.7-0.6-1.2-1.2-1.2s-1.2,0.6-1.2,1.2
				v4.1h-4.8c-3.3-0.1-6.1,2.6-6.1,6v34.1c0,3.3,2.7,6.1,6.1,6.1h36.7c3.3,0,6.1-2.7,6.1-6.1v-34.1
				C476.3,218.9,473.6,216.2,470.3,216.2z M474,256.3c0,2-1.6,3.7-3.7,3.7h-36.7c-2,0-3.7-1.6-3.7-3.7v-26h44L474,256.3L474,256.3z
				 M474,227.8h-44.1v-5.6c0-2,1.6-3.7,3.7-3.7h4.9v3.8c0,0.7,0.6,1.2,1.2,1.2c0.7,0,1.2-0.6,1.2-1.2v-3.8h22.2v3.8
				c0,0.7,0.6,1.2,1.2,1.2c0.7,0,1.2-0.6,1.2-1.2v-3.8h4.9c2,0,3.7,1.6,3.7,3.7v5.6H474z"/>
			<path d="M434.1,256.9h8.1c0.7,0,1.2-0.6,1.2-1.2v-7.9c0-0.7-0.6-1.2-1.2-1.2h-8.1c-0.7,0-1.2,0.6-1.2,1.2v7.9
				C432.9,256.3,433.5,256.9,434.1,256.9z M435.3,248.9h5.8v5.6h-5.8V248.9z"/>
			<path d="M441.1,219.7v3.5l0,0c0,0.9-0.7,1.4-1.4,1.4c-0.9,0-1.4-0.7-1.4-1.4c0,0,0,0,0-0.1v-3.4c-1.4,0.6-2.4,2-2.4,3.6
				c0,2.1,1.7,3.9,3.9,3.9c2.2,0,3.9-1.7,3.9-3.9C443.5,221.6,442.5,220.2,441.1,219.7z"/>
			<path d="M461.6,256.9h8.1c0.7,0,1.2-0.6,1.2-1.2v-7.9c0-0.7-0.6-1.2-1.2-1.2h-8.1c-0.7,0-1.2,0.6-1.2,1.2v7.9
				C460.4,256.3,460.9,256.9,461.6,256.9z M462.8,248.9h5.8v5.6h-5.8V248.9z"/>
			<path d="M447.9,256.9h8.1c0.7,0,1.2-0.6,1.2-1.2v-7.9c0-0.7-0.6-1.2-1.2-1.2h-8.1c-0.7,0-1.2,0.6-1.2,1.2v7.9
				C446.6,256.3,447.2,256.9,447.9,256.9z M449.1,248.9h5.8v5.6h-5.8V248.9z"/>
			<path d="M442.3,233.2h-8.1c-0.7,0-1.2,0.6-1.2,1.2v7.9c0,0.7,0.6,1.2,1.2,1.2h8.1c0.7,0,1.2-0.6,1.2-1.2v-7.9
				C443.4,233.7,442.9,233.2,442.3,233.2z M439.8,238.3c-1.5,2.4-2.5,4.2-2.5,4.2l-0.7-0.5l-2.6-1.7l0.9-1.2l2,1.4
				c0,0,0.9-1.3,2.1-2.9c1.2-1.6,2.8-3.4,2.8-3.4l0.5,0.4C442.5,234.4,441.3,235.9,439.8,238.3z"/>
			<path d="M461.6,243.5h8.1c0.7,0,1.2-0.6,1.2-1.2v-7.9c0-0.7-0.6-1.2-1.2-1.2h-8.1c-0.7,0-1.2,0.6-1.2,1.2v7.9
				C460.4,243,460.9,243.5,461.6,243.5z M462.8,235.6h5.8v5.6h-5.8V235.6z"/>
			<path d="M447.9,243.5h8.1c0.7,0,1.2-0.6,1.2-1.2v-7.9c0-0.7-0.6-1.2-1.2-1.2h-8.1c-0.7,0-1.2,0.6-1.2,1.2v7.9
				C446.6,243,447.2,243.5,447.9,243.5z M449.1,235.6h5.8v5.6h-5.8V235.6z"/>
			<path d="M465.7,219.7v3.5c0,0,0,0,0,0.1c0,0.9-0.7,1.4-1.4,1.4c-0.8,0-1.4-0.7-1.4-1.4l0,0v-3.6c-1.4,0.6-2.4,2-2.4,3.6
				c0,2.1,1.7,3.9,3.9,3.9c2.2,0,3.9-1.7,3.9-3.9C468.1,221.6,467.1,220.2,465.7,219.7z"/>
		</g>
	</g>
</g>
<g>
	<g>
		<g>
			<path class="st0" d="M111.1,37.7V23.4h3.7l6.8,8.7h0v-8.7h3.7v14.3h-3.7l-6.8-8.7h0v8.7H111.1z"/>
			<path class="st0" d="M131.1,23.9c1.2-0.6,2.5-0.9,3.9-0.9c1.4,0,2.7,0.3,3.9,0.9c1.2,0.6,2.2,1.5,2.9,2.6
				c0.7,1.1,1.1,2.4,1.1,3.8c0,2.3-0.7,4.2-2.2,5.7c-1.5,1.5-3.4,2.2-5.7,2.2c-2.3,0-4.2-0.7-5.7-2.2c-1.5-1.5-2.2-3.4-2.2-5.7
				c0-1.4,0.4-2.7,1.1-3.8C128.9,25.4,129.9,24.5,131.1,23.9z M137.8,27.7c-0.8-0.8-1.7-1.1-2.8-1.1c-1.1,0-2,0.4-2.8,1.1
				c-0.8,0.8-1.2,1.6-1.2,2.6c0,1.2,0.4,2.2,1.2,3c0.8,0.8,1.7,1.2,2.9,1.2c1.1,0,2.1-0.4,2.9-1.2c0.8-0.8,1.2-1.8,1.2-3
				C139,29.3,138.6,28.4,137.8,27.7z"/>
			<path class="st0" d="M153.6,23.4l3.4,8.7l3.5-8.7h4l-6.1,14.3h-2.9l-6-14.3H153.6z"/>
			<path class="st0" d="M169.2,23.4v14.3h-3.7V23.4H169.2z"/>
			<path class="st0" d="M179.7,26.6h-4.4V29h4.2v3.1h-4.2v2.5h4.4v3.1h-8.1V23.4h8.1V26.6z"/>
			<path class="st0" d="M184.4,23.4l2.5,9.2h0l3-9.2h3l2.8,9.2h0l2.7-9.2h3.9l-4.6,14.3h-3.8l-2.5-8.3h0l-2.8,8.3h-3.8l-4.3-14.3
				H184.4z"/>
			<path class="st0" d="M206.9,23.4v14.3h-3.7V23.4H206.9z"/>
			<path class="st0" d="M209.3,37.7V23.4h3.7l6.8,8.7h0v-8.7h3.7v14.3h-3.7L213,29h0v8.7H209.3z"/>
			<path class="st0" d="M232.8,29.7h7.4c0,1.2-0.1,2.3-0.3,3.1c-0.2,0.9-0.6,1.7-1.1,2.5c-1.3,1.9-3.3,2.8-5.9,2.8
				c-2.2,0-4.1-0.7-5.5-2.1c-1.4-1.4-2.1-3.2-2.1-5.4c0-2.3,0.7-4.2,2.1-5.6s3.3-2.1,5.6-2.1c1.5,0,2.8,0.3,3.9,1
				c1.1,0.7,1.9,1.7,2.6,3l-3.5,1.5c-0.3-0.7-0.7-1.3-1.2-1.7c-0.5-0.4-1.2-0.6-1.9-0.6c-1.1,0-2.1,0.5-2.7,1.4c-0.7,0.9-1,2-1,3.1
				s0.3,2.2,1,3.1c0.7,0.9,1.6,1.3,2.8,1.3c0.8,0,1.5-0.2,2.1-0.6c0.5-0.4,0.9-1,0.9-1.8h-3V29.7z"/>
			<path class="st0" d="M251.2,24.2l-1.5,2.9c-0.8-0.6-1.6-0.9-2.5-0.9c-0.4,0-0.8,0.1-1.1,0.3s-0.5,0.5-0.5,0.9
				c0,0.3,0.1,0.5,0.3,0.7c0.2,0.2,0.4,0.3,0.6,0.4c0.2,0.1,0.4,0.2,0.7,0.3l0.9,0.3c1.1,0.3,2,0.8,2.6,1.4c0.6,0.6,0.9,1.4,0.9,2.5
				c0,1.7-0.5,3-1.5,3.8c-1.1,0.9-2.4,1.3-4.1,1.3c-1.8,0-3.5-0.5-5-1.6l1.6-3c1.1,1,2.2,1.5,3.3,1.5c0.5,0,0.9-0.1,1.3-0.4
				c0.4-0.2,0.5-0.6,0.5-1.1c0-0.6-0.6-1.1-1.8-1.5c0,0-0.2-0.1-0.5-0.1c-0.7-0.2-1.2-0.4-1.6-0.5c-0.4-0.2-0.8-0.4-1.2-0.7
				c-0.4-0.3-0.7-0.7-0.8-1.1c-0.2-0.5-0.2-1-0.2-1.7c0-1.4,0.5-2.6,1.4-3.5c0.9-0.9,2.1-1.3,3.5-1.3c0.7,0,1.5,0.1,2.3,0.3
				C249.9,23.6,250.6,23.9,251.2,24.2z"/>
		</g>
	</g>
	<g id="Layer_1_8_">
		<g>
			<path d="M54.1,30L34.7,10.6c-0.6-0.6-1.4-0.9-2.3-0.9c-0.9,0-1.7,0.4-2.3,0.9L25,15.8v-4.9c0-0.7-0.6-1.2-1.2-1.2H17
				c-0.7,0-1.2,0.6-1.2,1.2v14L10.7,30c-0.4,0.4-0.5,0.9-0.3,1.3s0.7,0.8,1.1,0.8h4.3v2.2l0.4-0.1c0.5-0.1,1-0.1,1.6,0l0.4,0.1v-3.3
				c0-0.7-0.6-1.2-1.2-1.2h-2.6l3.4-3.4c0.2-0.2,0.4-0.6,0.4-0.9V12h4.3v6.3c0,0.8,0.6,1.3,1.3,1.3c0.4,0,0.7-0.1,0.9-0.4l7-7
				c0.3-0.3,0.9-0.3,1.2,0l17.3,17.3h-2.6c-0.7,0-1.2,0.6-1.2,1.2v18.6H36.1l0.1,0.5c0.1,0.6,0.2,1,0.2,1.6V52h11.4
				c0.7,0,1.2-0.6,1.2-1.2V32h4.3c0.5,0,0.9-0.3,1.1-0.8C54.6,30.9,54.5,30.3,54.1,30z"/>
			<path d="M8.4,52h1.7c0-3.9,3.1-7,7-7s7,3.1,7,7h1.7c0-1.6-0.5-3.1-1.2-4.4c0.9-0.8,2.2-1.1,3.4-1.1c3,0,5.6,2.5,5.6,5.6h1.7
				c0-3.4-2.3-6.2-5.4-7.1c1.1-0.7,1.9-1.9,1.9-3.2c0-2.1-1.7-3.8-3.8-3.8s-3.8,1.7-3.8,3.8c0,1.4,0.8,2.6,1.9,3.2
				c-0.9,0.3-1.8,0.7-2.6,1.2c-1.2-1.4-2.8-2.4-4.7-2.7c1.5-0.7,2.6-2.3,2.6-4.1c0-2.5-2-4.4-4.4-4.4s-4.4,2-4.4,4.4
				c0,1.8,1,3.3,2.6,4.1C11.4,44.2,8.4,47.7,8.4,52z M30.1,41.6c0,1.1-0.9,2-2,2c-1,0-2-0.9-2-2c0-1,0.9-2,2-2
				C29.1,39.7,30.1,40.5,30.1,41.6z M17.1,42c-1.5,0-2.6-1.2-2.6-2.6s1.2-2.6,2.6-2.6c1.5,0,2.6,1.2,2.6,2.6S18.6,42,17.1,42z"/>
		</g>
		<path class="st1" d="M31.9,0C14.3,0,0,14.3,0,31.9s14.3,31.9,31.9,31.9s31.9-14.3,31.9-31.9C63.9,14.3,49.5,0,31.9,0z M6.1,31.9
			c0-6.1,2.1-11.6,5.6-16L48,52.2c-4.4,3.5-9.9,5.6-16,5.6C17.7,57.8,6.1,46.2,6.1,31.9z M52.2,48L15.9,11.6c4.4-3.5,9.9-5.6,16-5.6
			c14.3,0,25.8,11.6,25.8,25.8C57.8,38,55.7,43.5,52.2,48z"/>
	</g>
	<g>
		<g>
			<path class="st0" d="M111.1,134.6v-14.3h3.7l6.8,8.7h0v-8.7h3.7v14.3h-3.7l-6.8-8.7h0v8.7H111.1z"/>
			<path class="st0" d="M131.1,120.7c1.2-0.6,2.5-0.9,3.9-0.9c1.4,0,2.7,0.3,3.9,0.9c1.2,0.6,2.2,1.5,2.9,2.6s1.1,2.4,1.1,3.8
				c0,2.3-0.7,4.2-2.2,5.7c-1.5,1.5-3.4,2.2-5.7,2.2c-2.3,0-4.2-0.7-5.7-2.2c-1.5-1.5-2.2-3.4-2.2-5.7c0-1.4,0.4-2.7,1.1-3.8
				C128.9,122.2,129.9,121.4,131.1,120.7z M137.8,124.6c-0.8-0.8-1.7-1.1-2.8-1.1c-1.1,0-2,0.4-2.8,1.1c-0.8,0.8-1.2,1.6-1.2,2.6
				c0,1.2,0.4,2.2,1.2,3c0.8,0.8,1.7,1.2,2.9,1.2c1.1,0,2.1-0.4,2.9-1.2c0.8-0.8,1.2-1.8,1.2-3C139,126.2,138.6,125.3,137.8,124.6z"
				/>
			<path class="st0" d="M154.8,125.8h5.4v-5.5h3.7v14.3h-3.7v-5.8h-5.4v5.8h-3.7v-14.3h3.7V125.8z"/>
			<path class="st0" d="M170,120.3v14.3h-3.7v-14.3H170z"/>
			<path class="st0" d="M172.4,134.6v-14.3h5.3c2,0,3.7,0.7,5.1,2.1c1.4,1.4,2.1,3.1,2.1,5.1c0,2-0.7,3.7-2.1,5.1
				c-1.4,1.4-3.1,2.1-5.1,2.1H172.4z M176.1,123.4v8h0.8c1.2,0,2.2-0.3,2.9-1c0.8-0.7,1.2-1.7,1.2-3c0-1.2-0.4-2.2-1.1-2.9
				s-1.7-1.1-3-1.1H176.1z"/>
			<path class="st0" d="M186.6,134.6v-14.3h5.3c2,0,3.7,0.7,5.1,2.1c1.4,1.4,2.1,3.1,2.1,5.1c0,2-0.7,3.7-2.1,5.1
				c-1.4,1.4-3.1,2.1-5.1,2.1H186.6z M190.3,123.4v8h0.8c1.2,0,2.2-0.3,2.9-1c0.8-0.7,1.2-1.7,1.2-3c0-1.2-0.4-2.2-1.1-2.9
				s-1.7-1.1-3-1.1H190.3z"/>
			<path class="st0" d="M209,123.4h-4.4v2.4h4.2v3.1h-4.2v2.5h4.4v3.1h-8.1v-14.3h8.1V123.4z"/>
			<path class="st0" d="M211.3,134.6v-14.3h3.7l6.8,8.7h0v-8.7h3.7v14.3h-3.7l-6.8-8.7h0v8.7H211.3z"/>
			<path class="st0" d="M242.6,123.4h-4.5v2.4h4.1v3.1h-4.1v5.6h-3.7v-14.3h8.2V123.4z"/>
			<path class="st0" d="M252.8,123.4h-4.4v2.4h4.2v3.1h-4.2v2.5h4.4v3.1h-8.1v-14.3h8.1V123.4z"/>
			<path class="st0" d="M263.2,123.4h-4.4v2.4h4.2v3.1h-4.2v2.5h4.4v3.1h-8.1v-14.3h8.1V123.4z"/>
			<path class="st0" d="M274.8,121.1l-1.5,2.9c-0.8-0.6-1.6-0.9-2.5-0.9c-0.4,0-0.8,0.1-1.1,0.3s-0.5,0.5-0.5,0.9
				c0,0.3,0.1,0.5,0.3,0.7c0.2,0.2,0.4,0.3,0.6,0.4c0.2,0.1,0.4,0.2,0.7,0.3l0.9,0.3c1.1,0.3,2,0.8,2.6,1.4s0.9,1.4,0.9,2.5
				c0,1.7-0.5,3-1.5,3.8c-1.1,0.9-2.4,1.3-4.1,1.3c-1.8,0-3.5-0.5-5-1.6l1.6-3c1.1,1,2.2,1.5,3.3,1.5c0.5,0,0.9-0.1,1.3-0.4
				s0.5-0.6,0.5-1.1c0-0.6-0.6-1.1-1.8-1.5c0,0-0.2-0.1-0.5-0.1c-0.7-0.2-1.2-0.4-1.6-0.5c-0.4-0.2-0.8-0.4-1.2-0.7
				s-0.7-0.7-0.8-1.1c-0.2-0.5-0.2-1-0.2-1.7c0-1.4,0.5-2.6,1.4-3.5c0.9-0.9,2.1-1.3,3.5-1.3c0.7,0,1.5,0.1,2.3,0.3
				C273.5,120.5,274.2,120.7,274.8,121.1z"/>
		</g>
	</g>
	<g id="Layer_1_7_">
		<g>
			<path d="M45.1,148.5H16.7v-1.1c0-1.3,0-4.1,0-4.1v-0.7l0.6-0.3c0,0,0.2-0.1,0.4-0.2c2.7-1.6,4.4-3.7,5.3-6.4
				c0.4-1.3,0.3-2.7,0.2-4.2h-6v-7.3h4.9c-0.4-2.6-0.7-5.7,0.3-8.7c1.4-4.8,4.7-7.8,9.8-8.9c3.4-0.8,7.1-0.3,10.8,1.3l0.9,0.4
				l-0.3,0.9c0,0-0.9,3.9-1.2,5.5l-0.3,1.1l-1.1-0.4c-0.3-0.1-0.7-0.2-0.9-0.3c-0.7-0.2-1.2-0.4-1.9-0.6c-1.3-0.3-2.6-0.4-3.7-0.1
				c-2.1,0.4-3.2,1.7-3.5,3.9c-0.2,1.7,0,3.4,0.3,5.2v0.1c0,0.2,0,0.3,0.1,0.5h8.7v7.3H32c0,1.9-0.3,3.5-0.7,5.1
				c-0.4,1.2-0.9,2.5-1.8,3.5H45L45.1,148.5L45.1,148.5z M18.9,146.2h24v-3.8H24l2.3-2c1.7-1.4,2.6-2.7,3-4.4
				c0.5-1.6,0.7-3.5,0.6-5.6v-1.1h7.9v-2.8h-8.5l-0.2-1.4c-0.1-0.4-0.1-0.7-0.2-0.9V124c-0.3-1.9-0.6-3.8-0.3-5.8
				c0.4-3.2,2.3-5.2,5.3-5.8c1.4-0.3,2.9-0.2,4.5,0.1c0.7,0.1,1.2,0.4,1.8,0.6c0.3-1.1,0.6-2.6,0.8-3.4c-2.9-1.1-5.9-1.4-8.5-0.9
				c-4.3,0.9-6.9,3.3-8.1,7.4c-0.8,2.6-0.6,5.3-0.2,7.8c0,0.3,0.1,0.5,0.1,0.8l0.3,1.7h-5.3v2.8h5.8l0.1,1.7
				c0.1,1.7,0.3,3.5-0.3,5.3c-0.9,3.3-3,5.9-6.2,7.7C18.9,144.5,18.9,145.4,18.9,146.2z"/>
		</g>
		<path class="st1" d="M31.9,96.9C14.3,96.9,0,111.2,0,128.8s14.3,31.9,31.9,31.9s31.9-14.3,31.9-31.9
			C63.9,111.2,49.5,96.9,31.9,96.9z M6.1,128.8c0-6.1,2.1-11.6,5.6-16L48,149.1c-4.4,3.5-9.9,5.6-16,5.6
			C17.7,154.7,6.1,143.1,6.1,128.8z M52.2,144.9l-36.3-36.3c4.4-3.5,9.9-5.6,16-5.6c14.3,0,25.8,11.6,25.8,25.8
			C57.8,134.8,55.7,140.4,52.2,144.9z"/>
	</g>
	<g>
		<g>
			<path class="st0" d="M119.3,217.2h-4.5v2.4h4.1v3.1h-4.1v5.6h-3.7v-14.3h8.2V217.2z"/>
			<path class="st0" d="M128.7,222.5l4.5,5.8h-4.6l-3.5-5.5h0v5.5h-3.7v-14.3h5.5c1.5,0,2.7,0.4,3.6,1.1c0.9,0.7,1.4,1.8,1.4,3.3
				c0,1-0.3,1.9-0.8,2.6C130.5,221.9,129.7,222.3,128.7,222.5z M125.1,216.9v3.6h0.4c1.7,0,2.6-0.6,2.6-1.8c0-1.2-0.9-1.8-2.6-1.8
				H125.1z"/>
			<path class="st0" d="M142.4,217.2h-4.4v2.4h4.2v3.1h-4.2v2.5h4.4v3.1h-8.1v-14.3h8.1V217.2z"/>
			<path class="st0" d="M152.8,217.2h-4.4v2.4h4.2v3.1h-4.2v2.5h4.4v3.1h-8.1v-14.3h8.1V217.2z"/>
			<path class="st0" d="M165.3,214.1v11.1h4.4v3.1h-8.2v-14.3H165.3z"/>
			<path class="st0" d="M179,217.2h-4.4v2.4h4.2v3.1h-4.2v2.5h4.4v3.1h-8.1v-14.3h8.1V217.2z"/>
			<path class="st0" d="M188.2,220.4h7.4c0,1.2-0.1,2.3-0.3,3.1s-0.6,1.7-1.1,2.5c-1.3,1.9-3.3,2.8-5.9,2.8c-2.2,0-4.1-0.7-5.5-2.1
				c-1.4-1.4-2.1-3.2-2.1-5.4c0-2.3,0.7-4.2,2.1-5.6s3.3-2.1,5.6-2.1c1.5,0,2.8,0.3,3.9,1c1.1,0.7,1.9,1.7,2.6,3l-3.5,1.5
				c-0.3-0.7-0.7-1.3-1.2-1.7c-0.5-0.4-1.2-0.6-1.9-0.6c-1.1,0-2.1,0.5-2.7,1.4c-0.7,0.9-1,2-1,3.1c0,1.2,0.3,2.2,1,3.1
				c0.7,0.9,1.6,1.3,2.8,1.3c0.8,0,1.5-0.2,2.1-0.6c0.5-0.4,0.9-1,0.9-1.8h-3V220.4z"/>
			<path class="st0" d="M206,225.9h-5.1l-1,2.5H196l5.5-14.3h4.1l5.4,14.3h-4L206,225.9z M205,223.1l-1.5-4.5h0l-1.5,4.5H205z"/>
			<path class="st0" d="M215.8,214.1v11.1h4.4v3.1H212v-14.3H215.8z"/>
			<path class="st0" d="M238.1,214.4v4.4c-0.4-0.5-0.9-0.9-1.4-1.2s-1.2-0.4-1.8-0.4c-1.1,0-2,0.4-2.7,1.1c-0.7,0.8-1.1,1.7-1.1,2.8
				c0,1.1,0.4,2.1,1.1,2.8s1.6,1.1,2.8,1.1c0.6,0,1.2-0.1,1.8-0.4s1-0.6,1.4-1.1v4.4c-1.4,0.4-2.5,0.7-3.3,0.7c-2,0-3.8-0.7-5.4-2.1
				c-1.5-1.4-2.3-3.2-2.3-5.4c0-2,0.7-3.8,2.1-5.2c0.7-0.7,1.5-1.3,2.5-1.7c1-0.4,1.9-0.6,2.9-0.6
				C235.8,213.7,236.9,214,238.1,214.4z"/>
			<path class="st0" d="M243.7,214.5c1.2-0.6,2.5-0.9,3.9-0.9c1.4,0,2.7,0.3,3.9,0.9c1.2,0.6,2.2,1.5,2.9,2.6s1.1,2.4,1.1,3.8
				c0,2.3-0.7,4.2-2.2,5.7c-1.5,1.5-3.4,2.2-5.7,2.2c-2.3,0-4.2-0.7-5.7-2.2c-1.5-1.5-2.2-3.4-2.2-5.7c0-1.4,0.4-2.7,1.1-3.8
				S242.5,215.2,243.7,214.5z M250.4,218.4c-0.8-0.8-1.7-1.1-2.8-1.1c-1.1,0-2,0.4-2.8,1.1s-1.2,1.6-1.2,2.6c0,1.2,0.4,2.2,1.2,3
				s1.7,1.2,2.9,1.2c1.1,0,2.1-0.4,2.9-1.2c0.8-0.8,1.2-1.8,1.2-3C251.6,220,251.2,219.1,250.4,218.4z"/>
			<path class="st0" d="M266.5,214.9l-1.5,2.9c-0.8-0.6-1.6-0.9-2.5-0.9c-0.4,0-0.8,0.1-1.1,0.3c-0.3,0.2-0.5,0.5-0.5,0.9
				c0,0.3,0.1,0.5,0.3,0.7c0.2,0.2,0.4,0.3,0.6,0.4c0.2,0.1,0.4,0.2,0.7,0.3l0.9,0.3c1.1,0.3,2,0.8,2.6,1.4s0.9,1.4,0.9,2.5
				c0,1.7-0.5,3-1.5,3.8c-1.1,0.9-2.4,1.3-4.1,1.3c-1.8,0-3.5-0.5-5-1.6l1.6-3c1.1,1,2.2,1.5,3.3,1.5c0.5,0,0.9-0.1,1.3-0.4
				c0.4-0.2,0.5-0.6,0.5-1.1c0-0.6-0.6-1.1-1.8-1.5c0,0-0.2-0.1-0.5-0.1c-0.7-0.2-1.2-0.4-1.6-0.5s-0.8-0.4-1.2-0.7
				c-0.4-0.3-0.7-0.7-0.8-1.1c-0.2-0.5-0.2-1-0.2-1.7c0-1.4,0.5-2.6,1.4-3.5c0.9-0.9,2.1-1.3,3.5-1.3c0.7,0,1.5,0.1,2.3,0.3
				C265.1,214.3,265.9,214.5,266.5,214.9z"/>
			<path class="st0" d="M274.5,217.2v11.1h-3.7v-11.1h-3.1v-3.1h9.8v3.1H274.5z"/>
			<path class="st0" d="M288.2,214.9l-1.5,2.9c-0.8-0.6-1.6-0.9-2.5-0.9c-0.4,0-0.8,0.1-1.1,0.3c-0.3,0.2-0.5,0.5-0.5,0.9
				c0,0.3,0.1,0.5,0.3,0.7s0.4,0.3,0.6,0.4c0.2,0.1,0.4,0.2,0.7,0.3l0.9,0.3c1.1,0.3,2,0.8,2.6,1.4s0.9,1.4,0.9,2.5
				c0,1.7-0.5,3-1.5,3.8c-1.1,0.9-2.4,1.3-4.1,1.3c-1.8,0-3.5-0.5-5-1.6l1.6-3c1.1,1,2.2,1.5,3.3,1.5c0.5,0,0.9-0.1,1.3-0.4
				c0.4-0.2,0.5-0.6,0.5-1.1c0-0.6-0.6-1.1-1.8-1.5c0,0-0.2-0.1-0.5-0.1c-0.7-0.2-1.2-0.4-1.6-0.5c-0.4-0.2-0.8-0.4-1.2-0.7
				c-0.4-0.3-0.7-0.7-0.8-1.1s-0.2-1-0.2-1.7c0-1.4,0.5-2.6,1.4-3.5c0.9-0.9,2.1-1.3,3.5-1.3c0.7,0,1.5,0.1,2.3,0.3
				C286.9,214.3,287.6,214.5,288.2,214.9z"/>
		</g>
	</g>
	<g id="Layer_1_6_">
		<g>
			<g>
				<path d="M37.3,250.7c-0.4,0-0.7-0.1-0.9-0.4L7.3,221.3c-0.3-0.3-0.4-0.6-0.4-0.9v-12c0-0.4,0.1-0.7,0.4-0.9l9.4-9.4
					c0.3-0.3,0.6-0.4,0.9-0.4h12.1c0.4,0,0.7,0.1,0.9,0.4l29,29.1c0.5,0.5,0.5,1.3,0,1.8l-21.4,21.5C38,250.6,37.7,250.7,37.3,250.7
					z M9.6,219.8l27.7,27.7L57,227.9l-27.8-27.6h-11l-8.6,8.6C9.6,208.9,9.6,219.8,9.6,219.8z"/>
				<path d="M19.9,214.8c-1,0-2.2-0.4-3-1.2c-0.8-0.8-1.2-1.9-1.2-3s0.5-2.2,1.2-3c1.6-1.6,4.4-1.6,6,0l0,0l0,0l0,0
					c0.8,0.8,1.2,1.9,1.2,3s-0.5,2.2-1.2,3C22.1,214.4,21,214.8,19.9,214.8z M19.9,208.3c-0.6,0-1.2,0.3-1.6,0.7
					c-0.5,0.5-0.7,1-0.7,1.6s0.3,1.2,0.7,1.6c0.9,0.9,2.4,0.9,3.2,0c0.5-0.5,0.7-1,0.7-1.6c0-0.7-0.3-1.2-0.7-1.6l0,0
					C21.1,208.6,20.6,208.3,19.9,208.3z"/>
				<path d="M19.9,211.2c-0.2,0-0.3-0.1-0.5-0.2L4,195.6c-0.3-0.3-0.3-0.7,0-0.9s0.7-0.3,0.9,0l15.5,15.5c0.3,0.3,0.3,0.7,0,0.9
					C20.3,211.1,20.1,211.2,19.9,211.2z"/>
			</g>
			<g>
				<path d="M38.1,237.3c-0.5-0.5-1.3-1.4-1.3-1.4s0-0.1,0.1-0.2c0.4-1.5,0.3-2.9-0.5-4.4c-0.5-0.8-1.1-1.3-1.8-1.9
					c-0.7,0.7-1.3,1.3-2,2c-0.6-0.6-1.1-1.1-1.7-1.7c0.6-0.6,1.1-1.1,1.7-1.7c-0.2-0.1-0.3-0.2-0.5-0.4c-1-0.9-2.1-1.7-2.6-2.8
					c-1-2-0.9-3.9,0.3-5.8c0.9-1.3,2.2-2.4,3.8-2.9l0,0c0,0,1,1.6,1.4,2.3c-0.5,0.2-0.9,0.4-1.2,0.7c-0.6,0.4-1,0.8-1.4,1.3
					c-0.8,1-0.7,2.1,0.2,3.1c0.6,0.8,1.2,1.2,2,1.8c0.2,0.1,0.4,0.3,0.6,0.4c0.9-0.9,1.9-1.9,2.8-2.8c0.6,0.6,1.1,1.1,1.7,1.7
					c-0.9,0.9-1.8,1.8-2.6,2.6c0.7,0.7,1.3,1.3,1.8,2.2c0.5,0.9,0.6,1.8,0.6,2.8c1.9-1.9,3.8-3.8,5.7-5.7c0.7,0.7,1.3,1.3,2,2
					C43.9,231.5,41,234.4,38.1,237.3z"/>
			</g>
		</g>
	</g>
	<g>
		<g>
			<path class="st0" d="M118.7,304.8h-4.5v2.4h4.1v3.1h-4.1v5.6h-3.7v-14.3h8.2V304.8z"/>
			<path class="st0" d="M124.5,301.7v11.1h4.4v3.1h-8.2v-14.3H124.5z"/>
			<path class="st0" d="M138.3,304.8h-4.4v2.4h4.2v3.1h-4.2v2.5h4.4v3.1h-8.1v-14.3h8.1V304.8z"/>
			<path class="st0" d="M144.8,308.3l-4.6-6.6h4.6l2.2,3.7l2.2-3.7h4.6l-4.6,6.6l5.3,7.6H150l-3-4.7l-3.3,4.7h-4.5L144.8,308.3z"/>
			<path class="st0" d="M159.2,301.7V316h-3.7v-14.3H159.2z"/>
			<path class="st0" d="M167.4,316h-5.7v-14.3h5.3c2.8,0,4.2,1.2,4.2,3.7c0,1.4-0.5,2.4-1.6,2.9v0c1.9,0.3,2.9,1.5,2.9,3.6
				c0,0.7-0.1,1.3-0.4,1.9c-0.3,0.5-0.7,0.9-1.2,1.2c-0.5,0.3-1,0.5-1.6,0.7C168.7,315.9,168.1,316,167.4,316z M165.4,304.5v2.8h0.4
				c0.6,0,1.1-0.1,1.5-0.3c0.4-0.2,0.5-0.6,0.5-1.1c0-0.3-0.1-0.6-0.2-0.8c-0.1-0.2-0.3-0.3-0.5-0.4c-0.2-0.1-0.5-0.1-0.7-0.2
				c-0.2,0-0.5,0-0.8,0H165.4z M165.4,310.1v3.1h0.5c0.3,0,0.5,0,0.6,0s0.3,0,0.6,0s0.5-0.1,0.7-0.1c0.1-0.1,0.3-0.1,0.5-0.3
				c0.2-0.1,0.3-0.3,0.4-0.4s0.1-0.4,0.1-0.7c0-0.2,0-0.4-0.1-0.5c0-0.2-0.1-0.3-0.2-0.4c-0.1-0.1-0.2-0.2-0.3-0.3
				c-0.1-0.1-0.2-0.1-0.4-0.2c-0.2,0-0.3-0.1-0.4-0.1c-0.1,0-0.2-0.1-0.5-0.1c-0.2,0-0.4,0-0.4,0c-0.1,0-0.2,0-0.5,0
				c-0.2,0-0.4,0-0.4,0H165.4z"/>
			<path class="st0" d="M178.2,301.7v11.1h4.4v3.1h-8.2v-14.3H178.2z"/>
			<path class="st0" d="M191.9,304.8h-4.4v2.4h4.2v3.1h-4.2v2.5h4.4v3.1h-8.1v-14.3h8.1V304.8z"/>
			<path class="st0" d="M199.9,316l2.4-14.3h3.7l2.9,7.6l3.1-7.6h3.7l2.2,14.3h-3.7l-1-8.2h0l-3.4,8.2h-1.5l-3.3-8.2h0l-1.2,8.2
				H199.9z"/>
			<path class="st0" d="M222.7,302.1c1.2-0.6,2.5-0.9,3.9-0.9c1.4,0,2.7,0.3,3.9,0.9c1.2,0.6,2.2,1.5,2.9,2.6
				c0.7,1.1,1.1,2.4,1.1,3.8c0,2.3-0.7,4.2-2.2,5.7c-1.5,1.5-3.4,2.2-5.7,2.2c-2.3,0-4.2-0.7-5.7-2.2c-1.5-1.5-2.2-3.4-2.2-5.7
				c0-1.4,0.4-2.7,1.1-3.8C220.5,303.6,221.5,302.8,222.7,302.1z M229.4,306c-0.8-0.8-1.7-1.1-2.8-1.1c-1.1,0-2,0.4-2.8,1.1
				s-1.2,1.6-1.2,2.6c0,1.2,0.4,2.2,1.2,3s1.7,1.2,2.9,1.2c1.1,0,2.1-0.4,2.9-1.2s1.2-1.8,1.2-3C230.5,307.6,230.1,306.7,229.4,306z
				"/>
			<path class="st0" d="M238.7,301.7l3.4,8.7l3.5-8.7h4l-6.1,14.3h-2.9l-6-14.3H238.7z"/>
			<path class="st0" d="M258.7,304.8h-4.4v2.4h4.2v3.1h-4.2v2.5h4.4v3.1h-8.1v-14.3h8.1V304.8z"/>
			<path class="st0" d="M267.4,316v-14.3h5.3c2,0,3.7,0.7,5.1,2.1c1.4,1.4,2.1,3.1,2.1,5.1c0,2-0.7,3.7-2.1,5.1
				c-1.4,1.4-3.1,2.1-5.1,2.1H267.4z M271.1,304.8v8h0.8c1.2,0,2.2-0.3,2.9-1s1.2-1.7,1.2-3c0-1.2-0.4-2.2-1.1-2.9
				c-0.7-0.7-1.7-1.1-3-1.1H271.1z"/>
			<path class="st0" d="M290.4,313.5h-5.1l-1,2.5h-3.9l5.5-14.3h4.1l5.4,14.3h-4L290.4,313.5z M289.4,310.7l-1.5-4.5h0l-1.5,4.5
				H289.4z"/>
			<path class="st0" d="M301,304.8V316h-3.7v-11.1h-3.1v-3.1h9.8v3.1H301z"/>
			<path class="st0" d="M313.5,304.8h-4.4v2.4h4.2v3.1h-4.2v2.5h4.4v3.1h-8.1v-14.3h8.1V304.8z"/>
		</g>
	</g>
	<g id="Layer_1_5_">
		<g>
			<path d="M50.3,289.7h-4.9v-4c0-0.7-0.6-1.2-1.2-1.2s-1.2,0.6-1.2,1.2v4.1H20.8v-4.1c0-0.7-0.6-1.2-1.2-1.2
				c-0.7,0-1.2,0.6-1.2,1.2v4.1h-4.8c-3.3-0.1-6.1,2.6-6.1,6v34.1c0,3.3,2.7,6.1,6.1,6.1h36.7c3.3,0,6.1-2.7,6.1-6.1v-34.1
				C56.3,292.4,53.6,289.7,50.3,289.7z M53.9,329.8c0,2-1.6,3.7-3.7,3.7H13.5c-2,0-3.7-1.6-3.7-3.7v-26h44L53.9,329.8L53.9,329.8z
				 M53.9,301.3H9.8v-5.6c0-2,1.6-3.7,3.7-3.7h4.9v3.8c0,0.7,0.6,1.2,1.2,1.2c0.7,0,1.2-0.6,1.2-1.2V292h22.2v3.8
				c0,0.7,0.6,1.2,1.2,1.2s1.2-0.6,1.2-1.2V292h4.9c2,0,3.7,1.6,3.7,3.7v5.6H53.9z"/>
			<path d="M14.1,330.4h8.1c0.7,0,1.2-0.6,1.2-1.2v-7.9c0-0.7-0.6-1.2-1.2-1.2h-8.1c-0.7,0-1.2,0.6-1.2,1.2v7.9
				C12.9,329.8,13.4,330.4,14.1,330.4z M15.2,322.4H21v5.6h-5.8V322.4z"/>
			<path d="M21.1,293.2v3.5l0,0c0,0.9-0.7,1.4-1.4,1.4c-0.9,0-1.4-0.7-1.4-1.4c0,0,0,0,0-0.1v-3.4c-1.4,0.6-2.4,2-2.4,3.6
				c0,2.1,1.7,3.9,3.9,3.9s3.9-1.7,3.9-3.9C23.5,295.1,22.4,293.7,21.1,293.2z"/>
			<path d="M41.5,330.4h8.1c0.7,0,1.2-0.6,1.2-1.2v-7.9c0-0.7-0.6-1.2-1.2-1.2h-8.1c-0.7,0-1.2,0.6-1.2,1.2v7.9
				C40.4,329.8,40.9,330.4,41.5,330.4z M42.8,322.4h5.8v5.6h-5.8V322.4z"/>
			<path d="M27.8,330.4H36c0.7,0,1.2-0.6,1.2-1.2v-7.9c0-0.7-0.6-1.2-1.2-1.2h-8.1c-0.7,0-1.2,0.6-1.2,1.2v7.9
				C26.6,329.8,27.2,330.4,27.8,330.4z M29.1,322.4h5.8v5.6h-5.8V322.4z"/>
			<path d="M22.2,306.7h-8.1c-0.7,0-1.2,0.6-1.2,1.2v7.9c0,0.7,0.6,1.2,1.2,1.2h8.1c0.7,0,1.2-0.6,1.2-1.2v-7.9
				C23.4,307.2,22.9,306.7,22.2,306.7z M19.8,311.8c-1.5,2.4-2.5,4.2-2.5,4.2l-0.7-0.5l-2.6-1.7l0.9-1.2l2,1.4c0,0,0.9-1.3,2.1-2.9
				c1.2-1.6,2.8-3.4,2.8-3.4l0.5,0.4C22.4,307.9,21.3,309.5,19.8,311.8z"/>
			<path d="M41.5,317h8.1c0.7,0,1.2-0.6,1.2-1.2v-7.9c0-0.7-0.6-1.2-1.2-1.2h-8.1c-0.7,0-1.2,0.6-1.2,1.2v7.9
				C40.4,316.5,40.9,317,41.5,317z M42.8,309.1h5.8v5.6h-5.8V309.1z"/>
			<path d="M27.8,317H36c0.7,0,1.2-0.6,1.2-1.2v-7.9c0-0.7-0.6-1.2-1.2-1.2h-8.1c-0.7,0-1.2,0.6-1.2,1.2v7.9
				C26.6,316.5,27.2,317,27.8,317z M29.1,309.1h5.8v5.6h-5.8V309.1z"/>
			<path d="M45.6,293.2v3.5c0,0,0,0,0,0.1c0,0.9-0.7,1.4-1.4,1.4c-0.8,0-1.4-0.7-1.4-1.4l0,0v-3.6c-1.4,0.6-2.4,2-2.4,3.6
				c0,2.1,1.7,3.9,3.9,3.9c2.2,0,3.9-1.7,3.9-3.9C48.1,295.1,47,293.7,45.6,293.2z"/>
		</g>
	</g>
</g>
</svg>
